<svg width="27" height="27" viewBox="0 0 27 27" fill="none" xmlns="http://www.w3.org/2000/svg">
<path d="M23.65 0.449951H3.34995C1.75495 0.449951 0.449951 1.75495 0.449951 3.34995V23.65C0.449951 25.2464 1.75495 26.5499 3.34995 26.5499H13.5V16.4H10.6V12.8112H13.5V9.8387C13.5 6.7009 15.2573 4.4969 18.9606 4.4969L21.575 4.4998V8.27705H19.8393C18.3981 8.27705 17.85 9.35875 17.85 10.3622V12.8127H21.5735L20.75 16.4H17.85V26.5499H23.65C25.2449 26.5499 26.5499 25.2464 26.5499 23.65V3.34995C26.5499 1.75495 25.2449 0.449951 23.65 0.449951Z" fill="#F8F8F8"/>
</svg>
