<svg width="27" height="27" viewBox="0 0 27 27" fill="none" xmlns="http://www.w3.org/2000/svg">
<path d="M26.5499 23.65V3.34995C26.5499 1.75495 25.2406 0.449951 23.6427 0.449951H3.3572C1.6897 0.449951 0.449951 1.6868 0.449951 3.34995V23.65C0.449951 25.3146 1.6897 26.5499 3.3572 26.5499H23.6427C24.4121 26.5488 25.1499 26.2431 25.6946 25.6997C26.2394 25.1563 26.5469 24.4194 26.5499 23.65ZM21.0168 15.8301C21.0168 15.8301 22.6581 17.4497 23.0627 18.2008C23.0743 18.2168 23.0786 18.2313 23.083 18.2371C23.2468 18.5126 23.2889 18.7301 23.2063 18.8896C23.07 19.155 22.6059 19.2884 22.4479 19.2999H19.5494C19.3463 19.2999 18.9258 19.2477 18.4155 18.8954C18.024 18.6228 17.6368 18.1719 17.2598 17.7325C16.6972 17.08 16.21 16.5145 15.7199 16.5145C15.6577 16.5144 15.596 16.5246 15.5372 16.545C15.1645 16.6639 14.6918 17.1931 14.6918 18.6069C14.6918 19.0491 14.3439 19.3014 14.0974 19.3014H12.7692C12.3168 19.3014 9.9605 19.1434 7.87395 16.9408C5.31325 14.2438 3.01355 8.83385 2.99325 8.786C2.84825 8.43655 3.1484 8.2466 3.47465 8.2466H6.40365C6.7966 8.2466 6.92275 8.4844 7.01265 8.69755C7.11415 8.9397 7.49695 9.917 8.12335 11.0161C9.1427 12.804 9.77055 13.5319 10.2708 13.5319C10.3643 13.5313 10.4562 13.5069 10.5376 13.4608C11.1916 13.0997 11.0698 10.7682 11.0408 10.2868C11.0408 10.1954 11.0393 9.2442 10.7058 8.78745C10.4651 8.45685 10.0577 8.3307 9.81115 8.28285C9.91166 8.14435 10.0439 8.03197 10.1969 7.95515C10.6449 7.73185 11.4526 7.69995 12.2559 7.69995H12.7025C13.5739 7.71155 13.8001 7.7681 14.1147 7.84785C14.7513 8.0001 14.7644 8.41335 14.7078 9.81985C14.6919 10.2201 14.6745 10.6739 14.6745 11.2061C14.6745 11.3206 14.6701 11.4468 14.6701 11.5773C14.6498 12.2965 14.6266 13.1099 15.1341 13.4434C15.1998 13.4845 15.2756 13.5066 15.3531 13.5072C15.53 13.5072 16.0592 13.5072 17.4932 11.0465C18.124 9.9605 18.6098 8.6787 18.6431 8.583C18.6938 8.47953 18.7671 8.38883 18.8577 8.31765C18.932 8.27907 19.0147 8.25964 19.0984 8.2611H22.5422C22.9191 8.2611 23.1744 8.31765 23.2222 8.4612C23.3048 8.69175 23.2063 9.395 21.633 11.5207L20.9327 12.4487C19.5058 14.3163 19.5058 14.412 21.0168 15.8301Z" fill="#F8F8F8"/>
</svg>
