<svg width="44" height="44" viewBox="0 0 44 44" fill="none" xmlns="http://www.w3.org/2000/svg">
<path d="M22 0.634277H22.1667L22.2908 0.54117C27.8999 0.584624 33.2699 2.83163 37.2394 6.80112C41.248 10.8097 43.5 16.2465 43.5 21.9155C43.5 27.5845 41.248 33.0213 37.2394 37.0299C33.2308 41.0385 27.794 43.2905 22.125 43.2905H20.2708C18.0357 43.1001 16.7259 41.6851 16.3363 39.8914C15.9397 38.0659 16.5014 35.8339 18.1128 34.1346L18.1184 34.1287L18.1237 34.1227C19.1985 32.9133 19.7705 31.3391 19.7229 29.7219C19.6753 28.1048 19.0116 26.5669 17.8676 25.4229C16.7236 24.2789 15.1858 23.6152 13.5686 23.5676C11.9514 23.52 10.3772 24.0921 9.16785 25.1668L9.15685 25.1766L9.14644 25.187C7.55355 26.7799 5.44739 27.3508 3.74025 27.0037C2.06649 26.6634 0.756275 25.4453 0.625 23.3378V22.0093C0.625 16.3403 2.877 10.9035 6.88559 6.89487C10.8942 2.88628 16.331 0.634277 22 0.634277ZM20.3593 41.259L20.3671 41.2593H20.375H21.7929L21.9179 41.3843H22.125C25.9323 41.3843 29.6541 40.2553 32.8197 38.1401C35.9854 36.0248 38.4527 33.0184 39.9097 29.5009C41.3667 25.9835 41.7479 22.1129 41.0051 18.3788C40.2623 14.6447 38.429 11.2146 35.7368 8.52247C33.0446 5.83031 29.6146 3.99693 25.8805 3.25416C22.1463 2.51139 18.2758 2.89261 14.7583 4.3496C11.2409 5.80658 8.23442 8.2739 6.11921 11.4395C4.00399 14.6052 2.875 18.327 2.875 22.1343V23.2809C2.8589 23.7337 3.01293 24.1762 3.30698 24.5211L3.3159 24.5316L3.32538 24.5416C3.58176 24.8108 3.91597 24.9931 4.28117 25.0629L4.293 25.0652L4.30491 25.0668C4.90849 25.1523 5.52386 25.0841 6.09412 24.8687C6.65803 24.6557 7.15981 24.3054 7.55414 23.8498C8.33789 23.0689 9.26708 22.4492 10.2892 22.0256C11.317 21.5997 12.4187 21.3805 13.5312 21.3805C14.6438 21.3805 15.7455 21.5997 16.7733 22.0256C17.8 22.4511 18.7329 23.0745 19.5189 23.8603C21.0531 25.4406 21.9113 27.5566 21.9113 29.7593C21.9113 31.9617 21.0533 34.0775 19.5193 35.6578C19.0266 36.1481 18.6578 36.7488 18.4435 37.4101C18.2288 38.0727 18.1754 38.777 18.2877 39.4644C18.3608 39.918 18.5711 40.3384 18.8903 40.669L18.9064 40.6857L18.9239 40.7008C19.3246 41.0454 19.8311 41.2424 20.3593 41.259ZM24.625 9.49053C24.625 10.1867 24.3484 10.8544 23.8561 11.3467C23.3639 11.839 22.6962 12.1155 22 12.1155C21.3038 12.1155 20.6361 11.839 20.1438 11.3467C19.6516 10.8544 19.375 10.1867 19.375 9.49053C19.375 8.79433 19.6516 8.12665 20.1438 7.63437C20.6361 7.14209 21.3038 6.86553 22 6.86553C22.6962 6.86553 23.3639 7.14209 23.8561 7.63437C24.3484 8.12665 24.625 8.79433 24.625 9.49053ZM34 31.3874C34 32.0836 33.7234 32.7513 33.2311 33.2436C32.7389 33.7358 32.0712 34.0124 31.375 34.0124C30.6788 34.0124 30.0111 33.7358 29.5188 33.2436C29.0266 32.7513 28.75 32.0836 28.75 31.3874C28.75 30.6912 29.0266 30.0235 29.5188 29.5312C30.0111 29.039 30.6788 28.7624 31.375 28.7624C32.0712 28.7624 32.7389 29.039 33.2311 29.5312C33.7234 30.0235 34 30.6912 34 31.3874ZM14.4812 14.4936C13.9889 14.9858 13.3212 15.2624 12.625 15.2624C11.9288 15.2624 11.2611 14.9858 10.7688 14.4936C10.2766 14.0013 10 13.3336 10 12.6374C10 11.9412 10.2766 11.2735 10.7688 10.7812C11.2611 10.289 11.9288 10.0124 12.625 10.0124C13.3212 10.0124 13.9889 10.289 14.4812 10.7812C14.9734 11.2735 15.25 11.9412 15.25 12.6374C15.25 13.3336 14.9734 14.0013 14.4812 14.4936ZM34 12.6374C34 13.3336 33.7234 14.0013 33.2311 14.4936C32.7389 14.9858 32.0712 15.2624 31.375 15.2624C30.6788 15.2624 30.0111 14.9858 29.5188 14.4936C29.0266 14.0013 28.75 13.3336 28.75 12.6374C28.75 11.9412 29.0266 11.2735 29.5188 10.7812C30.0111 10.289 30.6788 10.0124 31.375 10.0124C32.0712 10.0124 32.7389 10.289 33.2311 10.7812C33.7234 11.2735 34 11.9412 34 12.6374ZM37.125 21.9999C37.125 22.6961 36.8484 23.3638 36.3561 23.8561C35.8639 24.3483 35.1962 24.6249 34.5 24.6249C33.8038 24.6249 33.1361 24.3483 32.6438 23.8561C32.1516 23.3638 31.875 22.6961 31.875 21.9999C31.875 21.3037 32.1516 20.636 32.6438 20.1437C33.1361 19.6515 33.8038 19.3749 34.5 19.3749C35.1962 19.3749 35.8639 19.6515 36.3561 20.1437C36.8484 20.636 37.125 21.3037 37.125 21.9999Z" fill="#FCD800" stroke="#FCD800"/>
</svg>
