<svg width="44" height="32" viewBox="0 0 44 32" fill="none" xmlns="http://www.w3.org/2000/svg">
<path d="M9.74891 19.7918C9.46351 20.0615 9.16982 20.3391 8.86833 20.6254C8.36291 21.0375 7.6371 21.0375 7.13168 20.6254C6.83018 20.3391 6.53649 20.0615 6.25109 19.7918C4.63342 18.2629 3.28209 16.9858 2.2852 15.7812C1.11617 14.3686 0.5 13.1302 0.5 11.8C0.5 9.67614 2.27614 7.9 4.4 7.9C4.87182 7.9 5.34508 7.97589 5.78993 8.11845C7.10969 8.5414 8.89031 8.5414 10.2101 8.11845C10.6549 7.97589 11.1282 7.9 11.6 7.9C13.7389 7.9 15.5 9.49099 15.5 11.8C15.5 13.1302 14.8838 14.3686 13.7148 15.7812C12.7179 16.9858 11.3666 18.2629 9.74891 19.7918ZM22.6967 2.6967C24.1032 1.29018 26.0109 0.5 28 0.5C29.9891 0.5 31.8968 1.29018 33.3033 2.6967C34.7098 4.10322 35.5 6.01088 35.5 8C35.5 9.98912 34.7098 11.8968 33.3033 13.3033C31.8968 14.7098 29.9891 15.5 28 15.5C26.0109 15.5 24.1032 14.7098 22.6967 13.3033C21.2902 11.8968 20.5 9.98912 20.5 8C20.5 6.01088 21.2902 4.10322 22.6967 2.6967ZM24.6766 11.3234C25.558 12.2048 26.7535 12.7 28 12.7C28.6172 12.7 29.2284 12.5784 29.7986 12.3422C30.3688 12.106 30.887 11.7598 31.3234 11.3234C31.7598 10.887 32.106 10.3688 32.3422 9.79861C32.5784 9.22838 32.7 8.61721 32.7 8C32.7 7.38279 32.5784 6.77162 32.3422 6.20139C32.106 5.63116 31.7598 5.11303 31.3234 4.6766C30.887 4.24016 30.3688 3.89396 29.7986 3.65777C29.2284 3.42157 28.6172 3.3 28 3.3C26.7535 3.3 25.558 3.79518 24.6766 4.6766C23.7952 5.55802 23.3 6.75348 23.3 8C23.3 9.24652 23.7952 10.442 24.6766 11.3234ZM12.5 26C12.5 24.8481 13.0708 23.8045 14.0883 22.8645C15.1095 21.9211 16.5475 21.1158 18.1831 20.4618C21.4552 19.1534 25.392 18.5 28 18.5C30.608 18.5 34.5448 19.1534 37.8169 20.4618C39.4525 21.1158 40.8905 21.9211 41.9117 22.8645C42.9292 23.8045 43.5 24.8481 43.5 26V30C43.5 30.8284 42.8284 31.5 42 31.5H14C13.1716 31.5 12.5 30.8284 12.5 30V26ZM38.2 28.7C39.5807 28.7 40.7 27.5807 40.7 26.2V26C40.7 25.6495 40.4968 25.3453 40.2905 25.1169C40.0696 24.8724 39.765 24.6271 39.4067 24.3879C38.6871 23.9075 37.6832 23.407 36.5074 22.9535C34.1556 22.0464 31.0441 21.3 28 21.3C24.9263 21.3 21.8147 22.0462 19.4696 22.9537C18.2972 23.4073 17.2987 23.9081 16.5836 24.3888C16.2274 24.6282 15.9249 24.8737 15.7057 25.1184C15.5005 25.3475 15.3 25.6512 15.3 26V26.2C15.3 27.5807 16.4193 28.7 17.8 28.7H38.2Z" fill="#FCD800" stroke="#FCD800"/>
</svg>
