<svg width="42" height="42" viewBox="0 0 42 42" fill="none" xmlns="http://www.w3.org/2000/svg">
<path d="M27.25 39.7499H14.75M27.25 39.7499V22.25C27.25 21.9184 27.1183 21.6005 26.8839 21.3661C26.6495 21.1316 26.3315 21 26 21H16C15.6685 21 15.3505 21.1316 15.1161 21.3661C14.8817 21.6005 14.75 21.9184 14.75 22.25V39.7499M27.25 39.7499H38.5C38.8315 39.7499 39.1495 39.6183 39.3839 39.3838C39.6183 39.1494 39.75 38.8315 39.75 38.5V33.7083C39.75 33.3768 39.6183 33.0588 39.3839 32.8244C39.1495 32.59 38.8315 32.4583 38.5 32.4583H28.5C28.1685 32.4583 27.8505 32.59 27.6161 32.8244C27.3817 33.0588 27.25 33.3768 27.25 33.7083V39.7499ZM14.75 39.7499V29.5416C14.75 29.2101 14.6183 28.8922 14.3839 28.6577C14.1495 28.4233 13.8315 28.2916 13.5 28.2916H3.5C3.16848 28.2916 2.85054 28.4233 2.61612 28.6577C2.3817 28.8922 2.25 29.2101 2.25 29.5416V38.5C2.25 38.8315 2.3817 39.1494 2.61612 39.3838C2.85054 39.6183 3.16848 39.7499 3.5 39.7499H14.75ZM18.5125 6.65203L20.4062 2.63745C20.4574 2.52269 20.5407 2.4252 20.646 2.35678C20.7514 2.28836 20.8744 2.25195 21 2.25195C21.1256 2.25195 21.2486 2.28836 21.354 2.35678C21.4593 2.4252 21.5426 2.52269 21.5937 2.63745L23.4896 6.65203L27.7229 7.29995C28.2667 7.38328 28.4833 8.08329 28.0896 8.48329L25.0271 11.6083L25.75 16.0208C25.8417 16.5875 25.275 17.0208 24.7875 16.752L21 14.6687L17.2125 16.752C16.7271 17.0187 16.1583 16.5875 16.25 16.0208L16.9729 11.6083L13.9104 8.48329C13.5146 8.08329 13.7333 7.38328 14.275 7.29995L18.5125 6.65203Z" stroke="#FCD800" stroke-width="3" stroke-linecap="round" stroke-linejoin="round"/>
</svg>
