<svg width="46" height="46" viewBox="0 0 46 46" fill="none" xmlns="http://www.w3.org/2000/svg">
<path d="M16.1559 44.3465C16.4392 45.2705 17.418 45.7899 18.342 45.5065C19.2661 45.2232 19.7855 44.2444 19.5021 43.3204L16.1559 44.3465ZM13.2092 36.3886L14.2971 35.0179L14.2971 35.0178L13.2092 36.3886ZM5.75192 23.0095L4.124 22.3673L4.12379 22.3678L5.75192 23.0095ZM2.21651 18.5167L3.5941 19.596L3.59534 19.5944L2.21651 18.5167ZM10.1425 14.0209L10.9353 15.5811C11.4263 15.3316 11.7712 14.8655 11.8663 14.3231L10.1425 14.0209ZM28.9832 37.1188L28.6554 35.3998C28.2025 35.4862 27.802 35.7477 27.5409 36.1277L28.9832 37.1188ZM31.062 45.0102C31.7113 45.7261 32.8181 45.78 33.5339 45.1307C34.2498 44.4813 34.3037 43.3746 33.6544 42.6587L31.062 45.0102ZM18.3123 13.1042L16.6358 12.6027C16.6294 12.624 16.6234 12.6454 16.6179 12.6669L18.3123 13.1042ZM18.9196 18.6647L20.1469 17.4171L20.1456 17.4159L18.9196 18.6647ZM24.4696 20.7584L26.1936 21.0589C26.2758 20.5874 26.1613 20.1028 25.8768 19.718C25.5922 19.3331 25.1624 19.0816 24.6875 19.022L24.4696 20.7584ZM30.3165 23.0095L30.79 21.3247C30.3421 21.1989 29.8626 21.2565 29.4573 21.4849C29.052 21.7133 28.7544 22.0937 28.6301 22.542L30.3165 23.0095ZM35.4998 20.7595L37.239 20.9538L37.239 20.9535L35.4998 20.7595ZM21.8988 10.5001L22.2321 12.218L22.2322 12.218L21.8988 10.5001ZM30.6933 26.0496C31.5146 25.5401 31.7673 24.4612 31.2577 23.64C30.7481 22.8187 29.6693 22.566 28.848 23.0756L30.6933 26.0496ZM26.6457 27.1667L25.2235 26.147L25.2232 26.1474L26.6457 27.1667ZM21.8874 31.6263C21.6994 32.5744 22.3155 33.4953 23.2636 33.6833C24.2116 33.8713 25.1326 33.2552 25.3206 32.3072L21.8874 31.6263ZM19.5021 43.3204C18.4107 39.761 16.711 36.9336 14.2971 35.0179L12.1213 37.7594C13.8262 39.1124 15.2056 41.2475 16.1559 44.3465L19.5021 43.3204ZM14.2971 35.0178C12.3024 33.4349 9.7708 33.1801 8.05437 32.9547C7.10828 32.8305 6.39215 32.7237 5.81066 32.5324C5.26335 32.3523 4.98919 32.1444 4.82333 31.913L1.97843 33.9518C2.71883 34.9849 3.73776 35.535 4.71685 35.8571C5.66176 36.1679 6.70534 36.3076 7.5987 36.4249C9.56117 36.6826 11.0275 36.8914 12.1214 37.7594L14.2971 35.0178ZM4.82333 31.913C4.67398 31.7046 4.5634 31.3783 4.59828 30.8075C4.63414 30.2204 4.81839 29.5012 5.13099 28.6627C5.44025 27.8333 5.83922 26.9789 6.25172 26.118C6.64736 25.2923 7.08041 24.4115 7.38006 23.6511L4.12379 22.3678C3.88282 22.9793 3.52511 23.7087 3.09535 24.6056C2.68246 25.4673 2.22141 26.4479 1.85151 27.44C1.48494 28.4232 1.17088 29.5122 1.10479 30.5941C1.03771 31.6922 1.22153 32.8956 1.97843 33.9518L4.82333 31.913ZM7.37985 23.6516C7.88312 22.3757 7.63806 21.1995 7.02299 20.2838C6.4805 19.4761 5.68395 18.9134 5.08687 18.5413C4.7716 18.3448 4.45918 18.1703 4.20231 18.0276C3.926 17.874 3.73861 17.7703 3.59451 17.6797C3.40721 17.5621 3.49673 17.5888 3.62123 17.7495C3.69794 17.8486 3.87498 18.1095 3.91063 18.5105C3.95111 18.9657 3.78856 19.3478 3.5941 19.596L0.838917 17.4375C0.568149 17.7831 0.374916 18.2641 0.424384 18.8204C0.469027 19.3226 0.694741 19.6869 0.853879 19.8924C1.14322 20.2661 1.53259 20.5178 1.73268 20.6435C1.97596 20.7963 2.2635 20.9543 2.5022 21.0869C2.76034 21.2304 3.00301 21.3666 3.23546 21.5115C3.73383 21.8221 4.00322 22.0651 4.11754 22.2353C4.15928 22.2974 4.16187 22.2713 4.124 22.3673L7.37985 23.6516ZM3.59534 19.5944C3.49577 19.7218 3.49706 19.6737 3.90641 19.4028C4.23941 19.1823 4.72105 18.8914 5.36626 18.5254C6.65268 17.7959 8.50487 16.816 10.9353 15.5811L9.34981 12.4608C6.90314 13.704 4.99544 14.7121 3.63967 15.481C2.96379 15.8643 2.40376 16.2001 1.97458 16.4842C1.62177 16.7177 1.14037 17.0518 0.837674 17.4391L3.59534 19.5944ZM11.8663 14.3231C12.5026 10.6933 13.9541 8.16398 16.0896 6.51539C18.2469 4.84995 21.3177 3.91675 25.4978 3.91675V0.416748C20.8257 0.416748 16.9117 1.45907 13.9507 3.74493C10.968 6.04764 9.16795 9.4454 8.41883 13.7187L11.8663 14.3231ZM25.4978 3.91675C31.5725 3.91675 35.6601 6.46281 38.2701 9.77338C40.9291 13.1461 42.0832 17.3596 42.0832 20.5834H45.5832C45.5832 16.6468 44.208 11.6519 41.0186 7.60647C37.7802 3.49881 32.7001 0.416748 25.4978 0.416748V3.91675ZM42.0832 20.5834C42.0832 26.8371 36.6213 33.881 28.6554 35.3998L29.3109 38.8379C38.795 37.0296 45.5832 28.6485 45.5832 20.5834H42.0832ZM27.5409 36.1277C26.5671 37.5448 27.0647 39.2148 27.6781 40.4354C28.347 41.7665 29.5108 43.3001 31.062 45.0102L33.6544 42.6587C32.1753 41.0282 31.2616 39.7717 30.8054 38.8639C30.2938 37.8458 30.619 37.8283 30.4255 38.1099L27.5409 36.1277ZM16.6179 12.6669C15.9045 15.431 15.8942 18.1468 17.6936 19.9134L20.1456 17.4159C19.7722 17.0492 19.3577 16.0567 20.0068 13.5416L16.6179 12.6669ZM17.6924 19.9122C19.1887 21.3841 21.5059 22.1502 24.2517 22.4948L24.6875 19.022C22.2042 18.7104 20.8214 18.0806 20.1469 17.4171L17.6924 19.9122ZM22.7456 20.4579C22.4373 22.2269 22.3817 23.9277 22.9729 25.233C23.2957 25.9457 23.8202 26.5571 24.5715 26.9341C25.2977 27.2986 26.0833 27.3678 26.819 27.2919L26.4598 23.8104C26.1758 23.8397 26.106 23.7882 26.1414 23.8059C26.2018 23.8363 26.2001 23.8751 26.1612 23.7891C26.0289 23.497 25.9082 22.6962 26.1936 21.0589L22.7456 20.4579ZM26.819 27.2919C28.0266 27.1673 29.1544 26.8398 30.0835 26.1977C31.0457 25.5327 31.6917 24.5998 32.0029 23.4769L28.6301 22.542C28.5299 22.9035 28.3572 23.1362 28.0936 23.3184C27.7969 23.5234 27.2918 23.7245 26.4598 23.8104L26.819 27.2919ZM29.843 24.6942C31.5607 25.1769 33.2759 25.3422 34.6999 24.7241C36.3036 24.028 37.0581 22.5732 37.239 20.9538L33.7607 20.5651C33.6739 21.3416 33.4305 21.4596 33.3063 21.5135C33.0024 21.6454 32.2598 21.7378 30.79 21.3247L29.843 24.6942ZM37.239 20.9535C37.4791 18.8019 37.0219 16.8693 36.3739 15.4537C36.0512 14.749 35.6596 14.1244 35.2357 13.6449C35.0253 13.407 34.7738 13.167 34.4831 12.9735C34.2217 12.7995 33.7606 12.5501 33.1686 12.5501V16.0501C32.7753 16.0501 32.5486 15.8903 32.5437 15.887C32.5095 15.8642 32.5366 15.8762 32.6134 15.9631C32.7638 16.1332 32.9805 16.4497 33.1915 16.9105C33.6106 17.8262 33.9216 19.1232 33.7606 20.5654L37.239 20.9535ZM33.1686 12.5501C32.805 12.5501 32.2777 12.5239 31.8904 12.4219C31.6904 12.3693 31.6744 12.333 31.741 12.386C31.7861 12.422 31.8734 12.5036 31.9487 12.644C32.0286 12.793 32.0665 12.9558 32.0665 13.1042H28.5665C28.5665 14.0189 29.0295 14.7008 29.56 15.1234C30.0374 15.5037 30.5856 15.6977 30.9994 15.8066C31.8397 16.0278 32.7384 16.0501 33.1686 16.0501V12.5501ZM32.0665 13.1042C32.0665 12.12 31.512 11.4252 31.0167 11.0189C30.5285 10.6186 29.939 10.3543 29.3993 10.1735C28.3043 9.8065 26.9644 9.6355 25.7425 9.6355V13.1355C26.6905 13.1355 27.6376 13.2744 28.2871 13.4921C28.6197 13.6035 28.7668 13.7003 28.7972 13.7252C28.8204 13.7443 28.5665 13.5391 28.5665 13.1042H32.0665ZM25.7425 9.6355C25.3966 9.6355 25.3909 9.57768 25.4994 9.63828C25.5125 9.64561 25.6722 9.77417 25.3127 9.44152C24.972 9.1262 24.4894 8.79531 23.743 8.66905C23.1076 8.56155 22.3893 8.62225 21.5654 8.78213L22.2322 12.218C22.8979 12.0889 23.1337 12.1157 23.1592 12.12C23.1592 12.12 23.1582 12.1198 23.1562 12.1194C23.1542 12.119 23.1513 12.1184 23.1476 12.1175C23.14 12.1156 23.1295 12.1126 23.1164 12.1083C23.089 12.0991 23.0573 12.0858 23.0242 12.068C22.9548 12.0307 22.9188 11.9949 22.9356 12.0105C22.9489 12.0228 22.9651 12.0385 23.0076 12.0808C23.0433 12.1162 23.1035 12.1761 23.171 12.2384C23.3155 12.3719 23.5182 12.5405 23.7917 12.6934C24.3587 13.0104 25.0036 13.1355 25.7425 13.1355V9.6355ZM21.5655 8.78212C19.254 9.2306 17.3032 10.3715 16.6358 12.6027L19.9889 13.6058C20.1298 13.1349 20.5707 12.5404 22.2321 12.218L21.5655 8.78212ZM28.848 23.0756C28.2616 23.4394 27.5739 23.9184 26.9412 24.4293C26.3341 24.9195 25.6697 25.5247 25.2235 26.147L28.0678 28.1865C28.2341 27.9546 28.6026 27.5864 29.14 27.1524C29.6519 26.7391 30.2204 26.343 30.6933 26.0496L28.848 23.0756ZM25.2232 26.1474C24.8558 26.6601 24.5044 27.1246 24.1677 27.5692C23.8371 28.0059 23.5096 28.4378 23.2204 28.8498C22.6576 29.6513 22.0975 30.5672 21.8874 31.6263L25.3206 32.3072C25.3814 32.0007 25.577 31.5843 26.0848 30.861C26.3308 30.5107 26.6173 30.1321 26.9581 29.682C27.2929 29.2398 27.6705 28.7411 28.0682 28.1861L25.2232 26.1474Z" fill="#FCD800"/>
</svg>
