<svg width="42" height="38" viewBox="0 0 42 38" fill="none" xmlns="http://www.w3.org/2000/svg">
<path d="M20.6616 3.94104L21 4.25219L21.3384 3.94108C23.5163 1.93901 26.3666 0.827688 29.3249 0.827148C30.8892 0.828379 32.4378 1.13878 33.8818 1.74052C35.3258 2.34228 36.6367 3.22354 37.739 4.33362L37.7394 4.33404C42.4541 9.07079 42.4527 16.4528 37.7444 21.1611L22.2964 36.609L22.2684 36.637L22.2451 36.6692C22.1018 36.867 21.914 37.0284 21.6969 37.1406C21.4805 37.2523 21.241 37.3119 20.9975 37.3146C20.3858 37.3138 19.8732 37.0023 19.6117 36.5425L19.5784 36.4838L19.5306 36.4361L4.25564 21.1611L4.25556 21.161C-0.452953 16.4545 -0.45589 9.07057 4.25222 4.34245L4.25295 4.34172C5.35583 3.22956 6.66777 2.34648 8.11325 1.74331C9.55866 1.14017 11.1091 0.828814 12.6753 0.827148C15.6336 0.827309 18.4839 1.93866 20.6616 3.94104ZM35.5024 6.57449L35.5007 6.57277C32.1602 3.24778 26.507 3.23844 23.1614 6.57741L23.161 6.57776L22.1194 7.61943L22.1191 7.61973C21.9722 7.76685 21.7978 7.88356 21.6057 7.96319C21.4137 8.04283 21.2079 8.08382 21 8.08382C20.7921 8.08382 20.5863 8.04283 20.3943 7.96319C20.2022 7.88356 20.0278 7.76685 19.8809 7.61973L19.8806 7.61943L18.839 6.57776C17.1768 4.91555 14.988 3.99382 12.675 3.99382C10.3621 3.99382 8.16552 4.91542 6.49113 6.581L6.48929 6.58283C3.04767 10.0421 3.04462 15.4704 6.49425 18.9223L6.49436 18.9224L20.6464 33.0745L21 33.428L21.3536 33.0745L35.5056 18.9224L35.5058 18.9223C38.9557 15.4701 38.952 10.0418 35.5024 6.57449Z" fill="#FCD800" stroke="#FCD800"/>
</svg>
