<svg width="42" height="34" viewBox="0 0 42 34" fill="none" xmlns="http://www.w3.org/2000/svg">
<mask id="path-1-inside-1" fill="white">
<path d="M35.0626 33.6666H6.93758C5.20813 33.6667 3.54419 33.005 2.2871 31.8173C1.03001 30.6295 0.275079 29.0058 0.177165 27.2791L0.166748 26.8957V5.02075C0.166602 3.83299 0.617364 2.68946 1.42793 1.82127C2.2385 0.953074 3.34844 0.424965 4.53342 0.343669L4.85425 0.333252H30.8959C32.0837 0.333106 33.2272 0.783867 34.0954 1.59444C34.9636 2.40501 35.4917 3.51494 35.573 4.69992L35.5834 5.02075V6.58325H37.1459C38.3337 6.58311 39.4772 7.03387 40.3454 7.84444C41.2136 8.65501 41.7417 9.76494 41.823 10.9499L41.8334 11.2708V26.8957C41.8335 28.6252 41.1718 30.2891 39.9841 31.5462C38.7964 32.8033 37.1726 33.5583 35.4459 33.6562L35.0626 33.6666H6.93758H35.0626ZM6.93758 30.5416H35.0626C35.9779 30.5415 36.8597 30.1971 37.5328 29.5769C38.2059 28.9567 38.6211 28.1059 38.6959 27.1937L38.7084 26.8957V11.2708C38.7084 10.8932 38.5717 10.5284 38.3235 10.2438C38.0753 9.95925 37.7325 9.77418 37.3584 9.72283L37.1459 9.70825H35.5834V25.8541C35.5834 26.2317 35.4467 26.5965 35.1985 26.881C34.9503 27.1656 34.6075 27.3506 34.2334 27.402L34.0209 27.4166C33.6433 27.4166 33.2785 27.2798 32.994 27.0317C32.7094 26.7835 32.5243 26.4406 32.473 26.0666L32.4584 25.8541V5.02075C32.4584 4.64317 32.3217 4.27837 32.0735 3.99381C31.8253 3.70925 31.4825 3.52419 31.1084 3.47283L30.8959 3.45825H4.85425C4.47667 3.45827 4.11187 3.59501 3.82731 3.84318C3.54275 4.09136 3.35768 4.43418 3.30633 4.80825L3.29175 5.02075V26.8957C3.29178 27.8107 3.63585 28.6922 4.25566 29.3653C4.87547 30.0384 5.72571 30.4538 6.63758 30.5291L6.93758 30.5416H35.0626H6.93758ZM21.5126 22.2082H27.7751C28.171 22.2084 28.552 22.3588 28.8413 22.629C29.1306 22.8993 29.3065 23.2693 29.3335 23.6642C29.3605 24.0592 29.2365 24.4497 28.9867 24.7568C28.7369 25.0639 28.3798 25.2647 27.9876 25.3187L27.7751 25.3332H21.5126C21.1167 25.3331 20.7356 25.1827 20.4464 24.9125C20.1571 24.6422 19.9812 24.2722 19.9542 23.8772C19.9272 23.4823 20.0512 23.0918 20.301 22.7847C20.5508 22.4776 20.9079 22.2768 21.3001 22.2228L21.5126 22.2082H27.7751H21.5126ZM15.2563 14.927C15.6707 14.927 16.0682 15.0916 16.3612 15.3846C16.6542 15.6777 16.8188 16.0751 16.8188 16.4895V23.7707C16.8188 24.1851 16.6542 24.5826 16.3612 24.8756C16.0682 25.1686 15.6707 25.3332 15.2563 25.3332H7.97508C7.56068 25.3332 7.16325 25.1686 6.87023 24.8756C6.5772 24.5826 6.41258 24.1851 6.41258 23.7707V16.4895C6.41258 16.0751 6.5772 15.6777 6.87023 15.3846C7.16325 15.0916 7.56068 14.927 7.97508 14.927H15.2563ZM13.6938 18.052H9.53758V22.2082H13.6938V18.052ZM21.5126 14.927H27.7751C28.171 14.9271 28.552 15.0775 28.8413 15.3478C29.1306 15.618 29.3065 15.988 29.3335 16.383C29.3605 16.778 29.2365 17.1684 28.9867 17.4755C28.7369 17.7826 28.3798 17.9835 27.9876 18.0374L27.7751 18.052H21.5126C21.1139 18.0561 20.7287 17.9075 20.436 17.6369C20.1432 17.3662 19.965 16.9938 19.9378 16.596C19.9107 16.1982 20.0366 15.8051 20.2899 15.4971C20.5431 15.1892 20.9045 14.9897 21.3001 14.9395L21.5126 14.927H27.7751H21.5126ZM7.97508 7.62908H27.7751C28.1738 7.62503 28.559 7.77355 28.8517 8.04423C29.1445 8.31491 29.3227 8.68728 29.3498 9.08507C29.377 9.48287 29.2511 9.876 28.9978 10.184C28.7445 10.4919 28.3831 10.6914 27.9876 10.7416L27.7751 10.7541H7.97508C7.5792 10.754 7.19812 10.6036 6.90885 10.3333C6.61958 10.063 6.44368 9.69304 6.41669 9.29808C6.38971 8.90312 6.51366 8.51264 6.76348 8.20554C7.01331 7.89845 7.37039 7.69763 7.76258 7.64367L7.97508 7.62908H27.7751H7.97508Z"/>
</mask>
<path d="M35.0626 33.6666H6.93758C5.20813 33.6667 3.54419 33.005 2.2871 31.8173C1.03001 30.6295 0.275079 29.0058 0.177165 27.2791L0.166748 26.8957V5.02075C0.166602 3.83299 0.617364 2.68946 1.42793 1.82127C2.2385 0.953074 3.34844 0.424965 4.53342 0.343669L4.85425 0.333252H30.8959C32.0837 0.333106 33.2272 0.783867 34.0954 1.59444C34.9636 2.40501 35.4917 3.51494 35.573 4.69992L35.5834 5.02075V6.58325H37.1459C38.3337 6.58311 39.4772 7.03387 40.3454 7.84444C41.2136 8.65501 41.7417 9.76494 41.823 10.9499L41.8334 11.2708V26.8957C41.8335 28.6252 41.1718 30.2891 39.9841 31.5462C38.7964 32.8033 37.1726 33.5583 35.4459 33.6562L35.0626 33.6666H6.93758H35.0626ZM6.93758 30.5416H35.0626C35.9779 30.5415 36.8597 30.1971 37.5328 29.5769C38.2059 28.9567 38.6211 28.1059 38.6959 27.1937L38.7084 26.8957V11.2708C38.7084 10.8932 38.5717 10.5284 38.3235 10.2438C38.0753 9.95925 37.7325 9.77418 37.3584 9.72283L37.1459 9.70825H35.5834V25.8541C35.5834 26.2317 35.4467 26.5965 35.1985 26.881C34.9503 27.1656 34.6075 27.3506 34.2334 27.402L34.0209 27.4166C33.6433 27.4166 33.2785 27.2798 32.994 27.0317C32.7094 26.7835 32.5243 26.4406 32.473 26.0666L32.4584 25.8541V5.02075C32.4584 4.64317 32.3217 4.27837 32.0735 3.99381C31.8253 3.70925 31.4825 3.52419 31.1084 3.47283L30.8959 3.45825H4.85425C4.47667 3.45827 4.11187 3.59501 3.82731 3.84318C3.54275 4.09136 3.35768 4.43418 3.30633 4.80825L3.29175 5.02075V26.8957C3.29178 27.8107 3.63585 28.6922 4.25566 29.3653C4.87547 30.0384 5.72571 30.4538 6.63758 30.5291L6.93758 30.5416H35.0626H6.93758ZM21.5126 22.2082H27.7751C28.171 22.2084 28.552 22.3588 28.8413 22.629C29.1306 22.8993 29.3065 23.2693 29.3335 23.6642C29.3605 24.0592 29.2365 24.4497 28.9867 24.7568C28.7369 25.0639 28.3798 25.2647 27.9876 25.3187L27.7751 25.3332H21.5126C21.1167 25.3331 20.7356 25.1827 20.4464 24.9125C20.1571 24.6422 19.9812 24.2722 19.9542 23.8772C19.9272 23.4823 20.0512 23.0918 20.301 22.7847C20.5508 22.4776 20.9079 22.2768 21.3001 22.2228L21.5126 22.2082H27.7751H21.5126ZM15.2563 14.927C15.6707 14.927 16.0682 15.0916 16.3612 15.3846C16.6542 15.6777 16.8188 16.0751 16.8188 16.4895V23.7707C16.8188 24.1851 16.6542 24.5826 16.3612 24.8756C16.0682 25.1686 15.6707 25.3332 15.2563 25.3332H7.97508C7.56068 25.3332 7.16325 25.1686 6.87023 24.8756C6.5772 24.5826 6.41258 24.1851 6.41258 23.7707V16.4895C6.41258 16.0751 6.5772 15.6777 6.87023 15.3846C7.16325 15.0916 7.56068 14.927 7.97508 14.927H15.2563ZM13.6938 18.052H9.53758V22.2082H13.6938V18.052ZM21.5126 14.927H27.7751C28.171 14.9271 28.552 15.0775 28.8413 15.3478C29.1306 15.618 29.3065 15.988 29.3335 16.383C29.3605 16.778 29.2365 17.1684 28.9867 17.4755C28.7369 17.7826 28.3798 17.9835 27.9876 18.0374L27.7751 18.052H21.5126C21.1139 18.0561 20.7287 17.9075 20.436 17.6369C20.1432 17.3662 19.965 16.9938 19.9378 16.596C19.9107 16.1982 20.0366 15.8051 20.2899 15.4971C20.5431 15.1892 20.9045 14.9897 21.3001 14.9395L21.5126 14.927H27.7751H21.5126ZM7.97508 7.62908H27.7751C28.1738 7.62503 28.559 7.77355 28.8517 8.04423C29.1445 8.31491 29.3227 8.68728 29.3498 9.08507C29.377 9.48287 29.2511 9.876 28.9978 10.184C28.7445 10.4919 28.3831 10.6914 27.9876 10.7416L27.7751 10.7541H7.97508C7.5792 10.754 7.19812 10.6036 6.90885 10.3333C6.61958 10.063 6.44368 9.69304 6.41669 9.29808C6.38971 8.90312 6.51366 8.51264 6.76348 8.20554C7.01331 7.89845 7.37039 7.69763 7.76258 7.64367L7.97508 7.62908H27.7751H7.97508Z" fill="#FCD800"/>
<path d="M35.0626 33.6666V34.6666H35.0762L35.0897 34.6662L35.0626 33.6666ZM6.93758 33.6666V32.6666H6.93752L6.93758 33.6666ZM0.177165 27.2791L-0.822466 27.3062L-0.822066 27.321L-0.821231 27.3357L0.177165 27.2791ZM0.166748 26.8957H-0.833252V26.9093L-0.832883 26.9229L0.166748 26.8957ZM0.166748 5.02075H1.16675V5.02063L0.166748 5.02075ZM4.53342 0.343669L4.50096 -0.655804L4.48295 -0.65522L4.46497 -0.653986L4.53342 0.343669ZM4.85425 0.333252V-0.666748H4.83802L4.8218 -0.666221L4.85425 0.333252ZM30.8959 0.333252V1.33325H30.896L30.8959 0.333252ZM35.573 4.69992L36.5725 4.66747L36.5719 4.64946L36.5707 4.63147L35.573 4.69992ZM35.5834 5.02075H36.5834V5.00452L36.5829 4.98831L35.5834 5.02075ZM35.5834 6.58325H34.5834V7.58325H35.5834V6.58325ZM37.1459 6.58325V7.58325H37.146L37.1459 6.58325ZM41.823 10.9499L42.8225 10.9175L42.8219 10.8995L42.8207 10.8815L41.823 10.9499ZM41.8334 11.2708H42.8334V11.2545L42.8329 11.2383L41.8334 11.2708ZM41.8334 26.8957H40.8334L40.8334 26.8958L41.8334 26.8957ZM35.4459 33.6562L35.4731 34.6558L35.4878 34.6554L35.5025 34.6546L35.4459 33.6562ZM6.93758 30.5416L6.89595 31.5407L6.91676 31.5416H6.93758V30.5416ZM35.0626 30.5416V31.5416H35.0627L35.0626 30.5416ZM38.6959 27.1937L39.6926 27.2754L39.6942 27.2555L39.695 27.2356L38.6959 27.1937ZM38.7084 26.8957L39.7075 26.9377L39.7084 26.9167V26.8957H38.7084ZM38.7084 11.2708H39.7084V11.2707L38.7084 11.2708ZM37.3584 9.72283L37.4944 8.73213L37.4608 8.72751L37.4269 8.72518L37.3584 9.72283ZM37.1459 9.70825L37.2144 8.7106L37.1802 8.70825H37.1459V9.70825ZM35.5834 9.70825V8.70825H34.5834V9.70825H35.5834ZM35.5834 25.8541L36.5834 25.8541V25.8541H35.5834ZM34.2334 27.402L34.3019 28.3997L34.3358 28.3973L34.3694 28.3927L34.2334 27.402ZM34.0209 27.4166L34.0209 28.4166L34.0552 28.4166L34.0894 28.4142L34.0209 27.4166ZM32.473 26.0666L31.4753 26.135L31.4777 26.1689L31.4823 26.2026L32.473 26.0666ZM32.4584 25.8541H31.4584V25.8884L31.4608 25.9225L32.4584 25.8541ZM32.4584 5.02075H33.4584V5.02071L32.4584 5.02075ZM32.0735 3.99381L32.8271 3.33653L32.0735 3.99381ZM31.1084 3.47283L31.2444 2.48213L31.2108 2.47751L31.1769 2.47518L31.1084 3.47283ZM30.8959 3.45825L30.9644 2.4606L30.9302 2.45825H30.8959V3.45825ZM4.85425 3.45825V2.45825H4.85421L4.85425 3.45825ZM3.30633 4.80825L2.31562 4.67225L2.311 4.7059L2.30868 4.73978L3.30633 4.80825ZM3.29175 5.02075L2.29409 4.95229L2.29175 4.98648V5.02075H3.29175ZM3.29175 26.8957H2.29175V26.8958L3.29175 26.8957ZM6.63758 30.5291L6.5553 31.5257L6.5756 31.5274L6.59595 31.5282L6.63758 30.5291ZM21.5126 22.2082V21.2082H21.4783L21.4441 21.2106L21.5126 22.2082ZM27.7751 22.2082L27.7754 21.2082H27.7751V22.2082ZM27.9876 25.3187L28.056 26.3163L28.0901 26.314L28.1239 26.3093L27.9876 25.3187ZM27.7751 25.3332V26.3332H27.8094L27.8435 26.3309L27.7751 25.3332ZM21.5126 25.3332L21.5123 26.3332H21.5126V25.3332ZM21.3001 22.2228L21.2316 21.2252L21.1976 21.2275L21.1638 21.2322L21.3001 22.2228ZM6.41258 23.7707H5.41258H6.41258ZM6.41258 16.4895H7.41258H6.41258ZM13.6938 18.052H14.6938V17.052H13.6938V18.052ZM9.53758 18.052V17.052H8.53758V18.052H9.53758ZM9.53758 22.2082H8.53758V23.2082H9.53758V22.2082ZM13.6938 22.2082V23.2082H14.6938V22.2082H13.6938ZM21.5126 14.927V13.927H21.4832L21.4539 13.9287L21.5126 14.927ZM27.7751 14.927L27.7754 13.927H27.7751V14.927ZM27.9876 18.0374L28.056 19.0351L28.0901 19.0327L28.1239 19.0281L27.9876 18.0374ZM27.7751 18.052V19.052H27.8094L27.8435 19.0497L27.7751 18.052ZM21.5126 18.052V17.0519L21.5024 17.0521L21.5126 18.052ZM21.3001 14.9395L21.2414 13.9412L21.2077 13.9432L21.1743 13.9474L21.3001 14.9395ZM27.7751 7.62908V8.62914L27.7853 8.62903L27.7751 7.62908ZM27.9876 10.7416L28.0463 11.7399L28.08 11.7379L28.1134 11.7336L27.9876 10.7416ZM27.7751 10.7541V11.7541H27.8045L27.8338 11.7524L27.7751 10.7541ZM7.97508 10.7541L7.97478 11.7541H7.97508V10.7541ZM7.76258 7.64367L7.69412 6.64601L7.66008 6.64835L7.62628 6.653L7.76258 7.64367ZM7.97508 7.62908V6.62908H7.94081L7.90662 6.63143L7.97508 7.62908ZM35.0626 32.6666H6.93758V34.6666H35.0626V32.6666ZM6.93752 32.6666C5.46349 32.6667 4.0453 32.1027 2.97388 31.0904L1.60033 32.5441C3.04308 33.9073 4.95277 34.6667 6.93765 34.6666L6.93752 32.6666ZM2.97388 31.0904C1.90245 30.0781 1.25901 28.6941 1.17556 27.2225L-0.821231 27.3357C-0.708856 29.3174 0.157575 31.181 1.60033 32.5441L2.97388 31.0904ZM1.1768 27.2519L1.16638 26.8686L-0.832883 26.9229L-0.822466 27.3062L1.1768 27.2519ZM1.16675 26.8957V5.02075H-0.833252V26.8957H1.16675ZM1.16675 5.02063C1.16663 4.08625 1.52123 3.18668 2.15888 2.5037L0.696987 1.13883C-0.286505 2.19224 -0.833429 3.57972 -0.833252 5.02087L1.16675 5.02063ZM2.15888 2.5037C2.79653 1.82072 3.66968 1.40528 4.60186 1.34132L4.46497 -0.653986C3.0272 -0.555347 1.68048 0.0854251 0.696987 1.13883L2.15888 2.5037ZM4.56587 1.34314L4.8867 1.33273L4.8218 -0.666221L4.50096 -0.655804L4.56587 1.34314ZM4.85425 1.33325H30.8959V-0.666748H4.85425V1.33325ZM30.896 1.33325C31.8304 1.33314 32.73 1.68774 33.413 2.32538L34.7778 0.86349C33.7244 -0.120002 32.3369 -0.666925 30.8958 -0.666748L30.896 1.33325ZM33.413 2.32538C34.0959 2.96303 34.5114 3.83618 34.5753 4.76836L36.5707 4.63147C36.472 3.1937 35.8312 1.84698 34.7778 0.86349L33.413 2.32538ZM34.5735 4.73236L34.5839 5.0532L36.5829 4.98831L36.5725 4.66747L34.5735 4.73236ZM34.5834 5.02075V6.58325H36.5834V5.02075H34.5834ZM35.5834 7.58325H37.1459V5.58325H35.5834V7.58325ZM37.146 7.58325C38.0804 7.58314 38.98 7.93773 39.663 8.57538L41.0278 7.11349C39.9744 6.13 38.5869 5.58307 37.1458 5.58325L37.146 7.58325ZM39.663 8.57538C40.3459 9.21303 40.7614 10.0862 40.8253 11.0184L42.8207 10.8815C42.722 9.4437 42.0812 8.09698 41.0278 7.11349L39.663 8.57538ZM40.8235 10.9824L40.8339 11.3032L42.8329 11.2383L42.8225 10.9175L40.8235 10.9824ZM40.8334 11.2708V26.8957H42.8334V11.2708H40.8334ZM40.8334 26.8958C40.8335 28.3698 40.2696 29.788 39.2572 30.8595L40.711 32.233C42.0741 30.7903 42.8335 28.8806 42.8334 26.8957L40.8334 26.8958ZM39.2572 30.8595C38.2449 31.9309 36.861 32.5743 35.3893 32.6578L35.5025 34.6546C37.4842 34.5422 39.3478 33.6758 40.711 32.233L39.2572 30.8595ZM35.4188 32.6565L35.0354 32.667L35.0897 34.6662L35.4731 34.6558L35.4188 32.6565ZM35.0626 32.6666H6.93758V34.6666H35.0626V32.6666ZM6.93758 34.6666H35.0626V32.6666H6.93758V34.6666ZM6.93758 31.5416H35.0626V29.5416H6.93758V31.5416ZM35.0627 31.5416C36.229 31.5415 37.3527 31.1027 38.2104 30.3123L36.8552 28.8415C36.3667 29.2916 35.7268 29.5415 35.0625 29.5416L35.0627 31.5416ZM38.2104 30.3123C39.0682 29.5219 39.5973 28.4378 39.6926 27.2754L37.6993 27.1119C37.645 27.774 37.3437 28.3914 36.8552 28.8415L38.2104 30.3123ZM39.695 27.2356L39.7075 26.9377L37.7093 26.8538L37.6968 27.1517L39.695 27.2356ZM39.7084 26.8957V11.2708H37.7084V26.8957H39.7084ZM39.7084 11.2707C39.7084 10.6515 39.4841 10.0532 39.0771 9.58653L37.5698 10.9011C37.6592 11.0035 37.7084 11.1349 37.7084 11.2708L39.7084 11.2707ZM39.0771 9.58653C38.6701 9.11985 38.1079 8.81634 37.4944 8.73213L37.2224 10.7135C37.3571 10.732 37.4805 10.7987 37.5698 10.9011L39.0771 9.58653ZM37.4269 8.72518L37.2144 8.7106L37.0774 10.7059L37.29 10.7205L37.4269 8.72518ZM37.1459 8.70825H35.5834V10.7083H37.1459V8.70825ZM34.5834 9.70825V25.8541H36.5834V9.70825H34.5834ZM34.5834 25.854C34.5834 25.99 34.5342 26.1213 34.4448 26.2237L35.9521 27.5383C36.3591 27.0716 36.5834 26.4734 36.5834 25.8541L34.5834 25.854ZM34.4448 26.2237C34.3555 26.3262 34.2321 26.3928 34.0974 26.4113L34.3694 28.3927C34.9829 28.3085 35.5451 28.005 35.9521 27.5383L34.4448 26.2237ZM34.1649 26.4043L33.9524 26.4189L34.0894 28.4142L34.3019 28.3997L34.1649 26.4043ZM34.021 26.4166C33.885 26.4166 33.7537 26.3673 33.6513 26.278L32.3367 27.7853C32.8034 28.1923 33.4016 28.4166 34.0209 28.4166L34.021 26.4166ZM33.6513 26.278C33.5488 26.1887 33.4822 26.0653 33.4637 25.9306L31.4823 26.2026C31.5665 26.816 31.87 27.3783 32.3367 27.7853L33.6513 26.278ZM33.4707 25.9981L33.4561 25.7856L31.4608 25.9225L31.4753 26.135L33.4707 25.9981ZM33.4584 25.8541V5.02075H31.4584V25.8541H33.4584ZM33.4584 5.02071C33.4584 4.40148 33.2341 3.80321 32.8271 3.33653L31.3198 4.6511C31.4092 4.75354 31.4584 4.88486 31.4584 5.02079L33.4584 5.02071ZM32.8271 3.33653C32.4201 2.86985 31.8579 2.56634 31.2444 2.48213L30.9724 4.46354C31.1071 4.48203 31.2305 4.54866 31.3198 4.6511L32.8271 3.33653ZM31.1769 2.47518L30.9644 2.4606L30.8274 4.4559L31.0399 4.47049L31.1769 2.47518ZM30.8959 2.45825H4.85425V4.45825H30.8959V2.45825ZM4.85421 2.45825C4.23498 2.45828 3.6367 2.68253 3.17003 3.08954L4.48459 4.59683C4.58703 4.50748 4.71836 4.45826 4.85429 4.45825L4.85421 2.45825ZM3.17003 3.08954C2.70335 3.49655 2.39984 4.05877 2.31562 4.67225L4.29704 4.94425C4.31553 4.80959 4.38215 4.68617 4.48459 4.59683L3.17003 3.08954ZM2.30868 4.73978L2.29409 4.95229L4.2894 5.08922L4.30399 4.87672L2.30868 4.73978ZM2.29175 5.02075V26.8957H4.29175V5.02075H2.29175ZM2.29175 26.8958C2.29179 28.0617 2.73024 29.185 3.52005 30.0427L4.99128 28.6879C4.54147 28.1995 4.29177 27.5597 4.29175 26.8957L2.29175 26.8958ZM3.52005 30.0427C4.30987 30.9004 5.39331 31.4297 6.5553 31.5257L6.71987 29.5325C6.05811 29.4778 5.44108 29.1764 4.99128 28.6879L3.52005 30.0427ZM6.59595 31.5282L6.89595 31.5407L6.97922 29.5424L6.67922 29.5299L6.59595 31.5282ZM6.93758 31.5416H35.0626V29.5416H6.93758V31.5416ZM35.0626 29.5416H6.93758V31.5416H35.0626V29.5416ZM21.5126 23.2082H27.7751V21.2082H21.5126V23.2082ZM27.7748 23.2082C27.9173 23.2083 28.0545 23.2624 28.1586 23.3597L29.524 21.8983C29.0496 21.4551 28.4246 21.2084 27.7754 21.2082L27.7748 23.2082ZM28.1586 23.3597C28.2628 23.457 28.3261 23.5902 28.3358 23.7324L30.3311 23.5961C30.2869 22.9484 29.9984 22.3416 29.524 21.8983L28.1586 23.3597ZM28.3358 23.7324C28.3455 23.8746 28.3009 24.0152 28.211 24.1257L29.7624 25.3879C30.1721 24.8842 30.3754 24.2438 30.3311 23.5961L28.3358 23.7324ZM28.211 24.1257C28.121 24.2363 27.9925 24.3086 27.8513 24.328L28.1239 26.3093C28.7671 26.2208 29.3527 25.8915 29.7624 25.3879L28.211 24.1257ZM27.9191 24.321L27.7066 24.3356L27.8435 26.3309L28.056 26.3163L27.9191 24.321ZM27.7751 24.3332H21.5126V26.3332H27.7751V24.3332ZM21.5129 24.3332C21.3704 24.3332 21.2332 24.2791 21.129 24.1818L19.7637 25.6432C20.2381 26.0864 20.863 26.333 21.5123 26.3332L21.5129 24.3332ZM21.129 24.1818C21.0249 24.0845 20.9616 23.9513 20.9519 23.8091L18.9565 23.9454C19.0008 24.5931 19.2892 25.1999 19.7637 25.6432L21.129 24.1818ZM20.9519 23.8091C20.9422 23.6669 20.9868 23.5263 21.0767 23.4158L19.5253 22.1536C19.1155 22.6573 18.9123 23.2977 18.9565 23.9454L20.9519 23.8091ZM21.0767 23.4158C21.1667 23.3052 21.2952 23.2329 21.4364 23.2135L21.1638 21.2322C20.5206 21.3207 19.935 21.65 19.5253 22.1536L21.0767 23.4158ZM21.3685 23.2205L21.581 23.2059L21.4441 21.2106L21.2316 21.2252L21.3685 23.2205ZM21.5126 23.2082H27.7751V21.2082H21.5126V23.2082ZM27.7751 21.2082H21.5126V23.2082H27.7751V21.2082ZM15.2563 15.927C15.4055 15.927 15.5486 15.9863 15.6541 16.0918L17.0683 14.6775C16.5877 14.197 15.9359 13.927 15.2563 13.927V15.927ZM15.6541 16.0918C15.7596 16.1972 15.8188 16.3403 15.8188 16.4895H17.8188C17.8188 15.8099 17.5489 15.1581 17.0683 14.6775L15.6541 16.0918ZM15.8188 16.4895V23.7707H17.8188V16.4895H15.8188ZM15.8188 23.7707C15.8188 23.9199 15.7596 24.063 15.6541 24.1685L17.0683 25.5827C17.5489 25.1021 17.8188 24.4504 17.8188 23.7707H15.8188ZM15.6541 24.1685C15.5486 24.274 15.4055 24.3332 15.2563 24.3332V26.3332C15.936 26.3332 16.5877 26.0633 17.0683 25.5827L15.6541 24.1685ZM15.2563 24.3332H7.97508V26.3332H15.2563V24.3332ZM7.97508 24.3332C7.8259 24.3332 7.68282 24.274 7.57733 24.1685L6.16312 25.5827C6.64368 26.0633 7.29546 26.3332 7.97508 26.3332V24.3332ZM7.57733 24.1685C7.47185 24.063 7.41258 23.9199 7.41258 23.7707H5.41258C5.41258 24.4504 5.68256 25.1021 6.16312 25.5827L7.57733 24.1685ZM7.41258 23.7707V16.4895H5.41258V23.7707H7.41258ZM7.41258 16.4895C7.41258 16.3403 7.47185 16.1972 7.57733 16.0918L6.16312 14.6775C5.68256 15.1581 5.41258 15.8099 5.41258 16.4895H7.41258ZM7.57733 16.0918C7.68282 15.9863 7.8259 15.927 7.97508 15.927V13.927C7.29547 13.927 6.64368 14.197 6.16312 14.6775L7.57733 16.0918ZM7.97508 15.927H15.2563V13.927H7.97508V15.927ZM13.6938 17.052H9.53758V19.052H13.6938V17.052ZM8.53758 18.052V22.2082H10.5376V18.052H8.53758ZM9.53758 23.2082H13.6938V21.2082H9.53758V23.2082ZM14.6938 22.2082V18.052H12.6938V22.2082H14.6938ZM21.5126 15.927H27.7751V13.927H21.5126V15.927ZM27.7748 15.927C27.9173 15.927 28.0545 15.9812 28.1586 16.0785L29.524 14.6171C29.0496 14.1738 28.4246 13.9272 27.7754 13.927L27.7748 15.927ZM28.1586 16.0785C28.2628 16.1758 28.3261 16.309 28.3358 16.4512L30.3311 16.3148C30.2869 15.6671 29.9984 15.0603 29.524 14.6171L28.1586 16.0785ZM28.3358 16.4512C28.3455 16.5933 28.3009 16.7339 28.211 16.8445L29.7624 18.1066C30.1721 17.603 30.3754 16.9626 30.3311 16.3148L28.3358 16.4512ZM28.211 16.8445C28.121 16.955 27.9925 17.0273 27.8513 17.0467L28.1239 19.0281C28.7671 18.9396 29.3527 18.6102 29.7624 18.1066L28.211 16.8445ZM27.9191 17.0398L27.7066 17.0543L27.8435 19.0497L28.056 19.0351L27.9191 17.0398ZM27.7751 17.052H21.5126V19.052H27.7751V17.052ZM21.5024 17.0521C21.3589 17.0535 21.2202 17 21.1148 16.9026L19.7571 18.3711C20.2372 18.815 20.8689 19.0586 21.5228 19.0519L21.5024 17.0521ZM21.1148 16.9026C21.0094 16.8052 20.9453 16.6711 20.9355 16.5279L18.9401 16.6641C18.9847 17.3165 19.2769 17.9272 19.7571 18.3711L21.1148 16.9026ZM20.9355 16.5279C20.9257 16.3847 20.9711 16.2432 21.0622 16.1323L19.5175 14.862C19.1022 15.367 18.8956 16.0117 18.9401 16.6641L20.9355 16.5279ZM21.0622 16.1323C21.1534 16.0214 21.2835 15.9496 21.4259 15.9316L21.1743 13.9474C20.5255 14.0297 19.9328 14.3569 19.5175 14.862L21.0622 16.1323ZM21.3588 15.9378L21.5713 15.9253L21.4539 13.9287L21.2414 13.9412L21.3588 15.9378ZM21.5126 15.927H27.7751V13.927H21.5126V15.927ZM27.7751 13.927H21.5126V15.927H27.7751V13.927ZM7.97508 8.62908H27.7751V6.62908H7.97508V8.62908ZM27.7853 8.62903C27.9288 8.62757 28.0674 8.68104 28.1728 8.77849L29.5306 7.30998C29.0505 6.86606 28.4188 6.62249 27.7649 6.62914L27.7853 8.62903ZM28.1728 8.77849C28.2782 8.87593 28.3424 9.00998 28.3522 9.15319L30.3475 9.01696C30.303 8.36458 30.0107 7.7539 29.5306 7.30998L28.1728 8.77849ZM28.3522 9.15319C28.3619 9.29639 28.3166 9.43792 28.2254 9.54879L29.7702 10.8191C30.1855 10.3141 30.3921 9.66935 30.3475 9.01696L28.3522 9.15319ZM28.2254 9.54879C28.1343 9.65965 28.0041 9.73147 27.8618 9.74953L28.1134 11.7336C28.7621 11.6514 29.3548 11.3242 29.7702 10.8191L28.2254 9.54879ZM27.9289 9.74331L27.7164 9.75581L27.8338 11.7524L28.0463 11.7399L27.9289 9.74331ZM27.7751 9.75408H7.97508V11.7541H27.7751V9.75408ZM7.97539 9.75408C7.83287 9.75404 7.69568 9.6999 7.59154 9.6026L6.22615 11.064C6.70056 11.5073 7.32553 11.7539 7.97478 11.7541L7.97539 9.75408ZM7.59154 9.6026C7.48741 9.50531 7.42408 9.37211 7.41437 9.22992L5.41902 9.36624C5.46327 10.014 5.75175 10.6208 6.22615 11.064L7.59154 9.6026ZM7.41437 9.22992C7.40466 9.08774 7.44928 8.94717 7.53921 8.83661L5.98775 7.57448C5.57804 8.07812 5.37477 8.71851 5.41902 9.36624L7.41437 9.22992ZM7.53921 8.83661C7.62915 8.72605 7.7577 8.65376 7.89889 8.63433L7.62628 6.653C6.98309 6.7415 6.39747 7.07084 5.98775 7.57448L7.53921 8.83661ZM7.83105 8.64132L8.04355 8.62674L7.90662 6.63143L7.69412 6.64601L7.83105 8.64132ZM7.97508 8.62908H27.7751V6.62908H7.97508V8.62908ZM27.7751 6.62908H7.97508V8.62908H27.7751V6.62908Z" fill="#FCD800" mask="url(#path-1-inside-1)"/>
</svg>
