<svg width="80" height="78" viewBox="0 0 80 78" fill="none" xmlns="http://www.w3.org/2000/svg">
<path d="M79.9907 16.2169V10.1662V10.0635C79.7854 7.9439 78.3754 6.53392 76.3584 6.32855H76.2557H64.1545V3.60205C64.1545 1.68786 62.5391 0.0725098 60.6249 0.0725098H18.2799C16.3657 0.0725098 14.7503 1.68786 14.7503 3.60205V6.32855H3.76015H3.6574C1.6406 6.43117 0.230611 7.9439 0.025244 10.0635V10.1662V16.2169C-0.0775048 17.8322 -0.581707 33.4631 16.1603 36.0869C18.7841 43.4448 24.8348 49.2992 32.5008 51.5123V61.4939L19.1857 67.8433C19.1857 67.8433 19.0829 67.8433 19.0829 67.9461C17.1687 69.0572 16.1603 70.6726 16.1603 72.484V74.5009V74.6037C16.3657 76.6206 17.7757 77.9278 19.8952 77.9278H59.1216C61.2412 77.9278 62.7539 76.6206 62.8565 74.6037V74.5009V72.484C62.8565 70.6726 61.8481 69.0572 59.9339 67.9461L59.8312 67.8433L46.7214 61.5873V51.4188C54.0793 49.1965 60.0366 43.4539 62.7538 36.1895C68.4029 35.4798 72.7354 33.3697 75.7608 29.8401C80.4016 24.2844 79.9907 17.2253 79.9907 16.2169ZM15.1518 32.1558C2.75175 29.2332 3.65753 17.1319 3.76015 16.525C3.76015 16.4222 3.76015 16.4222 3.76015 16.3196V10.269C3.76015 10.1662 3.76015 10.0636 3.76015 10.0636H3.8629H14.7503V27.814C14.7503 28.5237 14.7503 29.1213 14.8531 29.831C14.8531 29.9337 14.8531 30.0363 14.8531 30.0363C14.9464 30.7458 15.0492 31.3434 15.1518 32.1558C15.1518 32.053 15.1518 32.053 15.1518 32.1558ZM59.1216 72.3907V74.1088H19.7925V72.3907C19.7925 71.8865 20.3994 71.3823 20.8009 71.1768L34.5176 64.7246H44.3965L58.1132 71.1768C58.5148 71.3823 59.1216 71.8865 59.1216 72.3907ZM42.8839 52.5207V60.9897H36.2263V52.5207H42.8839ZM39.4571 48.795C29.9797 48.795 22.0148 42.539 19.391 33.9672C19.2883 33.463 19.0922 32.9588 18.9896 32.4546C18.7842 31.5488 18.6908 30.5404 18.5881 29.6347C18.5881 29.532 18.5881 29.4294 18.5881 29.3359C18.5881 28.8317 18.4854 28.4301 18.4854 27.9259V8.25202V3.8167H60.3355V8.85884V27.7204C60.3355 28.2246 60.3355 28.6262 60.2328 29.1304C60.2328 29.2332 60.2328 29.3358 60.2328 29.4292C60.2328 29.8307 60.13 30.335 60.13 30.7365V30.8392C60.0273 31.3434 59.9247 31.745 59.8312 32.2492C59.8312 32.352 59.8312 32.4546 59.7284 32.5481C59.6257 32.9495 59.5231 33.3511 59.4296 33.762C56.8993 42.4362 48.8318 48.795 39.4571 48.795ZM72.8383 27.5151C70.7188 30.0362 67.6934 31.6516 63.7623 32.3518V32.2491C63.8651 31.5394 63.9677 30.9419 64.0611 30.2322C64.0611 30.1294 64.0611 30.0268 64.0611 30.0268C64.1639 29.3171 64.1639 28.6168 64.1639 27.9072V10.0729H76.1625C76.2652 10.0729 76.2652 10.0729 76.2652 10.0729C76.2652 10.0729 76.2652 10.1756 76.2652 10.2782V16.3289C76.2652 16.4317 76.2652 16.4317 76.2652 16.5343C76.2651 16.6276 76.7693 22.7716 72.8383 27.5151ZM35.6195 40.0179C35.3206 40.7276 34.6111 41.2318 33.9014 41.2318C33.696 41.2318 33.4999 41.2318 33.1917 41.129C27.0384 38.8134 25.7311 33.2669 25.8338 30.7458V11.7908C25.8338 10.7824 26.6368 9.9794 27.6452 9.9794C28.6536 9.9794 29.4566 10.7824 29.4566 11.7908V30.8485C29.4566 31.1474 29.2513 35.788 34.3962 37.7022C35.526 38.0009 36.0303 39.1121 35.6195 40.0179Z" fill="#6E2C6B"/>
</svg>
