<svg width="42" height="40" viewBox="0 0 42 40" fill="none" xmlns="http://www.w3.org/2000/svg">
<path d="M27.4949 12.6604L27.6112 12.8962L27.8714 12.934L40.2673 14.7356C40.2675 14.7356 40.2676 14.7356 40.2678 14.7356C40.8537 14.823 41.2536 15.3627 41.165 15.9372L41.1649 15.9372L41.1641 15.9427C41.1311 16.1736 41.0222 16.386 40.8551 16.5499C40.8551 16.5499 40.8551 16.5499 40.855 16.5499L31.8862 25.2941L31.698 25.4776L31.7425 25.7367L33.8616 38.0853L33.8617 38.0857C33.961 38.662 33.5738 39.21 32.9951 39.3098L32.9943 39.3099C32.7647 39.3498 32.5262 39.3127 32.3237 39.2049L32.3215 39.2037L21.2326 33.3736L20.9999 33.2513L20.7672 33.3736L9.67838 39.2037L9.67761 39.2041C9.50243 39.2966 9.30485 39.3382 9.10726 39.3241C8.90968 39.31 8.71999 39.2408 8.55971 39.1244C8.39943 39.008 8.27498 38.849 8.20046 38.6655C8.12595 38.4819 8.10435 38.2812 8.13811 38.086L8.13823 38.0853L10.2574 25.7367L10.3018 25.4776L10.1136 25.2941L1.14389 16.549L1.14386 16.549C0.941733 16.3519 0.826097 16.0827 0.822359 15.8005C0.818625 15.5186 0.926845 15.2467 1.12326 15.0444C1.287 14.8776 1.4992 14.7689 1.72981 14.736L1.73101 14.7358L14.1285 12.934L14.3887 12.8962L14.505 12.6604L20.0458 1.42748C20.046 1.42712 20.0461 1.42676 20.0463 1.4264C20.3101 0.900288 20.9491 0.68608 21.472 0.944211L21.4725 0.944496C21.6811 1.04714 21.85 1.21604 21.9527 1.42463L21.9529 1.42506L27.4949 12.6604ZM29.9911 35.1329L30.8877 35.6037L30.7164 34.6056L28.9981 24.5962L36.2708 17.5092L36.9964 16.8021L35.9937 16.6563L25.9414 15.1951L21.4483 6.09004L20.9999 5.18141L20.5515 6.09004L16.0585 15.1951L6.00612 16.6563L5.00385 16.802L5.72897 17.5091L13.0017 24.601L11.2835 34.6105L11.1121 35.6091L12.0089 35.1377L21 30.4113L29.9911 35.1329Z" fill="#FCD800" stroke="#FCD800"/>
</svg>
