<svg width="42" height="42" viewBox="0 0 42 42" fill="none" xmlns="http://www.w3.org/2000/svg">
<path d="M2.8803 19.1126L2.9566 18.5458C3.41474 15.1433 4.83015 11.941 7.03798 9.31184L7.38868 8.89422L7.77437 9.27977L19.1452 20.6464L19.4989 21L19.1453 21.3536L16.8786 23.6203L16.5606 23.9383L16.2108 23.6556C14.0934 21.9448 11.7248 21.0146 9.43505 20.3996L2.8803 19.1126ZM2.8803 19.1126H3.39887M2.8803 19.1126H3.39887M3.39887 19.1126C4.05447 19.259 4.75327 19.3954 5.49247 19.5365L5.51209 19.5414L5.5257 19.5448L5.53948 19.5474C6.77111 19.7829 8.10049 20.0424 9.43494 20.3996L3.39887 19.1126ZM22.9141 41.2439L22.863 41.2486L22.814 41.2637C22.6655 41.3092 22.5087 41.3212 22.355 41.299L22.3037 41.2915L22.252 41.2948C19.3761 41.4754 16.4947 41.0411 13.7997 40.0209C11.1048 39.0007 8.65812 37.418 6.62274 35.3781L6.62235 35.3777C-1.3178 27.4376 -1.3178 14.5625 6.62235 6.62235C14.5625 -1.3178 27.4376 -1.3178 35.3777 6.62235C43.3179 14.5625 43.3179 27.4376 35.3777 35.3777L35.3772 35.3783C32.0359 38.7298 27.6262 40.8051 22.9141 41.2439ZM3.41139 21.2899L2.78131 21.1573L2.80884 21.8006C2.97989 25.7978 4.46746 29.6263 7.04004 32.6903L7.3908 33.1081L7.77652 32.7224L14.6515 25.8474L15.0555 25.4434L14.6015 25.0965C12.862 23.7674 10.9022 22.9953 8.88185 22.4526L8.88157 22.4525C7.62701 22.1163 6.3708 21.8725 5.12622 21.6311L5.09945 21.6259L5.08725 21.6235L5.07494 21.6217L5.05859 21.6194C4.98206 21.6044 4.9055 21.5894 4.82892 21.5744C4.35526 21.4817 3.88112 21.3888 3.41139 21.2899ZM16.9083 27.3876L16.5603 26.9432L16.1611 27.3423L9.27775 34.2257L8.89192 34.6115L9.3099 34.9622C12.4222 37.5739 16.321 39.0653 20.3817 39.1977L21.0437 39.2193L20.883 38.5767C20.7597 38.0833 20.6466 37.5877 20.5437 37.0939L20.5433 37.0919L20.3686 36.2707C20.3686 36.2704 20.3685 36.2702 20.3685 36.2699C20.1668 35.3051 19.9643 34.3384 19.6999 33.3445C19.1551 31.2947 18.3719 29.2567 16.9083 27.3876ZM23.1022 38.6569L23.2216 39.079L23.6556 39.0156C26.9852 38.5298 30.1137 37.1262 32.6904 34.9621L33.108 34.6113L32.7224 34.2257L21.3536 22.8569L21 22.5034L20.6465 22.8569L18.384 25.1194L18.0633 25.4401L18.3513 25.7904C20.2012 28.0413 21.1371 30.4845 21.7543 32.7972C22.0337 33.8489 22.254 34.9008 22.4585 35.8794L22.4586 35.8798L22.619 36.6444L22.6196 36.6469C22.7741 37.3655 22.9269 38.0367 23.1022 38.6569ZM23.1084 36.5417L22.948 35.7771L32.0139 34.2243C32.025 34.215 32.0361 34.2057 32.0472 34.1963L32.3688 34.5792L32.0152 34.9328L31.9794 34.8969C29.5509 36.8211 26.6552 38.0727 23.5834 38.5209C23.4125 37.9167 23.2625 37.2584 23.1084 36.5417ZM22.855 20.6464L22.5011 20.9999L22.8549 21.3536L34.2257 32.7224L34.6114 33.108L34.9621 32.6903C37.0155 30.245 38.3859 27.3003 38.9343 24.1547L39.0048 23.7501L38.6216 23.6023C37.993 23.3599 37.3095 23.143 36.5783 22.9215L36.5768 22.921C36.334 22.8484 36.0817 22.7756 35.8252 22.7016C35.7553 22.6814 35.6851 22.6611 35.6147 22.6408C35.5619 22.6254 35.5089 22.6099 35.4557 22.5943C34.6365 22.3551 33.7674 22.1013 32.9048 21.8079L32.9036 21.8075C30.6773 21.0565 28.312 20.0028 26.0562 18.0953L25.7052 17.7985L25.38 18.1234L22.855 20.6464ZM33.5854 19.7944L33.5885 19.7955C34.4341 20.0759 35.2857 20.3377 36.1429 20.5805C36.1436 20.5807 36.1443 20.5809 36.145 20.5811L37.1835 20.8852C37.1839 20.8854 37.1844 20.8855 37.1848 20.8856C37.6403 21.0223 38.0977 21.1639 38.547 21.3171L39.2138 21.5444L39.2084 20.84C39.1759 16.6195 37.6737 12.5424 34.9601 9.30982L34.6093 8.89193L34.2235 9.2778L27.5985 15.9049L27.2078 16.2957L27.6357 16.6455C29.5597 18.2183 31.5878 19.1173 33.5854 19.7944ZM32.7224 7.77444L33.1082 7.38861L32.6902 7.03787C29.4574 4.32503 25.3802 2.82356 21.1601 2.79173L20.4558 2.78642L20.683 3.45305C20.8361 3.90195 20.9755 4.35892 21.1128 4.81664L21.1133 4.81821C21.172 5.01173 21.2231 5.18655 21.2749 5.36345C21.316 5.50415 21.3576 5.64616 21.4036 5.79994L21.4198 5.8558C21.6632 6.69628 21.9077 7.53769 22.2055 8.41429C22.8808 10.4126 23.7819 12.4406 25.3546 14.3644L25.7044 14.7924L26.0953 14.4015L32.7224 7.77444ZM20.1904 9.09401L20.1901 9.09325C19.8791 8.17882 19.6124 7.25862 19.3629 6.39791L19.3595 6.38585L19.359 6.38425L19.0777 5.42591L19.077 5.42342C18.8572 4.68853 18.6403 4.00717 18.3978 3.37847L18.25 2.99527L17.8454 3.06581C14.6998 3.61425 11.7551 4.9846 9.30976 7.03798L8.89209 7.38871L9.27771 7.7744L20.6465 19.1452L21.0002 19.499L21.3537 19.1451L23.8767 16.6201L24.2018 16.2947L23.9046 15.9437C21.9953 13.6882 20.9436 11.321 20.1904 9.09401Z" fill="#FCD800" stroke="#FCD800"/>
</svg>
