<svg width="37" height="35" viewBox="0 0 37 35" fill="none" xmlns="http://www.w3.org/2000/svg">
<path d="M22.2 7.86842H22.7V7.36842V3.68421V3.18421H22.2H14.8H14.3V3.68421V7.36842V7.86842H14.8H22.2ZM3.7 10.5526H3.2V11.0526V31.3158V31.8158H3.7H33.3H33.8V31.3158V11.0526V10.5526H33.3H3.7ZM0.5185 11.0531V11.0526C0.5185 9.28278 1.9239 7.86842 3.7 7.86842H11.1H11.6V7.36842V3.68421C11.6 1.91763 13.0206 0.5 14.8 0.5H22.2C23.9794 0.5 25.4 1.91763 25.4 3.68421V7.36842V7.86842H25.9H33.3C35.0794 7.86842 36.5 9.28605 36.5 11.0526V31.3158C36.5 33.0824 35.0794 34.5 33.3 34.5H3.7C1.9207 34.5 0.500118 33.0825 0.5 31.316C0.5 31.3159 0.5 31.3159 0.5 31.3158L0.5185 11.0531Z" fill="#FCD800" stroke="#FCD800"/>
</svg>
