<svg width="42" height="40" viewBox="0 0 42 40" fill="none" xmlns="http://www.w3.org/2000/svg">
<path d="M40.0861 7.492L40.086 7.49196L21.3361 1.242C21.1179 1.16933 20.8821 1.16933 20.6638 1.242L1.94406 7.4822L1.93683 7.48461L1.93547 7.48501C1.92927 7.48761 1.922 7.49053 1.91389 7.49353L1.90254 7.49773L1.90249 7.49759C1.85773 7.51295 1.81406 7.53134 1.77179 7.55263C1.7645 7.55642 1.75823 7.5595 1.75351 7.56176L1.74841 7.56415C1.70827 7.58602 1.66958 7.61046 1.6326 7.63734L1.63165 7.63803C1.62298 7.6443 1.61441 7.65069 1.60594 7.65721L1.60245 7.6599L1.60244 7.65988C1.56778 7.68607 1.53474 7.71433 1.5035 7.74449L1.5033 7.74472C1.49965 7.7488 1.49468 7.75424 1.48872 7.76046L1.48846 7.76073C1.45695 7.79356 1.42756 7.82837 1.40048 7.86495L1.39864 7.86743L1.39864 7.86742L1.3898 7.87908L1.38432 7.88625C1.38348 7.88736 1.38293 7.88809 1.38261 7.88852L1.38239 7.88883C1.35505 7.92747 1.33033 7.96789 1.30841 8.00983C1.30799 8.01063 1.30757 8.01143 1.30715 8.01224L1.30708 8.01236L40.0861 7.492ZM40.0861 7.492C40.2977 7.56248 40.4818 7.69777 40.6122 7.8787C40.7427 8.05962 40.8128 8.27701 40.8128 8.50004C40.8128 8.72308 40.7427 8.94046 40.6122 9.12139C40.4818 9.30231 40.2977 9.4376 40.0861 9.50809L40.086 9.50812L31.4696 12.3802L30.8697 12.5802L31.2026 13.1178C32.872 15.8134 33.4062 19.0603 32.6884 22.1486C31.9706 25.2369 30.0592 27.9154 27.3721 29.5984L26.5179 30.1333L27.4607 30.4898C31.0883 31.8615 34.1838 34.3545 36.2971 37.6065L36.299 37.6093C36.376 37.7262 36.4293 37.8571 36.4556 37.9946C36.4818 38.1321 36.4807 38.2734 36.4522 38.4105C36.4237 38.5476 36.3684 38.6777 36.2894 38.7933C36.2105 38.9089 36.1095 39.0078 35.9922 39.0842C35.875 39.1607 35.7437 39.2132 35.6061 39.2388C35.4684 39.2644 35.3271 39.2625 35.1902 39.2333C35.0533 39.2041 34.9235 39.1481 34.8083 39.0685C34.6931 38.989 34.5947 38.8875 34.5189 38.7698L34.5177 38.7679C33.0527 36.5174 31.0491 34.6682 28.6885 33.3881C26.3279 32.108 23.685 31.4376 20.9997 31.4376C18.3144 31.4376 15.6715 32.108 13.3109 33.3881C10.9503 34.6682 8.94667 36.5174 7.48171 38.7679L7.47883 38.7724C7.40342 38.891 7.30523 38.9935 7.18994 39.0739C7.07465 39.1543 6.94454 39.211 6.80717 39.2408C6.66981 39.2706 6.5279 39.2728 6.38967 39.2473C6.25145 39.2218 6.11964 39.1692 6.0019 39.0924C5.88416 39.0157 5.78282 38.9163 5.70375 38.8001C5.62468 38.6839 5.56945 38.5531 5.54127 38.4154C5.51309 38.2777 5.51251 38.1358 5.53956 37.9979C5.56661 37.8599 5.62077 37.7288 5.69888 37.6119L5.69891 37.6119L5.70245 37.6065C7.81581 34.3545 10.9114 31.8613 14.5391 30.4896L15.4818 30.1332L14.6277 29.5982C11.9407 27.9152 10.0293 25.2367 9.31148 22.1485C8.59367 19.0602 9.12783 15.8133 10.7972 13.1178L11.1301 12.5802L10.5302 12.3802L3.97061 10.1937L3.3125 9.9743V10.668V24.125C3.3125 24.4068 3.20056 24.6771 3.0013 24.8763C2.80204 25.0756 2.53179 25.1875 2.25 25.1875C1.96821 25.1875 1.69796 25.0756 1.4987 24.8763C1.29944 24.6771 1.1875 24.4068 1.1875 24.125V8.50223M40.0861 7.492L7.47593 39.484M7.47593 39.484C7.64548 39.3658 7.78988 39.2151 7.90078 39.0407C9.3203 36.8599 11.2618 35.068 13.5493 33.8276C15.8367 32.5872 18.3976 31.9376 20.9997 31.9376C23.6018 31.9376 26.1627 32.5872 28.4501 33.8276C30.7376 35.068 32.6791 36.8599 34.0986 39.0407C34.2102 39.2137 34.3548 39.363 34.5242 39.48C34.6936 39.597 34.8845 39.6793 35.0858 39.7223C35.2872 39.7652 35.495 39.768 35.6974 39.7304C35.8998 39.6928 36.0928 39.6155 36.2653 39.5031C36.4378 39.3906 36.5863 39.2452 36.7024 39.0752C36.8185 38.9052 36.8998 38.7139 36.9417 38.5123C36.9836 38.3108 36.9853 38.1029 36.9467 37.9007C36.908 37.6985 36.8297 37.5059 36.7164 37.334L7.47593 39.484ZM7.47593 39.484C7.30639 39.6023 7.11506 39.6857 6.91305 39.7295C6.71104 39.7732 6.50235 39.7765 6.29907 39.739C6.09579 39.7016 5.90196 39.6241 5.72882 39.5113C5.55567 39.3984 5.40664 39.2522 5.29036 39.0813C5.17409 38.9105 5.09287 38.7182 5.05143 38.5157C5.00998 38.3132 5.00912 38.1045 5.04891 37.9016C5.0887 37.6988 5.16833 37.5059 5.2832 37.334C7.34286 34.1646 10.3106 31.6968 13.7916 30.2485C13.8923 30.3155 13.9941 30.3813 14.0969 30.4457L14.3623 30.0219L14.1855 29.5542C14.0736 29.5965 13.9622 29.6399 13.8513 29.6842C11.3212 27.9213 9.52586 25.2793 8.82447 22.2617C8.11541 19.2111 8.57908 16.0119 10.1117 13.2948L10.214 13.3289L10.3721 12.8545L9.94698 12.5913C9.9262 12.6249 9.90557 12.6585 9.88511 12.6922L4.3125 10.8347V10.668H3.8125L3.65439 11.1424L3.8125 11.1951V24.125C3.8125 24.5394 3.64788 24.9369 3.35485 25.2299C3.06183 25.5229 2.6644 25.6875 2.25 25.6875C1.8356 25.6875 1.43817 25.5229 1.14515 25.2299C0.85212 24.9369 0.6875 24.5394 0.6875 24.125V8.50004M0.6875 8.50004L1.18748 8.50403C1.18749 8.50343 1.18749 8.50283 1.1875 8.50223M0.6875 8.50004C0.688097 8.4253 0.694036 8.3507 0.705273 8.2768L0.6875 8.50004ZM1.1875 8.50223C1.18799 8.45192 1.19203 8.40171 1.19959 8.35197L1.1996 8.35197L1.20012 8.34842C1.20251 8.33186 1.20376 8.32328 1.20509 8.31534L1.1875 8.50223ZM13.264 13.2915L13.6091 13.4066L20.6638 15.7581C20.8821 15.8308 21.1179 15.8308 21.3361 15.7581L28.3909 13.4066L28.7356 13.2917L28.9513 13.584C30.2023 15.2792 30.8765 17.331 30.875 19.4378M13.264 13.2915L30.875 19.4378M13.264 13.2915L13.0484 13.5844C12.1226 14.8415 11.5082 16.3002 11.2554 17.8407C11.0025 19.3813 11.1186 20.9598 11.5939 22.4469C12.0693 23.9339 12.8905 25.287 13.99 26.3952C15.0896 27.5035 16.4363 28.3352 17.9195 28.8222C19.4028 29.3092 20.9804 29.4376 22.5229 29.1968C24.0654 28.9561 25.5288 28.353 26.7931 27.4372C28.0574 26.5213 29.0865 25.3188 29.7961 23.9282C30.5056 22.5377 30.8753 20.9989 30.875 19.4379L30.375 19.4375L30.875 19.4374C30.875 19.4375 30.875 19.4377 30.875 19.4378M13.264 13.2915L30.875 19.4378M1.38227 7.88898C1.38227 7.88898 1.3823 7.88893 1.38238 7.88883L1.38227 7.88898ZM1.51306 7.73364L1.51292 7.7338L1.51306 7.73364ZM1.20513 8.31512C1.21279 8.26994 1.22338 8.22531 1.23683 8.18152C1.23868 8.17656 1.24131 8.16938 1.24421 8.16067C1.24403 8.16121 1.24385 8.16174 1.24366 8.16228L1.20513 8.31512ZM1.29741 8.03259L1.30377 8.01956L1.30791 8.01086L1.29741 8.03259ZM28.7054 11.0617L28.7129 11.0592C28.7142 11.0588 28.7157 11.0583 28.7171 11.0578C28.7177 11.0576 28.7182 11.0574 28.7188 11.0572C28.7189 11.0572 28.7189 11.0572 28.719 11.0572C28.7191 11.0571 28.7192 11.0571 28.7193 11.0571C28.7193 11.057 28.7193 11.057 28.7193 11.057C28.7208 11.0565 28.7224 11.056 28.7241 11.0554L34.9671 8.97438L36.3901 8.50003L34.9671 8.0257L21.1581 3.42277L21 3.37007L20.8419 3.42277L7.0331 8.0257L5.61014 8.50002L7.03308 8.97438L13.2805 11.0571L13.2827 11.0578L13.2899 11.0602L13.29 11.0602L13.2944 11.0617L20.8419 13.5773L21 13.63L21.1581 13.5773L28.7054 11.0617Z" fill="#FCD800" stroke="#FCD800"/>
</svg>
