<svg xmlns="http://www.w3.org/2000/svg" viewBox="0 0 880 844.13">
  <defs>
    <style>
      .cls-1 {
        fill: #b2adad;
      }
    </style>
  </defs>
  <g id="Слой_2" data-name="Слой 2">
    <g id="Слой_1-2" data-name="Слой 1">
      <g>
        <path class="cls-1" d="M219,425.89a7.13,7.13,0,0,1-5.09-2.14c-.55-.56-13.5-14-17.27-40.39-4.85-33.9,7-72.36,35.22-114.36a12,12,0,0,1,.86-16l51.63-51.63a11.9,11.9,0,0,1,16.82,0,2.33,2.33,0,0,0,3.19,0L315,190.73a2.3,2.3,0,0,0,0-3.18l-3.42-3.42a7.15,7.15,0,0,1,0-10.09l33.18-33.17a27.33,27.33,0,0,1,38.8,0L427.73,185a27,27,0,0,1,8.07,19.27,27.29,27.29,0,0,1-8.07,19.53L394.55,257a7.12,7.12,0,0,1-10.08,0l-4.15-4.14-14,13.89a13.11,13.11,0,0,1,0,18.45l-50.9,50.9a11.82,11.82,0,0,1-14,2.13,3.87,3.87,0,0,0-1.23-.27h-.05a16.89,16.89,0,0,0-2.46,0c-32.85,4.51-66.31,42.67-71.67,81.79a7.13,7.13,0,0,1-7.07,6.16Zm25.28-164.24a12.78,12.78,0,0,1,0,14.44c-25.9,38.27-37.55,74.3-33.67,104.17a75.47,75.47,0,0,0,5.34,19.91c12.28-38.64,45.87-71.82,80.06-76.39l.3,0a30.38,30.38,0,0,1,5,0,18.06,18.06,0,0,1,5.16,1.15L355.42,276a14.34,14.34,0,0,1,.85-19.31l13.89-13.89a14.33,14.33,0,0,1,19.31-.85l28.17-28.17a13.16,13.16,0,0,0,3.9-9.4,12.88,12.88,0,0,0-3.86-9.2L373.48,151a13.14,13.14,0,0,0-9.35-3.89h-.05a12.9,12.9,0,0,0-9.2,3.86L326.61,179.2a16.54,16.54,0,0,1-1.51,21.62l-10.68,10.67a16.61,16.61,0,0,1-21.56,1.56Zm-11.8,6.42h0Z"/>
        <path class="cls-1" d="M603.38,631.93h-.72a42,42,0,0,1-30.2-13.4L325.39,351.14a7.14,7.14,0,0,1,.2-9.89l48.51-48.51a7.14,7.14,0,0,1,9.89-.2L651.34,539.68l0,0a42.2,42.2,0,0,1,1,60.75L633.3,619.52A42,42,0,0,1,603.38,631.93ZM340.52,346.49,582.9,608.81a27.82,27.82,0,0,0,20,8.85h.48a27.89,27.89,0,0,0,19.84-8.23l19.07-19.08a27.93,27.93,0,0,0-.64-40.22L379.34,307.67Z"/>
        <path class="cls-1" d="M317.21,632.07a45,45,0,0,1-31.84-76.85l5,5-5-5L393.8,446.78a7.15,7.15,0,0,1,10.28.2l51.52,55.67a7.14,7.14,0,0,1-.19,9.89L349.05,618.9A44.93,44.93,0,0,1,317.21,632.07Zm81.43-170L295.45,565.3A30.77,30.77,0,0,0,339,608.81L440.47,507.3Z"/>
        <path class="cls-1" d="M540.24,424.75a7.09,7.09,0,0,1-4.84-1.9l-55.67-51.52a7.13,7.13,0,0,1-.2-10.28l34.26-34.26a99.78,99.78,0,0,1,23.76-100.47,98.55,98.55,0,0,1,94.37-26.59,7.13,7.13,0,0,1,3.34,12l-57.94,57.95a9.13,9.13,0,0,0-2.09,9.6l12.12,32.41a9,9,0,0,0,5.29,5.27L625.05,329a9.12,9.12,0,0,0,9.56-2.09L692.56,269a7.13,7.13,0,0,1,12,3.33A99.29,99.29,0,0,1,577.36,390.59l-32.08,32.07A7.09,7.09,0,0,1,540.24,424.75ZM494.86,365.9l45.19,41.82,30.4-30.39A7.13,7.13,0,0,1,578,375.7a85,85,0,0,0,114.86-86.84L644.7,337a23.42,23.42,0,0,1-24.61,5.38l-32.48-12.14A23,23,0,0,1,574,316.56l-12.1-32.35a23.45,23.45,0,0,1,5.37-24.64l48.16-48.16a84.12,84.12,0,0,0-67.69,24.93,85.5,85.5,0,0,0-19,89.83,7.13,7.13,0,0,1-1.63,7.55Z"/>
      </g>
      <path class="cls-1" d="M252.56,59.8c5.76,2.45,12,1.35,17.87,1.29S282.13,61,288,61q17.1,0,34.2.21,34.65.51,69.28,2.17,19.79,1,39.57,2.29c2.92.2,5.4-4.25,5.4-9,0-5-2.47-8.75-5.4-8.95q-69.24-4.64-138.55-4.63-9.9,0-19.8.1c-6.57.07-13.75-1.15-20.12,1.81C248.22,47,248.08,57.89,252.56,59.8Z"/>
      <path class="cls-1" d="M170.47,479.77c4.06,14.17,9.82,27.74,15.65,41.26l-16,9.22c-7.77,4.48-17.05,8.43-23.62,14.6a8.09,8.09,0,0,0-2.11,8,9.19,9.19,0,0,0,2.11,3.62,8.1,8.1,0,0,0,8,2.1c8.42-2.51,16.31-8.4,23.88-12.76l14.7-8.45c1.87,4.6,3.68,9.23,5.32,13.91,1.42,4,2.73,8.11,3.87,12.23,1.27,4.58,1.81,9.57,4,13.8,1.71,3.3,6.08,4.84,9.54,3.88,3.8-1,5.86-4.4,6.2-8.14.41-4.39-1.42-9.38-2.57-13.6s-2.42-8.21-3.83-12.24c-2.19-6.3-4.66-12.48-7.23-18.63l40-23c9.82-5.65,1-20.88-8.9-15.21l-38,21.89c-5.2-12.17-10.28-24.4-13.94-37.16C184.33,464.21,167.33,468.83,170.47,479.77Z"/>
      <path class="cls-1" d="M838.16,566.57c-3-2.34-5.95-5.08-9.8-5.69-5.06-.8-11.66,3.35-9.35,9.35,2.58,6.72,9.21,10.71,14.64,15.1l15.76,12.72c3.67,3,8.77,3.59,12.36,0,3.07-3.07,3.69-9.37,0-12.36L846,572.94C843.41,570.81,840.81,568.66,838.16,566.57Z"/>
      <path class="cls-1" d="M807.58,533.28c1.85-2,3-5,2-7.71-1.78-5.14-5.79-8.74-9.4-12.67l-9.89-10.77c-7.67-8.34-20.15,4.15-12.44,12.44q6.48,7,13,13.91C794.8,532.73,802,539.27,807.58,533.28Z"/>
      <path class="cls-1" d="M712.06,471.42c2.47,4.76,8.3,6.53,12.84,8.74s9.14,4.66,13.52,7.35c9.67,5.92,18.72-9.57,8.88-15.19a118.13,118.13,0,0,0-15.88-7.62c-5.5-2.14-11.59-4.36-17.2-1.53C711.21,464.68,710.63,468.67,712.06,471.42Z"/>
      <path class="cls-1" d="M118.22,326.84c0-4.82-3.82-7.92-8.32-8.32l-15.09-1.31c-4.86-.43-10.25-1.57-15.09-1-3.94.48-7.33,2.67-7.84,6.92a8,8,0,0,0,5.72,8.75c5.14,1.57,11.17,1.42,16.52,1.88l15.78,1.38C114.38,335.55,118.22,331.06,118.22,326.84Z"/>
      <path class="cls-1" d="M37.63,324c7.82-.74,9.33-10.82,1.84-13.59C34.65,308.58,29,308.37,24,307a116.7,116.7,0,0,1-15-5.16c-7.38-3.09-12.9,9.84-5.49,13a131.13,131.13,0,0,0,16.65,6C25.5,322.36,32.08,324.47,37.63,324Z"/>
      <path class="cls-1" d="M75.93,180.61a20.35,20.35,0,0,0,11.67-.38c3.4-1.08,6.79-2.2,10.16-3.4a151.56,151.56,0,0,0,20.47-8.91,86.84,86.84,0,0,0,30-25.67c8.43-11.77,10.51-25.74,13.35-39.57,2.15-10.54,5.25-22.25,15.61-27.49,3.8-1.92,4.89-7.28,2.83-10.8-2.3-3.94-6.94-4.67-10.8-2.83-11.62,5.52-18.52,17.38-22.32,29.2-4,12.46-4.23,26.17-10.88,37.7-5.69,9.88-14.6,17.26-24.42,22.82a139.78,139.78,0,0,1-18.52,8.54c-7,2.71-14.89,4.11-20,10C70,173.26,70.89,179.44,75.93,180.61Z"/>
      <path class="cls-1" d="M169.26,160.72c-.73,6.39,7.36,9.78,12.24,7s7.71-8.7,11.34-12.81a105.51,105.51,0,0,1,11.71-11.35,92,92,0,0,1,26.34-15.2c4.29-1.6,7.21-5.73,5.92-10.42-1.14-4.17-6.09-7.46-10.42-5.92a115.68,115.68,0,0,0-33.3,18.44,103.73,103.73,0,0,0-12.75,12C175.6,147.71,170.09,153.45,169.26,160.72Z"/>
      <path class="cls-1" d="M645.83,753.11c-7.27-9-19.84-10.11-30.15-6.6-5.67,1.93-10.6,5.2-15.38,8.74-6.22,4.62.12,15.53,7.16,11.79,4.43-2.35,8.93-5.13,13.7-6.74,3.56-1.2,6.78-1.39,9.67-.29,2.67,1,4.57,2.38,4.74,5.36.21,3.56-1.93,7.2-3.94,10.06A63.13,63.13,0,0,1,613,792.92a54.5,54.5,0,0,1-12.56,5.88c-3.72,1.09-6.36.47-9.41-1.84-7.3-5.5-13.36-13.76-18.07-21.51-4.06-6.68-9.59-16.15-7.51-24.2,2-7.85,9.91-12.81,16.93-15.78,9.3-3.93,19.49-5.88,29.31-8,40-8.78,82.89-17.52,114.24-45.9,7.54-6.82,14.14-14.59,20.66-22.37,3.25-3.87,6.47-7.78,9.84-11.55,2.44-2.73,5.55-5.9,9.15-7,6.53-2,6.83,6.88,5.4,11.49-2.84,9.18-9.17,17.77-14.36,25.74-24,36.77-51,71.5-76.72,107l-9.79,13.48c-4.86,6.7,5.47,14.38,10.32,7.66,14.7-20.34,29-41,43.79-61.25,14.31-19.68,29.28-38.94,43-59q5-7.26,9.61-14.74c2.94-4.76,6.07-9.66,7.73-15,3.12-10.12.72-22.38-9.45-27.52-11.21-5.67-22.42,2.3-29.9,10.25-7.82,8.31-14.63,17.53-22.57,25.74-32.24,33.35-80.65,41-123.73,51.4-11.5,2.79-23.12,5.71-33,12.42-8.87,6-15.42,15.65-15.39,26.58,0,11.92,6.28,23,12.71,32.65,6,9.06,13.79,19,23.53,24.2,11.08,5.93,23.18,0,32.85-6a83.5,83.5,0,0,0,23.07-20.85C649.41,775.8,653.73,762.93,645.83,753.11Z"/>
      <path class="cls-1" d="M681.8,746.79a98.84,98.84,0,0,1,10.64-9.06c4-2.92,8.58-5.8,9.76-10.87a5.49,5.49,0,0,0-3.42-5.78c-5.42-1.69-10.85,1.66-15.17,4.75a99.2,99.2,0,0,0-11.15,9.32c-2.89,2.8-3.83,7.14-1.15,10.49C673.65,748.54,678.9,749.61,681.8,746.79Z"/>
      <path class="cls-1" d="M101.72,413.54c-2.56-1.34-6.73-.91-8,2.11C90.9,422,94.17,428,96.62,434c2.39,5.81,5.07,11.49,7.95,17.08,1.85,3.58,6.86,4.63,10.21,2.67,3.65-2.14,4.49-6.59,2.67-10.2-2.54-5-4.89-10.15-7.09-15.34S107,416.28,101.72,413.54Z"/>
      <path class="cls-1" d="M56.69,505.16c-2.93,1.45-5.89,2.86-8.88,4.17l-.63.29c-.22-.36-.46-.7-.64-1-3.29-5.9-6.52-12.14-11.77-16.53-3.19-2.67-10.18-1.36-9.49,3.93.92,7,4,13,7.29,19.21,3.56,6.58,8.25,12.09,16.56,10.31,6.4-1.36,12.9-4.87,18.81-7.59,6.07-2.79,12-5.86,15.24-12,6.82-13.05-1.13-26-7.33-37.34a199.5,199.5,0,0,1-23.32-76c-.38-4-3.15-7.46-7.45-7.46-3.78,0-7.8,3.42-7.46,7.46a222.45,222.45,0,0,0,15.19,65c2.1,5.17,4.34,10.3,6.79,15.32s5.43,9.66,7.67,14.69c1.4,3.14,2.7,7.36,1.15,10.3C66.57,501.37,60.14,503.45,56.69,505.16Z"/>
      <path class="cls-1" d="M432.29,672.35l18.19,20.7,9.1,10.35c2.88,3.28,5.74,7.59,9.47,10,5.23,3.33,10.2,1.15,14.49-2.32,3.33-2.7,6.58-5.5,9.8-8.33q9.66-8.48,18.77-17.56c3-3,6.07-6.06,9-9.21s6.78-6.71,8.44-10.79c4.05-9.9-6-17.36-12.19-23.5-14.64-14.59-29.93-28.7-43.85-44-2.81-3.09-8-2.81-10.87,0-7.34,7.21-14.75,14.31-22.65,20.9q-5.61,4.68-11.46,9c-3.88,2.87-8.2,5.38-11.61,8.8a8.12,8.12,0,0,0-1.7.7c-5.78,3.3-4.61,10.18-1.07,14.55C419.89,658.75,426.24,665.46,432.29,672.35Zm5.16-31.79q6.49-4.89,12.75-10.08c6.29-5.25,12.42-10.74,18.18-16.58,15.64,14.81,30.37,30.7,45.56,45.93.1.1.2.23.31.36-1.88,2-3.79,3.88-5.67,5.84-4,4.12-8,8.19-12.09,12.16s-8.29,7.86-12.56,11.66q-3.19,2.85-6.44,5.64l-2.24,1.91L472,693.75l-7-7.85-27-30.39c-2.76-3.11-5.65-6.16-8.45-9.28C432.28,644.53,434.83,642.53,437.45,640.56Z"/>
      <path class="cls-1" d="M798.2,343.75c-5.89,15.66-11.77,31.32-18,46.85-2.4,6,6.37,10.33,10.45,6.09C820,366.12,848.54,334.8,878,304.39a7,7,0,0,0-3-11.5,194.68,194.68,0,0,0-37.36-6.72c4.66-7.28,9.44-14.47,14.41-21.55,2.57-3.65-.06-9.19-4.15-10.2a160.32,160.32,0,0,0-40.8-4.82,6.23,6.23,0,0,0-6,3.92,4.79,4.79,0,0,0-1.88,2.1,634.79,634.79,0,0,0-23.47,61.53c-1.41,4.33,2.29,7.83,6.24,8.2l12.49,1.19q3.12.3,6.24.54c.3,0,2.14.25,3.47.38-.49,1.52-1.09,3-1.65,4.52Q800.41,337.88,798.2,343.75Zm-1.41-30.3c-2-.16-4.09-.3-6.14-.44a533.1,533.1,0,0,1,19-49.84,176.53,176.53,0,0,1,24.85,2.6c-5,7.5-9.89,15.12-14.47,22.92-2.68,4.55.77,10.07,5.87,10.23a186.62,186.62,0,0,1,34.37,4.59c-18.29,20-36.89,39.65-55.38,59.45q4.62-11.54,9-23.14c3-7.92,8-19.19-2.38-24.14C807.17,313.6,801.53,313.81,796.79,313.45Z"/>
      <path class="cls-1" d="M678.14,19.34c-4.53.15-8,3.21-11.59,5.7-6.81,4.81-13.41,9.91-19.91,15.14C639.41,46,632.35,52,625.16,57.9c-3.59,2.93-7.21,5.83-10.88,8.65-1.12.86-2.26,1.8-3.43,2.74,0-.09,0-.17,0-.26-.19-2.64-.37-5.28-.56-7.91L609,43.72q-.63-8.7-1.24-17.4c-.41-5.78-.09-12.3-1.51-17.91-1.52-6-7.58-10.23-13.66-7.62-5,2.15-9.61,6.88-13.93,10.2-9.16,7-18.2,14.27-27.16,21.58-3,2.41-2.86,7.31-.38,10,2.86,3.09,6.88,2.62,10,.38q9.75-7,19.35-14.18c3.1-2.31,6.2-4.61,9.28-7l1.87-1.42.39,5.34q.66,8.7,1.3,17.4c.79,10.54,1.62,21.09,2.32,31.64.37,5.55,1.38,11.43,7.28,13.66s10.73-1.74,15.37-5.08c8.36-6,16.36-12.54,24.3-19.1,8.14-6.73,16.19-13.59,24.51-20.09q2.75-2.15,5.52-4.23c1-.75,2.37-1.51,3.6-2.34l1.89,7.19C683.34,64.34,689,83.88,695.78,103c7.71,21.83,15.74,44.12,29.2,63.12,2.28,3.22,7.62,3.14,10.49,1.05,3.46-2.51,4-6.39,2.56-10.23-5.71-14.76-12.92-28.86-18.89-43.52S707.82,83.89,703,68.86c-2.42-7.55-4.71-15.14-7-22.73q-1.63-5.33-3.23-10.67c-1.21-4.07-2.15-8.35-4.91-11.7A11.66,11.66,0,0,0,678.14,19.34Z"/>
      <path class="cls-1" d="M186.19,748c25.19-3.39,49-23.5,47.8-50.49a36.75,36.75,0,0,0-24.57-33.26c-13.7-4.82-28.59-3.86-42.87-3.65-16,.24-32.92.47-47.91-5.87a53.93,53.93,0,0,1-17.34-11.44c-5.4-5.48-7.86-11.81-10.73-18.82a6,6,0,0,0-6.11-3.75,6.4,6.4,0,0,0-4.88,3.45A5.73,5.73,0,0,0,76,630.38c3.66,31.33,17.09,62.25,38.66,85.42C132.67,735.15,158.6,751.68,186.19,748ZM94.45,655.77a59.58,59.58,0,0,0,5.1,4.05c11.65,8.25,25.32,12.35,39.42,13.77,14.66,1.47,29.4.5,44.09.59,10.53.07,23.56.87,31.14,8.93,4.19,4.45,6.06,10.63,6.08,16.66a28.2,28.2,0,0,1-3.9,14.38c-4.47,8.29-13.47,14.71-22.8,18a45.63,45.63,0,0,1-15.3,2.57,55.6,55.6,0,0,1-16.4-2.72c-11.83-3.82-22.28-10.82-31.39-19.17A132.46,132.46,0,0,1,94.45,655.77Z"/>
      <path class="cls-1" d="M173.2,720.06a43.86,43.86,0,0,0,20.75-3.9c3.37-1.58,5.35-5.26,4-8.91-1.28-3.29-5.53-5.53-8.92-3.94a30.55,30.55,0,0,1-14.48,3.1,36,36,0,0,1-8-1.36c-3.22-.89-6.08-2.06-9.41-1-3,1-4.09,4.46-3.19,7.2C156.11,718.08,167.06,719.79,173.2,720.06Z"/>
      <path class="cls-1" d="M378.86,844c4.23-.2,8.92-.2,13-1.5,9.24-2.94,11.4-11.83,13.49-20.16a247.88,247.88,0,0,1,20.18-53.91c2.2-4.22.43-10-4.55-11.18a121.8,121.8,0,0,1-38-16.66,120.42,120.42,0,0,1-15.56-12.38c-5.31-4.94-9.84-10.69-15.25-15.49s-11.92,1.12-9.33,7.2c3,7,8.52,13,13.78,18.37a126.06,126.06,0,0,0,18.29,15.11,123.51,123.51,0,0,0,33.16,16.12A271.65,271.65,0,0,0,394,805.56q-1.74,5.7-3.23,11.49c-.73,2.86-1.31,6.75-2.38,9.15-.11.26-1.24,1.64-.82,1.49-1.1.6-2.61.46-3.78.55q-6.18.46-12.38.46c-7.12,0-15.17.28-21.88-1.77-5.71-1.74-6.09-8.36-7.15-13.65q-5.06-25.41-10.2-50.8c-1.9-9.3-3.85-18.59-5.78-27.89-2-9.68-3.65-19.56-6.42-29.06a6.58,6.58,0,0,0-7.22-4.71c-2.94.44-6.07,3.17-5.71,6.46,1.06,9.61,3.15,19.11,5,28.6q2.69,14,5.36,28c3.53,18.45,7.22,36.87,10.9,55.3,1.6,8,4.22,15.9,11.8,20.19,7.4,4.2,16.86,4.36,25.14,4.64Q372,844.26,378.86,844Z"/>
      <path class="cls-1" d="M368.66,802.87c4.44-1.22,6-5.37,5.41-9.52-1-6.85-.82-16.12-7.08-20.4-1.92-1.33-5.57-1-7.09.91-5.12,6.42-1.86,16.16-.76,23.6C359.75,801.61,365,803.88,368.66,802.87Z"/>
      <path class="cls-1" d="M575.86,96.63c-.24-5.83-.92-11.66-1.72-17.43-1.4-10.2-17.12-8.25-15.87,2,.68,5.58,1.12,11.16,1.44,16.76s-.25,12.43,4.67,16.37a6.12,6.12,0,0,0,7.37,0C577,110.14,576.11,102.69,575.86,96.63Z"/>
    </g>
  </g>
</svg>
