<svg width="396" height="377" viewBox="0 0 396 377" fill="none" xmlns="http://www.w3.org/2000/svg">
<path d="M98.55 190.209C98.1234 190.208 97.7011 190.124 97.3078 189.96C96.9145 189.796 96.5581 189.555 96.2595 189.253C96.012 189.003 90.1845 183 88.488 171.214C86.3055 156.074 91.638 138.897 104.337 120.139C103.503 119.11 103.081 117.812 103.153 116.493C103.224 115.174 103.784 113.928 104.724 112.994L127.958 89.9349C128.962 88.9395 130.323 88.3803 131.742 88.3803C133.161 88.3803 134.522 88.9395 135.527 89.9349C135.721 90.1161 135.978 90.217 136.244 90.217C136.511 90.217 136.768 90.1161 136.962 89.9349L141.75 85.1829C141.934 84.9918 142.037 84.7374 142.037 84.4728C142.037 84.2083 141.934 83.9539 141.75 83.7627L140.211 82.2353C139.611 81.6368 139.273 80.8267 139.273 79.9821C139.273 79.1376 139.611 78.3274 140.211 77.729L155.142 62.9148C156.285 61.7713 157.645 60.8638 159.144 60.2444C160.642 59.6251 162.249 59.3062 163.872 59.3062C165.495 59.3062 167.102 59.6251 168.6 60.2444C170.099 60.8638 171.459 61.7713 172.602 62.9148L192.479 82.6239C193.629 83.747 194.543 85.0866 195.167 86.5643C195.79 88.0419 196.111 89.6281 196.11 91.2301C196.119 92.8506 195.803 94.4566 195.179 95.9543C194.556 97.452 193.638 98.8112 192.479 99.9525L177.548 114.78C177.25 115.076 176.896 115.311 176.507 115.471C176.118 115.631 175.701 115.714 175.28 115.714C174.858 115.714 174.441 115.631 174.052 115.471C173.663 115.311 173.309 115.076 173.012 114.78L171.144 112.931L164.844 119.135C165.938 120.231 166.552 121.712 166.552 123.255C166.552 124.798 165.938 126.278 164.844 127.375L141.939 150.107C141.133 150.92 140.084 151.451 138.948 151.623C137.813 151.794 136.652 151.596 135.639 151.058C135.462 150.989 135.275 150.948 135.086 150.938H135.063C134.695 150.911 134.325 150.911 133.956 150.938C119.174 152.952 104.117 169.995 101.705 187.466C101.599 188.229 101.219 188.928 100.634 189.434C100.049 189.94 99.2989 190.218 98.523 190.217L98.55 190.209ZM109.926 116.857C110.581 117.806 110.932 118.93 110.932 120.081C110.932 121.232 110.581 122.356 109.926 123.306C98.271 140.398 93.0285 156.489 94.7745 169.83C95.162 172.889 95.9705 175.881 97.1775 178.722C102.704 161.465 117.819 146.646 133.205 144.605H133.34C134.088 144.544 134.841 144.544 135.59 144.605C136.385 144.662 137.167 144.835 137.912 145.118L159.939 123.266C158.908 122.04 158.376 120.476 158.446 118.88C158.517 117.285 159.186 115.773 160.322 114.642L166.572 108.438C167.711 107.31 169.235 106.646 170.843 106.575C172.45 106.505 174.027 107.034 175.262 108.058L187.938 95.4774C188.497 94.9283 188.94 94.2743 189.241 93.5535C189.542 92.8327 189.696 92.0596 189.693 91.2792C189.693 90.5141 189.54 89.7566 189.242 89.0511C188.943 88.3456 188.506 87.7062 187.956 87.1704L168.066 67.439C167.515 66.8876 166.86 66.4501 166.138 66.1519C165.415 65.8537 164.641 65.7006 163.859 65.7017H163.836C163.065 65.7018 162.302 65.8543 161.591 66.1503C160.88 66.4463 160.236 66.8798 159.696 67.4256L146.975 80.0335C148.051 81.4547 148.575 83.2135 148.45 84.9872C148.325 86.7609 147.56 88.4304 146.295 89.6893L141.489 94.4546C140.222 95.7008 138.547 96.4559 136.768 96.5837C134.989 96.7115 133.222 96.2034 131.787 95.1514L109.926 116.857Z" fill="#D1D1D1"/>
<path d="M271.521 282.229H271.197C268.642 282.195 266.12 281.647 263.784 280.618C261.448 279.59 259.347 278.102 257.607 276.244L146.425 156.824C145.863 156.219 145.558 155.421 145.575 154.598C145.592 153.774 145.929 152.989 146.515 152.407L168.345 130.742C168.932 130.159 169.723 129.825 170.552 129.808C171.382 129.792 172.186 130.094 172.795 130.652L293.103 241.029C294.969 242.756 296.465 244.84 297.502 247.154C298.538 249.469 299.094 251.967 299.136 254.5C299.178 257.032 298.705 259.547 297.746 261.894C296.787 264.241 295.361 266.372 293.553 268.16L284.985 276.686C283.222 278.449 281.124 279.846 278.813 280.797C276.502 281.749 274.023 282.235 271.521 282.229ZM153.234 154.747L262.305 271.903C263.458 273.131 264.85 274.114 266.397 274.794C267.944 275.473 269.613 275.834 271.305 275.855H271.521C273.18 275.859 274.823 275.536 276.356 274.905C277.888 274.274 279.279 273.348 280.449 272.18L289.03 263.658C290.228 262.476 291.174 261.065 291.81 259.512C292.446 257.958 292.76 256.293 292.733 254.616C292.707 252.939 292.339 251.285 291.654 249.752C290.968 248.22 289.978 246.84 288.742 245.696L170.703 137.41L153.234 154.747Z" fill="#D1D1D1"/>
<path d="M142.744 282.291C138.736 282.295 134.816 281.119 131.482 278.91C128.147 276.702 125.548 273.561 124.014 269.886C122.479 266.21 122.079 262.165 122.862 258.264C123.646 254.362 125.579 250.779 128.416 247.968L130.666 250.201L128.416 247.968L177.21 199.538C177.516 199.236 177.88 198.997 178.281 198.838C178.681 198.678 179.11 198.6 179.542 198.609C179.974 198.617 180.399 198.711 180.793 198.886C181.187 199.061 181.542 199.313 181.836 199.627L205.02 224.49C205.583 225.095 205.889 225.892 205.873 226.716C205.857 227.539 205.52 228.324 204.934 228.907L157.072 276.409C155.192 278.277 152.958 279.758 150.499 280.767C148.04 281.776 145.405 282.294 142.744 282.291ZM179.388 206.366L132.952 252.47C130.356 255.049 128.898 258.547 128.9 262.193C128.902 265.839 130.363 269.334 132.961 271.911C135.56 274.488 139.084 275.935 142.757 275.933C146.431 275.932 149.953 274.482 152.55 271.902L198.211 226.567L179.388 206.366Z" fill="#D1D1D1"/>
<path d="M243.107 189.699C242.299 189.7 241.521 189.397 240.929 188.85L215.878 165.841C215.561 165.55 215.306 165.198 215.129 164.807C214.952 164.416 214.856 163.993 214.848 163.564C214.839 163.135 214.918 162.709 215.08 162.312C215.241 161.914 215.482 161.553 215.788 161.25L231.205 145.949C228.695 138.213 228.364 129.943 230.249 122.034C232.134 114.125 236.161 106.878 241.897 101.077C247.316 95.592 254.087 91.6097 261.537 89.5264C268.987 87.443 276.856 87.3312 284.363 89.2019C284.919 89.335 285.429 89.613 285.84 90.0071C286.25 90.4011 286.548 90.897 286.701 91.4434C286.854 91.9898 286.858 92.5668 286.711 93.115C286.564 93.6631 286.273 94.1624 285.866 94.5612L259.793 120.442C259.241 120.994 258.859 121.69 258.693 122.45C258.526 123.21 258.582 124.001 258.853 124.73L264.307 139.205C264.511 139.743 264.829 140.232 265.24 140.638C265.65 141.044 266.144 141.358 266.687 141.558L281.272 146.936C282.004 147.202 282.798 147.255 283.56 147.09C284.322 146.925 285.02 146.547 285.574 146.002L311.651 120.139C312.053 119.736 312.556 119.446 313.108 119.3C313.66 119.154 314.241 119.157 314.791 119.309C315.342 119.46 315.842 119.755 316.239 120.162C316.636 120.57 316.917 121.075 317.051 121.626C318.969 129.309 318.78 137.361 316.503 144.947C314.227 152.533 309.946 159.376 304.105 164.766C298.264 170.155 291.076 173.895 283.287 175.597C275.498 177.298 267.393 176.9 259.811 174.443L245.375 188.765C245.078 189.062 244.725 189.297 244.336 189.457C243.946 189.618 243.529 189.7 243.107 189.699ZM222.686 163.416L243.022 182.093L256.702 168.52C257.138 168.088 257.69 167.789 258.293 167.66C258.895 167.531 259.523 167.577 260.099 167.792C266.153 170.074 272.691 170.794 279.101 169.883C285.511 168.972 291.584 166.461 296.749 162.585C301.914 158.71 306.003 153.596 308.634 147.723C311.264 141.85 312.349 135.411 311.786 129.009L290.114 150.509C288.691 151.915 286.892 152.888 284.93 153.314C282.968 153.739 280.925 153.6 279.04 152.911L264.424 147.489C263.018 146.972 261.742 146.158 260.685 145.103C259.627 144.048 258.813 142.778 258.299 141.38L252.854 126.932C252.159 125.06 252.017 123.029 252.445 121.08C252.873 119.13 253.854 117.343 255.271 115.927L276.943 94.4183C271.351 93.9162 265.718 94.6547 260.449 96.5804C255.181 98.5061 250.41 101.571 246.482 105.552C241.36 110.74 237.835 117.27 236.321 124.376C234.806 131.482 235.366 138.87 237.932 145.672C238.149 146.244 238.196 146.867 238.066 147.465C237.936 148.063 237.635 148.611 237.199 149.044L222.686 163.416Z" fill="#D1D1D1"/>
<path d="M113.651 26.7077C116.243 27.8019 119.051 27.3106 121.693 27.2838C124.334 27.257 126.958 27.2436 129.599 27.2436C134.729 27.2436 139.859 27.2749 144.989 27.3374C155.384 27.4892 165.776 27.8123 176.165 28.3065C182.102 28.6043 188.038 28.9452 193.972 29.3293C195.286 29.4186 196.402 27.4312 196.402 25.3098C196.402 23.0767 195.29 21.4019 193.972 21.3126C173.2 19.9311 152.417 19.2418 131.624 19.2448C128.654 19.2448 125.684 19.2597 122.714 19.2894C119.758 19.3207 116.527 18.7758 113.66 20.0978C111.698 20.991 111.635 25.8546 113.651 26.7077Z" fill="#D1D1D1"/>
<path d="M76.7121 214.272C78.5391 220.601 81.1311 226.661 83.7546 232.7L76.5546 236.817C73.0581 238.818 68.8821 240.582 65.9256 243.338C65.458 243.794 65.1229 244.366 64.9558 244.995C64.7887 245.624 64.7957 246.286 64.9761 246.911C65.1629 247.515 65.4879 248.068 65.9256 248.528C66.3854 248.99 66.9624 249.322 67.5959 249.487C68.2294 249.652 68.896 249.645 69.5256 249.465C73.3146 248.344 76.8651 245.714 80.2716 243.767L86.8866 239.993C87.7281 242.047 88.5426 244.115 89.2806 246.205C89.9196 247.992 90.5091 249.827 91.0221 251.667C91.5936 253.713 91.8366 255.941 92.8221 257.831C93.5916 259.304 95.5581 259.992 97.1151 259.563C98.8251 259.117 99.7521 257.598 99.9051 255.928C100.09 253.967 99.2661 251.739 98.7486 249.854C98.2311 247.969 97.6596 246.187 97.0251 244.387C96.0396 241.574 94.9281 238.814 93.7716 236.067L111.772 225.795C116.191 223.272 112.222 216.47 107.767 219.002L90.6666 228.778C88.3266 223.343 86.0406 217.881 84.3936 212.182C82.9491 207.323 75.2991 209.386 76.7121 214.272Z" fill="#D1D1D1"/>
<path d="M377.171 253.038C375.821 251.993 374.494 250.769 372.761 250.497C370.484 250.139 367.514 251.993 368.554 254.672C369.715 257.674 372.698 259.456 375.142 261.416L382.234 267.097C383.885 268.437 386.18 268.701 387.796 267.097C389.177 265.726 389.456 262.913 387.796 261.577L380.699 255.883C379.534 254.932 378.364 253.971 377.171 253.038Z" fill="#D1D1D1"/>
<path d="M363.411 238.171C364.244 237.278 364.761 235.938 364.311 234.728C363.51 232.432 361.706 230.824 360.081 229.069L355.631 224.259C352.179 220.534 346.563 226.112 350.033 229.815C351.977 231.899 353.927 233.97 355.883 236.027C357.66 237.925 360.9 240.846 363.411 238.171Z" fill="#D1D1D1"/>
<path d="M320.427 210.543C321.539 212.668 324.162 213.459 326.205 214.446C328.248 215.433 330.318 216.527 332.289 217.729C336.641 220.372 340.713 213.454 336.285 210.945C333.992 209.635 331.603 208.498 329.139 207.541C326.664 206.586 323.924 205.594 321.399 206.858C320.045 207.532 319.784 209.314 320.427 210.543Z" fill="#D1D1D1"/>
<path d="M53.1988 145.971C53.1988 143.818 51.4798 142.433 49.4548 142.255L42.6643 141.67C40.4773 141.478 38.0518 140.969 35.8738 141.223C34.1008 141.438 32.5753 142.416 32.3458 144.314C32.2312 145.163 32.4282 146.025 32.9007 146.743C33.3732 147.46 34.0898 147.985 34.9198 148.222C37.2328 148.923 39.9463 148.856 42.3538 149.061L49.4548 149.678C51.4708 149.861 53.1988 147.855 53.1988 145.971Z" fill="#D1D1D1"/>
<path d="M16.9335 144.702C20.4525 144.372 21.132 139.87 17.7615 138.633C15.5925 137.816 13.05 137.722 10.8 137.11C8.49995 136.495 6.24475 135.725 4.05001 134.805C0.729015 133.425 -1.75499 139.2 1.57951 140.611C4.01336 141.671 6.51656 142.566 9.07201 143.291C11.475 143.97 14.436 144.912 16.9335 144.702Z" fill="#D1D1D1"/>
<path d="M34.1683 80.6625C35.8979 81.1162 37.7236 81.0572 39.4198 80.4928C40.9498 80.0104 42.4753 79.5102 43.9918 78.9743C47.1567 77.8744 50.2355 76.5443 53.2033 74.995C58.5305 72.2529 63.1499 68.33 66.7033 63.5304C70.4968 58.2737 71.4328 52.0345 72.7108 45.8579C73.6783 41.1505 75.0733 35.9207 79.7353 33.5804C81.4453 32.7229 81.9358 30.3291 81.0088 28.757C79.9738 26.9974 77.8858 26.6713 76.1488 27.4931C70.9198 29.9584 67.8148 35.2552 66.1048 40.5342C64.3048 46.099 64.2013 52.2221 61.2088 57.3716C58.6483 61.7841 54.6388 65.0801 50.2198 67.5633C47.5391 69.0344 44.7536 70.3091 41.8858 71.3774C38.7358 72.5877 35.1853 73.213 32.8858 75.8435C31.4998 77.3799 31.9003 80.1399 34.1683 80.6625Z" fill="#D1D1D1"/>
<path d="M76.1668 71.7807C75.8383 74.6345 79.4788 76.1485 81.6748 74.907C83.8708 73.6654 85.1443 71.0214 86.7778 69.1858C88.3999 67.3638 90.1616 65.669 92.0473 64.1168C95.5915 61.217 99.5972 58.9228 103.9 57.3282C105.831 56.6136 107.145 54.7691 106.564 52.6745C106.051 50.8121 103.824 49.3428 101.875 50.0306C96.4563 51.9357 91.3928 54.7185 86.8903 58.2661C84.829 59.8889 82.9097 61.6817 81.1528 63.6255C79.0198 65.9702 76.5403 68.5338 76.1668 71.7807Z" fill="#D1D1D1"/>
<path d="M290.623 336.35C287.352 332.33 281.695 331.834 277.056 333.402C274.504 334.264 272.286 335.724 270.135 337.305C267.336 339.369 270.189 344.241 273.357 342.571C275.35 341.521 277.375 340.28 279.522 339.561C281.124 339.025 282.573 338.94 283.873 339.431C285.075 339.878 285.93 340.494 286.006 341.825C286.101 343.415 285.138 345.041 284.233 346.318C282.005 349.462 279.152 352.12 275.85 354.129C274.086 355.24 272.187 356.122 270.198 356.755C268.524 357.242 267.336 356.965 265.963 355.934C262.678 353.477 259.951 349.788 257.832 346.327C256.005 343.344 253.516 339.114 254.452 335.519C255.352 332.013 258.912 329.798 262.071 328.471C266.256 326.716 270.841 325.845 275.26 324.898C293.26 320.977 312.561 317.074 326.668 304.399C330.061 301.353 333.031 297.883 335.965 294.408C337.428 292.68 338.877 290.933 340.393 289.25C341.491 288.03 342.891 286.615 344.511 286.123C347.449 285.23 347.584 289.196 346.941 291.255C345.663 295.355 342.814 299.191 340.479 302.751C329.679 319.173 317.529 334.684 305.955 350.538L301.549 356.559C299.362 359.551 304.011 362.981 306.193 359.98C312.808 350.896 319.243 341.669 325.899 332.625C332.338 323.835 339.075 315.234 345.249 306.275C346.749 304.113 348.19 301.919 349.573 299.691C350.896 297.566 352.305 295.377 353.052 292.992C354.456 288.472 353.376 282.997 348.799 280.701C343.755 278.169 338.71 281.729 335.344 285.279C331.825 288.991 328.761 293.108 325.188 296.775C310.68 311.67 288.895 315.086 269.509 319.731C264.334 320.977 259.105 322.281 254.659 325.278C250.668 327.958 247.72 332.267 247.734 337.149C247.734 342.473 250.56 347.421 253.453 351.731C256.153 355.777 259.659 360.217 264.042 362.539C269.028 365.187 274.473 362.539 278.824 359.859C282.842 357.428 286.363 354.269 289.206 350.547C292.234 346.483 294.178 340.735 290.623 336.35Z" fill="#D1D1D1"/>
<path d="M306.81 333.527C308.308 332.067 309.908 330.715 311.598 329.48C313.398 328.176 315.459 326.89 315.99 324.625C316.057 324.087 315.943 323.541 315.665 323.074C315.386 322.607 314.959 322.245 314.451 322.044C312.012 321.289 309.568 322.785 307.624 324.165C305.852 325.429 304.175 326.821 302.607 328.328C301.306 329.578 300.883 331.517 302.089 333.013C303.142 334.308 305.505 334.786 306.81 333.527Z" fill="#D1D1D1"/>
<path d="M45.7734 184.694C44.6214 184.095 42.7449 184.288 42.1734 185.636C40.9044 188.472 42.3759 191.152 43.4784 193.832C44.5539 196.427 45.7599 198.963 47.0559 201.46C47.8884 203.059 50.1429 203.528 51.6504 202.652C53.2929 201.697 53.6709 199.709 52.8519 198.097C51.7089 195.864 50.6514 193.564 49.6614 191.246C48.6714 188.928 48.1494 185.918 45.7734 184.694Z" fill="#D1D1D1"/>
<path d="M25.5109 225.612C24.1924 226.259 22.8604 226.889 21.5149 227.474L21.2314 227.604C21.1324 227.443 21.0244 227.291 20.9434 227.157C19.4629 224.522 18.0094 221.735 15.6469 219.774C14.2114 218.582 11.0659 219.167 11.3764 221.53C11.7904 224.656 13.1764 227.336 14.6569 230.109C16.2589 233.048 18.3694 235.509 22.1089 234.714C24.9889 234.106 27.9139 232.539 30.5734 231.324C33.3049 230.078 35.9734 228.707 37.4314 225.964C40.5004 220.136 36.9229 214.353 34.1329 209.288C28.376 198.787 24.8071 187.244 23.6389 175.345C23.4679 173.559 22.2214 172.014 20.2864 172.014C18.5854 172.014 16.7764 173.541 16.9294 175.345C17.7237 185.308 20.0282 195.095 23.7649 204.375C24.7099 206.684 25.7179 208.975 26.8204 211.217C27.9229 213.459 29.2639 215.532 30.2719 217.778C30.9019 219.18 31.4869 221.065 30.7894 222.378C29.9569 223.919 27.0634 224.848 25.5109 225.612Z" fill="#D1D1D1"/>
<path d="M194.53 300.281L202.716 309.526L206.811 314.149C208.107 315.614 209.394 317.538 211.072 318.615C213.426 320.102 215.662 319.128 217.593 317.579C219.091 316.373 220.554 315.122 222.003 313.858C224.901 311.333 227.716 308.719 230.449 306.016C231.799 304.676 233.181 303.309 234.499 301.902C235.818 300.496 237.55 298.906 238.297 297.084C240.12 292.662 235.597 289.33 232.812 286.588C226.224 280.072 219.343 273.77 213.079 266.937C211.815 265.557 209.479 265.682 208.188 266.937C204.885 270.157 201.55 273.328 197.995 276.271C196.312 277.665 194.593 279.005 192.838 280.291C191.092 281.573 189.148 282.694 187.614 284.221C187.348 284.296 187.091 284.401 186.849 284.534C184.248 286.008 184.774 289.08 186.367 291.032C188.95 294.207 191.808 297.204 194.53 300.281ZM196.852 286.083C198.799 284.627 200.712 283.127 202.59 281.582C205.42 279.237 208.179 276.785 210.771 274.177C217.809 280.791 224.437 287.888 231.273 294.69C231.318 294.734 231.363 294.792 231.412 294.85C230.566 295.744 229.707 296.583 228.861 297.459C227.061 299.299 225.261 301.116 223.42 302.889C221.58 304.663 219.69 306.4 217.768 308.097C216.811 308.946 215.845 309.785 214.87 310.616L213.862 311.469L212.4 309.839L209.25 306.333L197.1 292.76C195.858 291.371 194.557 290.009 193.297 288.616C194.526 287.856 195.673 286.963 196.852 286.083Z" fill="#D1D1D1"/>
<path d="M359.191 153.524C356.54 160.518 353.894 167.512 351.091 174.448C350.011 177.128 353.957 179.062 355.793 177.168C369.001 163.515 381.844 149.527 395.101 135.946C395.469 135.56 395.732 135.088 395.866 134.573C395.999 134.059 395.998 133.519 395.863 133.005C395.728 132.491 395.463 132.02 395.094 131.636C394.724 131.252 394.262 130.967 393.751 130.809C388.259 129.268 382.628 128.263 376.939 127.808C379.036 124.557 381.187 121.346 383.423 118.184C384.58 116.554 383.396 114.079 381.556 113.628C375.554 112.132 369.384 111.409 363.196 111.476C362.619 111.456 362.05 111.614 361.567 111.927C361.084 112.24 360.71 112.694 360.496 113.226C360.126 113.448 359.831 113.774 359.65 114.164C355.653 123.137 352.127 132.309 349.088 141.644C348.454 143.578 350.119 145.141 351.896 145.307L357.517 145.838C358.453 145.927 359.389 146.008 360.325 146.079C360.46 146.079 361.288 146.191 361.886 146.249C361.666 146.928 361.396 147.589 361.144 148.268C360.505 150.024 359.854 151.776 359.191 153.524ZM358.556 139.992C357.656 139.92 356.716 139.858 355.793 139.795C358.267 132.239 361.121 124.81 364.343 117.536C368.094 117.661 371.831 118.049 375.526 118.697C373.276 122.047 371.075 125.45 369.014 128.934C367.808 130.966 369.361 133.431 371.656 133.503C376.864 133.708 382.042 134.394 387.122 135.553C378.892 144.485 370.522 153.261 362.201 162.104C363.587 158.668 364.937 155.223 366.251 151.769C367.601 148.232 369.851 143.199 365.18 140.988C363.227 140.059 360.689 140.153 358.556 139.992Z" fill="#D1D1D1"/>
<path d="M305.163 8.63787C303.125 8.70487 301.563 10.0715 299.948 11.1836C296.883 13.3318 293.913 15.6095 290.988 17.9453C287.735 20.5446 284.558 23.2243 281.322 25.8593C279.707 27.1679 278.078 28.4631 276.426 29.7225C275.922 30.1066 275.409 30.5264 274.883 30.9462C274.883 30.906 274.883 30.8703 274.883 30.8301C274.797 29.651 274.716 28.472 274.631 27.2974L274.05 19.5263C273.861 16.936 273.675 14.3456 273.492 11.7552C273.308 9.17381 273.452 6.26189 272.813 3.75639C272.129 1.0767 269.402 -0.812472 266.666 0.35319C264.416 1.31341 262.341 3.42589 260.397 4.90865C256.275 8.03494 252.207 11.2818 248.175 14.5466C246.825 15.6229 246.888 17.8113 248.004 19.0127C249.291 20.3927 251.1 20.1828 252.504 19.1824C255.429 17.0982 258.332 14.9872 261.212 12.8494C262.607 11.8178 264.002 10.7906 265.388 9.72314L266.229 9.08895L266.405 11.4739C266.603 14.0642 266.798 16.6546 266.99 19.2449C267.345 23.9523 267.719 28.664 268.034 33.3758C268.2 35.8545 268.655 38.4806 271.31 39.4765C273.965 40.4725 276.138 38.6994 278.226 37.2077C281.988 34.5281 285.588 31.6072 289.161 28.6774C292.824 25.6717 296.447 22.6079 300.191 19.705C301.016 19.0648 301.844 18.4351 302.675 17.8158C303.125 17.4808 303.741 17.1414 304.295 16.7707L305.145 19.9819C307.503 28.7355 310.05 37.4623 313.101 46.0016C316.571 55.7511 320.184 65.7062 326.241 74.1918C327.267 75.6299 329.67 75.5942 330.962 74.6608C332.519 73.5398 332.762 71.8069 332.114 70.0919C329.544 63.4999 326.3 57.2026 323.613 50.6553C320.927 44.1079 318.519 37.4668 316.35 30.7542C315.261 27.3822 314.231 23.9925 313.2 20.6027C312.711 19.0157 312.227 17.4272 311.747 15.8373C311.202 14.0196 310.779 12.1081 309.537 10.6119C309.019 9.96091 308.352 9.44213 307.591 9.09877C306.83 8.75541 305.998 8.59739 305.163 8.63787Z" fill="#D1D1D1"/>
<path d="M83.785 334.067C95.1205 332.553 105.835 323.572 105.295 311.518C105.167 308.227 104.043 305.05 102.072 302.401C100.1 299.752 97.3704 297.752 94.2385 296.663C88.0735 294.511 81.373 294.939 74.947 295.033C67.747 295.14 60.133 295.243 53.3875 292.412C50.4774 291.226 47.8273 289.491 45.5845 287.302C43.1545 284.855 42.0475 282.028 40.756 278.897C40.5404 278.361 40.1563 277.909 39.661 277.607C39.1656 277.306 38.5854 277.17 38.0065 277.222C37.5417 277.282 37.0988 277.454 36.7161 277.723C36.3334 277.991 36.0226 278.348 35.8105 278.763C35.2642 278.975 34.8069 279.365 34.5141 279.869C34.2212 280.373 34.1102 280.961 34.1995 281.536C35.8465 295.529 41.89 309.338 51.5965 319.686C59.701 328.328 71.3695 335.711 83.785 334.067ZM42.502 292.876C43.2332 293.52 43.9993 294.124 44.797 294.685C50.0395 298.369 56.191 300.2 62.536 300.835C69.133 301.491 75.766 301.058 82.3765 301.098C87.115 301.129 92.9785 301.487 96.3895 305.086C98.275 307.074 99.1165 309.834 99.1255 312.527C99.1312 314.785 98.525 317.003 97.3705 318.949C95.359 322.652 91.309 325.519 87.1105 326.988C84.8983 327.758 82.5697 328.146 80.2255 328.136C77.718 328.101 75.2302 327.691 72.8455 326.921C67.522 325.215 62.8195 322.089 58.72 318.36C51.1877 311.397 45.6003 302.618 42.502 292.876Z" fill="#D1D1D1"/>
<path d="M77.9399 321.589C81.1489 321.772 84.3543 321.174 87.2774 319.847C88.7939 319.142 89.6849 317.498 89.0774 315.868C88.5014 314.399 86.5889 313.398 85.0634 314.108C83.0387 315.093 80.801 315.569 78.5474 315.493C77.3282 315.426 76.1205 315.222 74.9474 314.885C73.4984 314.488 72.2114 313.965 70.7129 314.439C69.3629 314.885 68.8724 316.431 69.2774 317.654C70.2494 320.705 75.1769 321.469 77.9399 321.589Z" fill="#D1D1D1"/>
<path d="M170.486 376.943C172.39 376.853 174.5 376.853 176.336 376.273C180.494 374.96 181.466 370.989 182.407 367.269C184.482 358.921 187.529 350.84 191.488 343.192C192.478 341.307 191.681 338.726 189.44 338.199C183.354 336.708 177.57 334.191 172.34 330.758C169.857 329.11 167.515 327.261 165.338 325.229C162.949 323.023 160.91 320.455 158.476 318.311C156.041 316.167 153.112 318.811 154.277 321.527C155.627 324.653 158.111 327.333 160.478 329.731C163.002 332.232 165.758 334.492 168.709 336.479C173.292 339.607 178.322 342.034 183.631 343.679C181.138 348.888 179.022 354.267 177.299 359.775C176.777 361.472 176.293 363.182 175.846 364.906C175.517 366.184 175.256 367.921 174.775 368.993C174.725 369.109 174.217 369.725 174.406 369.658C173.911 369.926 173.231 369.864 172.705 369.904C170.851 370.041 168.994 370.109 167.134 370.109C163.93 370.109 160.307 370.234 157.288 369.319C154.718 368.542 154.547 365.585 154.07 363.223C152.552 355.657 151.022 348.094 149.48 340.535C148.625 336.381 147.748 332.232 146.879 328.079C145.979 323.755 145.237 319.343 143.99 315.1C143.795 314.42 143.358 313.833 142.761 313.447C142.165 313.06 141.447 312.901 140.741 312.997C139.418 313.193 138.01 314.412 138.172 315.882C138.649 320.174 139.589 324.416 140.422 328.655C141.229 332.823 142.033 336.992 142.834 341.16C144.422 349.4 146.083 357.627 147.739 365.858C148.459 369.431 149.638 372.959 153.049 374.875C156.379 376.751 160.636 376.822 164.362 376.947C166.387 377.022 168.428 377.02 170.486 376.943Z" fill="#D1D1D1"/>
<path d="M165.896 358.574C167.894 358.029 168.596 356.175 168.331 354.322C167.881 351.262 167.962 347.122 165.145 345.211C164.281 344.617 162.638 344.764 161.954 345.617C159.65 348.485 161.117 352.835 161.612 356.157C161.887 358.011 164.249 359.025 165.896 358.574Z" fill="#D1D1D1"/>
<path d="M259.137 43.1571C259.029 40.5534 258.723 37.9496 258.363 35.3727C257.733 30.8172 250.659 31.6881 251.221 36.2659C251.527 38.758 251.725 41.2501 251.869 43.7511C252.013 46.2522 251.757 49.3025 253.971 51.0622C254.449 51.4198 255.031 51.6132 255.629 51.6132C256.227 51.6132 256.809 51.4198 257.287 51.0622C259.65 49.1909 259.249 45.8636 259.137 43.1571Z" fill="#D1D1D1"/>
</svg>
