<svg version="1" xmlns="http://www.w3.org/2000/svg" viewBox="0 0 48 48" enable-background="new 0 0 48 48">
    <path fill="#E8E8E8" d="M41,42H13c-2.2,0-4-1.8-4-4V18c0-2.2,1.8-4,4-4h28c2.2,0,4,1.8,4,4v20C45,40.2,43.2,42,41,42z"/>
    <path fill="#6f346b" d="M35,36H7c-2.2,0-4-1.8-4-4V12c0-2.2,1.8-4,4-4h28c2.2,0,4,1.8,4,4v20C39,34.2,37.2,36,35,36z"/>
    <circle fill="#fff" cx="30" cy="16" r="3"/>
    <polygon fill="#fff" points="17,17.9 8,31 26,31"/>
    <polygon fill="#fff" points="28,24.5 22,31 34,31"/>
</svg>
