<svg width="100" height="62" viewBox="0 0 100 62" fill="none" xmlns="http://www.w3.org/2000/svg">
<path d="M39.6599 50.6632L9.30805 53.3339C4.3486 53.775 -0.0577528 49.851 0.0108315 44.7585V37.7748C-0.0304666 36.4514 1.13473 35.271 2.40022 35.1496L39.6599 31.8708C44.6658 31.3619 48.9615 35.4059 48.9578 40.4492C48.9564 45.5782 44.7513 50.2727 39.6599 50.6632Z" fill="#E62D3B"/>
<path d="M90.7028 45.9634C88.4779 46.1594 62.4719 48.6557 60.2455 48.8517C55.2853 49.2913 50.8797 45.3695 50.9468 40.2741C50.8871 35.1063 55.202 30.5042 60.2455 30.0593C62.4704 29.8633 88.4764 27.3678 90.7028 27.1718C95.7087 26.6621 100.004 30.7069 100 35.7501C99.9993 40.8747 95.7942 45.5781 90.7028 45.9634Z" fill="#6E2C6B"/>
<path d="M59.4248 37.0087C59.4248 36.087 60.2486 35.2203 61.1851 35.1458C61.8924 35.0862 62.6313 35.4521 62.8076 36.1965L62.2132 36.3209C62.1217 36.0296 61.8702 35.6376 61.1807 35.6995C60.8648 35.7219 60.569 35.8642 60.3527 36.098C60.1364 36.3317 60.0157 36.6395 60.0148 36.9595C60.0148 37.6063 60.472 38.0773 61.1807 38.0095C61.3859 37.9895 61.5849 37.9276 61.7657 37.8276C61.9464 37.7275 62.1052 37.5914 62.2323 37.4275L62.7353 37.704C62.5981 37.8791 62.1453 38.4402 61.1807 38.5639C60.2515 38.6824 59.4219 37.9066 59.4248 37.0087Z" fill="white"/>
<path d="M63.9513 34.9774L65.323 34.8441L66.4211 37.97L65.8039 38.0311L65.4624 37.0483C64.767 37.2368 64.4196 37.3299 63.7249 37.517C63.6246 37.815 63.5738 37.9603 63.4735 38.2569L62.8562 38.315L63.9513 34.9774ZM65.2788 36.5579C65.1232 36.1108 65.0457 35.8873 64.8901 35.4402L64.3872 35.4886C64.1947 36.0617 64.0988 36.3478 63.9071 36.9208C64.4543 36.777 64.7286 36.704 65.2773 36.5617L65.2788 36.5579Z" fill="white"/>
<path d="M67.0375 34.6749L67.6777 34.6108L68.7101 36.6973L69.7426 34.3977L70.3827 34.3321C70.512 35.3967 70.6415 36.4613 70.7713 37.5259L70.1769 37.587L69.9026 35.3053L69.0759 37.1488L68.3443 37.2233C68.0147 36.5527 67.8502 36.2196 67.5213 35.5504L67.247 37.888L66.6526 37.9476C66.7789 36.8567 66.9073 35.7658 67.0375 34.6749Z" fill="white"/>
<path d="M72.09 34.1585L73.4617 34.0154L74.559 37.1346L73.9418 37.1995L73.5989 36.2188L71.8614 36.7002C71.7604 36.9983 71.7139 37.1473 71.6099 37.4454L70.9927 37.5087L72.09 34.1585ZM73.4175 35.7293L73.0288 34.6115L72.5259 34.6637C72.3334 35.2382 72.2375 35.5251 72.0458 36.0996L73.4175 35.7293Z" fill="white"/>
<path d="M74.8792 33.8671L77.8511 33.5564V34.619C77.8511 35.1503 77.4396 35.6183 76.7538 35.7502L75.4735 35.9991V37.0386L74.8792 37.1012V33.8671ZM76.7309 35.198C76.9824 35.1481 77.2567 35.0043 77.2567 34.6578V34.1726L75.4735 34.3597V35.4439L76.7309 35.198Z" fill="white"/>
<path d="M78.1712 35.1399C78.1756 34.2152 78.9942 33.3389 79.9315 33.2472C80.6372 33.1786 81.3777 33.5386 81.5539 34.2815L80.9595 34.4119C80.8681 34.1205 80.6166 33.7308 79.9271 33.8016C79.6101 33.8288 79.3146 33.9749 79.0988 34.2111C78.883 34.4473 78.7626 34.7566 78.7611 35.0781C78.7611 35.7249 79.2184 36.1854 79.9271 36.1116C80.1329 36.0884 80.332 36.0236 80.5127 35.9212C80.6933 35.8188 80.8518 35.6809 80.9787 35.5155L81.4816 35.7867C81.3445 35.9626 80.8917 36.5259 79.9271 36.663C79.0015 36.7979 78.1675 36.0401 78.1712 35.1399Z" fill="white"/>
<path d="M81.8752 33.1443L82.4652 33.0839V34.581L84.0463 32.92L84.8465 32.8403L83.4519 34.3194L84.8008 36.0788L84.1149 36.1473L83.0412 34.7539L82.4689 35.3664V36.318L81.8789 36.3783L81.8752 33.1443Z" fill="white"/>
<path d="M86.081 32.7196C86.6297 32.6659 86.904 32.6391 87.4527 32.5869L88.55 35.7166L87.9328 35.7747L87.5898 34.7911C86.8952 34.9774 86.5478 35.0713 85.8524 35.2591C85.7521 35.5571 85.7049 35.7062 85.6009 35.9998L84.9844 36.0609C85.3497 34.9471 85.7152 33.8333 86.081 32.7196ZM87.4084 34.3001C87.2528 33.853 87.1754 33.6294 87.0198 33.1823L86.5168 33.2307C86.3251 33.8038 86.2292 34.0899 86.0367 34.6629L87.4084 34.3001Z" fill="white"/>
<path d="M88.8245 35.6913L89.5619 34.3939C89.0958 34.2844 88.8245 33.9468 88.8245 33.5198V32.4572C89.8146 32.3648 90.8053 32.2752 91.7964 32.1882V35.4223L91.202 35.4744V34.4349H90.1917L89.5103 35.6272C89.236 35.6525 89.0988 35.6674 88.8245 35.6913ZM91.1998 33.879V32.7955C90.4867 32.8581 90.1298 32.8909 89.4166 32.9565V33.4416C89.4166 33.7881 89.691 33.8783 89.9425 33.8783L91.1998 33.879Z" fill="white"/>
<path d="M59.4248 42.5535C59.4248 41.6317 60.2169 40.739 61.1851 40.6906C62.1379 40.6399 62.9506 41.2755 62.9455 42.2368C62.9396 43.2189 62.152 43.9701 61.1851 44.1087C60.2397 44.2413 59.4219 43.4507 59.4248 42.5535ZM62.3511 42.289C62.3511 41.6429 61.871 41.1794 61.1851 41.242C60.8694 41.2644 60.5736 41.4067 60.3574 41.6402C60.1411 41.8738 60.0203 42.1815 60.0192 42.5013C60.0192 43.1481 60.4993 43.6139 61.1851 43.5513C61.5014 43.5288 61.7976 43.3861 62.0139 43.1519C62.2303 42.9177 62.3507 42.6093 62.3511 42.289Z" fill="white"/>
<path d="M63.3569 40.5781C64.2714 40.4912 65.1858 40.4025 66.1003 40.3121V40.8665C65.3835 40.9375 64.6672 41.0073 63.9513 41.0759V41.5841L65.2316 41.5751C65.9174 41.5684 66.3289 41.9298 66.3289 42.4611C66.3289 42.9924 65.9602 43.5595 65.2316 43.631C64.4816 43.7056 64.1069 43.7406 63.3569 43.8114V40.5781ZM65.2087 43.0789C65.483 43.0521 65.7345 42.8889 65.7345 42.5424C65.7345 42.1959 65.4602 42.1072 65.2087 42.1087L63.955 42.1154V43.2003C64.4543 43.1527 64.7058 43.1281 65.2087 43.0789Z" fill="white"/>
<path d="M67.5635 40.166L68.8437 40.0371C69.2243 41.0759 69.6053 42.1149 69.9868 43.1541L69.3695 43.2167C69.0568 42.3722 68.7444 41.5277 68.4322 40.6832L67.975 40.7294L67.0377 43.4567L66.4204 43.5178C66.8019 42.4 67.1829 41.2828 67.5635 40.166Z" fill="white"/>
<path d="M71.2211 39.7927L72.5928 39.6503L73.6902 42.7696L73.0729 42.8337L72.73 41.8523L70.9932 42.3344C70.8922 42.6325 70.8458 42.7815 70.7418 43.0759L70.1245 43.1399L71.2211 39.7927ZM72.5486 41.3642L72.1599 40.2465L71.657 40.2986C71.4645 40.8724 71.3686 41.16 71.1769 41.7338L72.5486 41.3642Z" fill="white"/>
<path d="M73.648 41.1578C73.6524 40.233 74.471 39.3567 75.4083 39.2636C76.1133 39.1943 76.8545 39.552 77.0307 40.2949L76.4363 40.4268C76.3449 40.1362 76.0934 39.7465 75.4039 39.818C75.0868 39.8453 74.7913 39.9916 74.5756 40.2279C74.3598 40.4643 74.2394 40.7737 74.238 41.0952C74.238 41.742 74.6952 42.2025 75.4039 42.128C75.6097 42.1047 75.8089 42.04 75.9895 41.9376C76.1701 41.8352 76.3286 41.6972 76.4555 41.5319L76.9585 41.8024C76.8213 41.9782 76.3685 42.5431 75.4039 42.6809C74.4747 42.8158 73.6406 42.0542 73.648 41.1578Z" fill="white"/>
<path d="M78.3081 39.6071L77.165 39.7263V39.1696L80.0456 38.8716V39.426L78.9025 39.5445V42.2271L78.3081 42.2889V39.6071Z" fill="white"/>
<path d="M80.4116 38.8344L81.006 38.7733V39.6742L82.2863 39.6586C82.9721 39.6489 83.3836 40.0312 83.3836 40.6333C83.3836 41.2354 83.0149 41.8017 82.2863 41.8762C81.537 41.9507 81.1616 41.991 80.4116 42.0685V38.8344ZM82.2634 41.324C82.5377 41.2957 82.7892 41.1318 82.7892 40.716C82.7892 40.3002 82.5149 40.213 82.2634 40.2152L81.0097 40.2286V41.4529L82.2634 41.324Z" fill="white"/>
<path d="M66.7897 27.3387L2.39136 33.002C1.15463 33.1138 -0.0555499 32.0966 0.00197231 30.797V23.6866C-0.0570249 18.4451 4.31319 13.7804 9.43046 13.3288L66.7897 8.28182C71.8657 7.76467 76.2219 11.8661 76.2182 16.9801C76.2182 22.1799 71.952 26.9438 66.7897 27.3387Z" fill="#0094B3"/>
<path d="M6.79469 22.5591C6.80133 20.0256 8.8736 17.9473 11.3382 17.7461C13.2667 17.5889 15.0359 18.4965 15.5277 20.4786L13.9938 20.7923C13.6443 19.647 12.4739 19.042 11.3389 19.1776C9.72833 19.3691 8.33673 20.7208 8.32936 22.4235C8.32198 24.1262 9.71136 25.2708 11.3389 25.1404C12.3581 25.0592 13.4156 24.4697 14.0536 23.6501L15.3515 24.3706C14.3677 25.6777 12.9569 26.4169 11.3389 26.5726C8.91785 26.8051 6.78806 25.0681 6.79469 22.5591Z" fill="white"/>
<path d="M18.8332 18.7566L15.8833 19.0159V17.5852L23.3184 16.931V18.3617L20.3686 18.6218V25.5391L18.8346 25.674L18.8332 18.7566Z" fill="white"/>
<path d="M26.387 25.0116L28.0389 22.0033L23.6724 16.9019L25.6193 16.7305L28.8641 20.4996L31.224 16.2372L32.9939 16.0815L28.0979 24.8625L26.387 25.0116Z" fill="white"/>
<path d="M31.9343 23.0897L32.9727 22.9996L35.1209 15.8929L38.6607 15.5814L40.809 22.3095L41.8473 22.2179C41.7092 23.2045 41.5715 24.1908 41.4343 25.1769L39.9012 25.3096L40.1371 23.7976L33.6475 24.3692L33.8834 25.8394L32.3503 25.9758C32.2106 25.0135 32.072 24.0515 31.9343 23.0897ZM39.2758 22.4437L37.5995 17.2275L36.1851 17.349L34.5088 22.8632L39.2758 22.4437Z" fill="white"/>
<path d="M42.7935 15.2171L49.8731 14.5941V16.0248L44.3274 16.5166V17.8885L48.5177 17.5196V18.9511L44.3274 19.3192V22.0018L49.8746 21.5093V22.94L42.7949 23.5637L42.7935 15.2171Z" fill="white"/>
<path d="M51.0552 14.4898L52.5891 14.3549V16.7395L56.9564 16.3549V13.9704L58.491 13.834V22.1799L56.9564 22.3148V17.7872L52.5891 18.1717V22.7015L51.0552 22.8364V14.4898Z" fill="white"/>
<path d="M62.3857 14.9242L59.4358 15.1835V13.7528L66.8716 13.0986V14.5293L63.9218 14.7894V21.7067L62.3871 21.8416L62.3857 14.9242Z" fill="white"/>
<path d="M6.79468 39.4327L13.1671 38.8716V40.3031L8.3286 40.7285V47.6459L6.79468 47.7808V39.4327Z" fill="white"/>
<path d="M13.522 43.0155C13.5286 40.4819 15.6415 38.4491 18.0655 38.2025C20.4896 37.9558 22.6135 39.701 22.6098 42.2159C22.6098 44.7681 20.5338 46.836 18.0655 47.029C15.6783 47.2175 13.5154 45.5245 13.522 43.0155ZM21.0758 42.3508C21.081 40.6719 19.6946 39.4841 18.0655 39.6339C16.4069 39.783 15.0618 41.1764 15.0559 42.8806C15.0508 44.5595 16.4364 45.7473 18.0655 45.5975C19.7248 45.4447 21.067 44.0557 21.0758 42.3508Z" fill="white"/>
<path d="M22.8457 44.9381L23.8848 44.8472C24.6006 42.478 25.3165 40.1091 26.0323 37.7405L29.5721 37.429L31.7204 44.1571L32.7587 44.0662C32.621 45.0523 32.4834 46.0384 32.3457 47.0245L30.8111 47.1594L31.0471 45.6475L24.5574 46.219L24.7934 47.6892L23.2587 47.8241C23.1215 46.8623 22.9839 45.9003 22.8457 44.9381ZM30.1872 44.2927C29.6291 42.554 29.0704 40.8153 28.5109 39.0766L27.095 39.201C26.536 41.0391 25.9772 42.8772 25.4187 44.7153L30.1872 44.2927Z" fill="white"/>
<path d="M36.0648 36.8597L39.6046 36.5482L42.4387 44.6452L40.845 44.786L39.9601 42.2398L35.4748 43.4097L34.8258 45.3151L33.2351 45.4559C34.1781 42.5895 35.1213 39.7241 36.0648 36.8597ZM39.4881 40.9715C39.1533 40.0073 38.8187 39.0428 38.4844 38.078L37.1864 38.1921C36.7735 39.4216 36.3602 40.6509 35.9468 41.8799L39.4881 40.9715Z" fill="white"/>
</svg>
