<svg width="267" height="119" viewBox="0 0 267 119" fill="none" xmlns="http://www.w3.org/2000/svg">
<path d="M105.991 111.869C79.0791 114.217 52.1668 116.564 25.2565 118.912C12.0641 120.073 0.343104 109.73 0.52554 96.2937C0.52554 90.1573 0.52554 84.0209 0.52554 77.8845C0.415686 74.3929 3.51514 71.2805 6.88335 70.9622C39.92 68.0797 72.9567 65.1992 105.993 62.3167C119.309 60.9727 130.738 71.6381 130.728 84.9365C130.722 98.4511 119.537 110.848 105.991 111.869Z" fill="white"/>
<path d="M241.769 99.4788C235.851 99.9955 166.674 106.578 160.756 107.093C147.563 108.254 135.84 97.9108 136.023 84.4748C135.862 70.8483 147.34 58.713 160.756 57.54C166.674 57.0232 235.851 50.4408 241.769 49.926C255.085 48.582 266.51 59.2475 266.5 72.5459C266.498 86.0585 255.313 98.457 241.769 99.4788Z" fill="white"/>
<path d="M158.568 75.8666C158.578 73.436 160.76 71.1528 163.251 70.9445C165.132 70.7873 167.098 71.7541 167.569 73.715C166.937 73.8467 166.619 73.9135 165.988 74.0432C165.744 73.2729 165.075 72.2394 163.251 72.4044C161.427 72.5695 160.15 74.0215 160.15 75.7251C160.15 77.4306 161.366 78.6646 163.251 78.4937C164.771 78.3561 165.683 77.4189 166.048 76.9591C166.584 77.2518 166.851 77.3972 167.386 77.688C167.021 78.1478 165.819 79.6274 163.251 79.9555C160.767 80.2778 158.561 78.2323 158.568 75.8666Z" fill="black"/>
<path d="M170.609 70.5084C172.069 70.3689 172.798 70.3002 174.258 70.1587C175.231 72.9056 176.204 75.6525 177.177 78.4014C176.52 78.4663 176.192 78.4977 175.535 78.5625C175.17 77.527 174.988 77.0083 174.623 75.9709C172.775 76.468 171.849 76.7136 170.001 77.2068C169.734 77.9868 169.599 78.3778 169.332 79.1579C168.675 79.2188 168.347 79.2503 167.69 79.3112C168.663 76.3756 169.636 73.442 170.609 70.5084ZM174.136 74.676C173.722 73.497 173.516 72.9095 173.102 71.7306C172.567 71.7817 172.3 71.8072 171.765 71.8583C171.255 73.3693 170.998 74.1238 170.488 75.6349C171.947 75.2537 172.677 75.0611 174.136 74.676Z" fill="black"/>
<path d="M178.819 69.7107C179.5 69.6439 179.841 69.6085 180.522 69.5417C181.434 71.3789 182.346 73.216 183.258 75.0532C184.17 73.0313 185.083 71.0114 185.995 68.9896C186.676 68.9208 187.017 68.8854 187.698 68.8167C188.043 71.6245 188.386 74.4304 188.731 77.2382C188.1 77.303 187.784 77.3345 187.15 77.3993C186.907 75.3932 186.664 73.389 186.42 71.3828C185.546 73.3241 185.106 74.2928 184.231 76.2341C183.452 76.3127 183.064 76.352 182.285 76.4306C181.41 74.6661 180.971 73.7839 180.096 72.0214C179.853 74.0767 179.61 76.13 179.366 78.1853C178.735 78.2481 178.417 78.2796 177.785 78.3425C178.128 75.4639 178.474 72.5873 178.819 69.7107Z" fill="black"/>
<path d="M192.258 68.3489C193.718 68.1976 194.448 68.123 195.907 67.9717C196.88 70.7127 197.853 73.4537 198.826 76.1967C198.169 76.2655 197.841 76.2989 197.184 76.3677C196.819 75.3341 196.637 74.8154 196.272 73.7819C194.424 74.2908 193.498 74.5443 191.65 75.0512C191.383 75.8332 191.248 76.2262 190.981 77.0082C190.324 77.075 189.997 77.1104 189.339 77.1772C190.312 74.2338 191.285 71.2924 192.258 68.3489ZM195.785 72.4929C195.372 71.3179 195.166 70.7304 194.752 69.5554C194.216 69.6104 193.949 69.6379 193.414 69.6929C192.904 71.2079 192.647 71.9643 192.137 73.4793C193.596 73.0843 194.326 72.8878 195.785 72.4929Z" fill="black"/>
<path d="M199.677 67.5828C202.312 67.3097 204.949 67.0346 207.583 66.7634C207.583 67.8834 207.583 68.4434 207.583 69.5654C207.583 70.9663 206.488 72.2003 204.664 72.5481C203.303 72.8114 202.62 72.943 201.259 73.2063C201.259 74.3027 201.259 74.8509 201.259 75.9473C200.627 76.0122 200.309 76.0456 199.677 76.1124C199.677 73.2672 199.677 70.424 199.677 67.5828ZM204.603 71.0901C205.272 70.9604 206.002 70.5793 206.002 69.6656C206.002 69.1547 206.002 68.8973 206.002 68.3864C204.105 68.5829 203.156 68.6812 201.259 68.8796C201.259 70.0252 201.259 70.5969 201.259 71.7425C202.596 71.4811 203.265 71.3515 204.603 71.0901Z" fill="black"/>
<path d="M208.434 70.9367C208.444 68.5002 210.622 66.1895 213.117 65.9478C214.994 65.767 216.964 66.7141 217.435 68.6731C216.803 68.8107 216.485 68.8794 215.853 69.017C215.61 68.2507 214.941 67.2211 213.117 67.4097C211.293 67.5964 210.015 69.0681 210.015 70.7736C210.015 72.4791 211.232 73.6934 213.117 73.5009C214.637 73.3457 215.549 72.3986 215.914 71.9349C216.45 72.2217 216.717 72.3652 217.252 72.652C216.887 73.1158 215.681 74.6012 213.117 74.9628C210.643 75.3106 208.425 73.3024 208.434 70.9367Z" fill="black"/>
<path d="M218.286 65.6767C218.918 65.6118 219.235 65.5804 219.867 65.5175C219.867 67.0953 219.867 67.8852 219.867 69.465C221.266 68.0051 222.664 66.5452 224.063 65.0872C224.914 65.0027 225.34 64.9614 226.191 64.877C224.708 66.4351 223.965 67.2152 222.482 68.7773C223.679 70.3236 224.875 71.87 226.07 73.4164C225.34 73.4891 224.975 73.5245 224.245 73.5972C223.102 72.1274 222.531 71.3925 221.387 69.9228C220.779 70.5693 220.475 70.8915 219.867 71.538C219.867 72.542 219.867 73.0431 219.867 74.0471C219.235 74.11 218.918 74.1434 218.286 74.2063C218.286 71.3611 218.286 68.5179 218.286 65.6767Z" fill="black"/>
<path d="M229.475 64.5548C230.935 64.4134 231.665 64.3446 233.124 64.2051C234.097 66.9559 235.07 69.7068 236.043 72.4576C235.386 72.5185 235.058 72.55 234.401 72.6109C234.036 71.5734 233.854 71.0547 233.489 70.0172C231.641 70.5085 230.715 70.756 228.867 71.2512C228.6 72.0332 228.465 72.4223 228.198 73.2043C227.541 73.2691 227.214 73.3006 226.556 73.3654C227.529 70.4279 228.502 67.4923 229.475 64.5548ZM233.002 68.7243C232.589 67.5454 232.383 66.9559 231.969 65.777C231.433 65.8281 231.166 65.8536 230.631 65.9047C230.121 67.4157 229.864 68.1702 229.354 69.6812C230.813 69.2981 231.543 69.1055 233.002 68.7243Z" fill="black"/>
<path d="M236.773 72.3908C237.555 71.0213 237.948 70.3375 238.73 68.9699C237.491 68.6811 236.773 67.7969 236.773 66.6651C236.773 65.5451 236.773 64.9851 236.773 63.8631C239.407 63.6195 242.042 63.3837 244.676 63.1538C244.676 65.997 244.676 68.8383 244.676 71.6815C244.045 71.7365 243.727 71.764 243.095 71.819C243.095 70.7226 243.095 70.1744 243.095 69.078C242.02 69.076 241.483 69.074 240.408 69.074C239.684 70.3335 239.321 70.9623 238.595 72.2238C237.867 72.2906 237.502 72.324 236.773 72.3908ZM243.097 67.6181C243.097 66.4725 243.097 65.9007 243.097 64.7552C241.2 64.9222 240.251 65.0067 238.354 65.1796C238.354 65.6905 238.354 65.9479 238.354 66.4588C238.354 67.3724 239.084 67.6102 239.753 67.6102C241.09 67.6122 241.759 67.6141 243.097 67.6181Z" fill="black"/>
<path d="M158.568 90.4874C158.578 88.0568 160.673 85.7009 163.251 85.5653C165.785 85.4317 167.947 87.1078 167.933 89.6425C167.92 92.2322 165.825 94.2148 163.251 94.5803C160.734 94.9359 158.561 92.8531 158.568 90.4874ZM166.352 89.7898C166.352 88.0843 165.075 86.8621 163.251 87.0272C161.427 87.1922 160.15 88.6443 160.15 90.3498C160.15 92.0554 161.427 93.2834 163.251 93.1184C165.075 92.9533 166.352 91.4954 166.352 89.7898Z" fill="black"/>
<path d="M169.028 85.2767C171.461 85.0487 173.893 84.8149 176.326 84.5752C176.326 85.1607 176.326 85.4515 176.326 86.0371C174.421 86.2237 172.516 86.4084 170.609 86.5892C170.609 87.1256 170.609 87.3929 170.609 87.9293C171.971 87.9214 172.653 87.9175 174.015 87.9077C175.839 87.89 176.934 88.841 176.934 90.242C176.934 91.6429 175.961 93.1402 174.015 93.3288C172.02 93.5214 171.023 93.6176 169.028 93.8043C169.028 90.9611 169.028 88.1199 169.028 85.2767ZM173.952 91.8728C174.682 91.8021 175.351 91.3718 175.351 90.4581C175.351 89.5444 174.621 89.3106 173.952 89.3145C172.614 89.3224 171.945 89.3263 170.607 89.3302C170.607 90.4758 170.607 91.0476 170.607 92.1931C171.947 92.0654 172.616 92.0005 173.952 91.8728Z" fill="black"/>
<path d="M180.218 84.192C181.579 84.0564 182.262 83.9876 183.623 83.8501C184.637 86.5892 185.649 89.3302 186.664 92.0692C186.006 92.136 185.679 92.1694 185.022 92.2363C184.19 90.0061 183.36 87.7759 182.528 85.5438C182.042 85.593 181.799 85.6165 181.312 85.6657C180.48 88.0628 179.651 90.46 178.819 92.8572C178.162 92.922 177.834 92.9554 177.177 93.0183C178.189 90.0768 179.203 87.1334 180.218 84.192Z" fill="black"/>
<path d="M189.948 83.2056C191.407 83.0563 192.137 82.9816 193.596 82.8303C194.569 85.5714 195.542 88.3144 196.515 91.0554C195.858 91.1242 195.53 91.1576 194.873 91.2244C194.508 90.1908 194.326 89.6721 193.961 88.6386C192.113 89.1455 191.187 89.399 189.339 89.9059C189.073 90.6879 188.937 91.079 188.67 91.863C188.013 91.9298 187.686 91.9632 187.029 92.03C188.002 89.0905 188.975 86.149 189.948 83.2056ZM193.475 87.3496C193.061 86.1746 192.855 85.5871 192.441 84.4101C191.905 84.4651 191.639 84.4926 191.103 84.5476C190.593 86.0626 190.336 86.8191 189.826 88.334C191.285 87.941 192.015 87.7445 193.475 87.3496Z" fill="black"/>
<path d="M196.394 86.8053C196.403 84.3669 198.583 82.0562 201.076 81.8125C202.952 81.6278 204.923 82.5729 205.394 84.5319C204.762 84.6714 204.444 84.7402 203.813 84.8777C203.569 84.1114 202.901 83.0838 201.076 83.2744C199.252 83.463 197.975 84.9367 197.975 86.6422C197.975 88.3478 199.191 89.5621 201.076 89.3656C202.596 89.2084 203.509 88.2613 203.874 87.7956C204.409 88.0805 204.676 88.224 205.211 88.5089C204.847 88.9726 203.64 90.462 201.076 90.8255C198.602 91.1772 196.384 89.1691 196.394 86.8053Z" fill="black"/>
<path d="M208.799 82.7164C207.583 82.8422 206.975 82.9051 205.759 83.0308C205.759 82.4453 205.759 82.1545 205.759 81.5689C208.313 81.3037 210.867 81.0404 213.421 80.7791C213.421 81.3646 213.421 81.6554 213.421 82.2409C212.205 82.3647 211.597 82.4276 210.38 82.5534C210.38 84.9093 210.38 87.2632 210.38 89.6191C209.749 89.684 209.431 89.7174 208.799 89.7822C208.799 87.4263 208.799 85.0724 208.799 82.7164Z" fill="black"/>
<path d="M214.394 80.6787C215.026 80.6139 215.344 80.5824 215.975 80.5176C215.975 81.4686 215.975 81.9421 215.975 82.8931C217.337 82.8755 218.019 82.8676 219.381 82.8519C221.205 82.8263 222.3 83.8382 222.3 85.422C222.3 87.0057 221.327 88.5029 219.381 88.6994C217.386 88.8998 216.389 89.002 214.394 89.2063C214.394 86.3631 214.394 83.5219 214.394 80.6787ZM219.32 87.2434C220.05 87.1707 220.718 86.7365 220.718 85.6401C220.718 84.5436 219.989 84.3118 219.32 84.3197C217.982 84.3334 217.313 84.3393 215.975 84.355C215.975 85.646 215.975 86.2924 215.975 87.5833C217.313 87.4458 217.982 87.379 219.32 87.2434Z" fill="black"/>
<path d="M178.164 50.3682C121.063 55.3492 63.9624 60.3302 6.86378 65.3092C3.57404 65.604 0.354921 62.9219 0.507932 59.4951C0.507932 53.2428 0.507932 46.9905 0.507932 40.7362C0.350997 26.9152 11.9759 14.6149 25.588 13.4242C76.4446 8.98941 127.303 4.55268 178.164 0.115942C191.668 -1.24573 203.254 9.56709 203.244 23.0522C203.24 36.7652 191.899 49.3248 178.164 50.3682Z" fill="white"/>
<path d="M18.5711 37.763C18.5887 31.0824 24.103 25.6043 30.657 25.0737C35.7868 24.6591 40.4929 27.0524 41.8013 32.279C40.1692 32.6111 39.3531 32.7761 37.7191 33.1062C36.7892 30.0862 33.676 28.4907 30.655 28.8483C26.3707 29.3533 22.669 32.9176 22.6494 37.4094C22.6298 41.8834 26.3256 44.9153 30.655 44.5734C33.3661 44.3592 36.1811 42.8109 37.876 40.6416C39.257 41.402 39.9475 41.7812 41.3285 42.5417C38.7097 45.9861 34.957 47.9353 30.655 48.3479C24.2188 48.961 18.5534 44.3788 18.5711 37.763Z" fill="black"/>
<path d="M50.5936 27.7364C47.9767 27.9643 45.3618 28.1922 42.7449 28.4202C42.7449 26.9111 42.7449 26.1566 42.7449 24.6456C49.3381 24.0699 55.9313 23.4961 62.5245 22.9204C62.5245 24.4294 62.5245 25.184 62.5245 26.695C59.9076 26.9229 57.2927 27.1508 54.6758 27.3788C54.6758 33.4581 54.6758 39.5395 54.6758 45.6189C53.0437 45.7604 52.2276 45.8331 50.5955 45.9745C50.5936 39.8971 50.5936 33.8158 50.5936 27.7364Z" fill="black"/>
<path d="M70.6851 44.2239C72.1504 41.5791 73.6158 38.9363 75.0812 36.2916C71.2088 31.8077 67.3365 27.3218 63.4641 22.8379C65.5356 22.6572 66.5714 22.5668 68.6449 22.386C71.5227 25.6988 74.4005 29.0116 77.2783 32.3244C79.3714 28.5774 81.4645 24.8303 83.5576 21.0833C85.4408 20.9182 86.3824 20.8377 88.2676 20.6726C83.9244 28.3888 79.5813 36.1069 75.2381 43.823C73.4177 43.9861 72.5075 44.0647 70.6851 44.2239Z" fill="black"/>
<path d="M85.4429 39.1643C86.5473 39.068 87.1005 39.0189 88.2049 38.9226C90.1097 32.6762 92.0145 26.4298 93.9193 20.1834C97.058 19.9103 100.199 19.6352 103.337 19.3621C105.242 25.2764 107.147 31.1907 109.052 37.1051C110.156 37.0088 110.709 36.9597 111.814 36.8634C111.447 39.4629 111.082 42.0645 110.715 44.664C109.083 44.8055 108.267 44.8782 106.633 45.0197C106.884 43.4261 107.01 42.6284 107.261 41.0329C101.505 41.5359 95.7496 42.037 89.992 42.54C90.2431 44.0903 90.3687 44.8664 90.6197 46.4167C88.9876 46.5582 88.1716 46.6309 86.5375 46.7724C86.1746 44.2357 85.8097 41.699 85.4429 39.1643ZM104.971 37.4607C103.484 32.8727 101.999 28.2847 100.513 23.6966C99.0059 23.8283 98.2527 23.8931 96.7441 24.0248C95.2572 28.8722 93.7722 33.7196 92.2852 38.565C96.5146 38.1976 100.744 37.8282 104.971 37.4607Z" fill="black"/>
<path d="M114.327 18.4032C120.606 17.8549 126.885 17.3087 133.165 16.7605C133.165 18.2695 133.165 19.0241 133.165 20.5351C128.247 20.9634 123.327 21.3937 118.409 21.8221C118.409 23.2682 118.409 23.9913 118.409 25.4394C122.124 25.1152 125.84 24.791 129.555 24.4668C129.555 25.9759 129.555 26.7304 129.555 28.2414C125.84 28.5656 122.124 28.8898 118.409 29.214C118.409 31.5719 118.409 33.9317 118.409 36.2896C123.327 35.8612 128.247 35.4309 133.165 35.0026C133.165 36.5116 133.165 37.2661 133.165 38.7772C126.885 39.3254 120.606 39.8716 114.327 40.4198C114.327 33.079 114.327 25.742 114.327 18.4032Z" fill="black"/>
<path d="M136.305 16.4854C137.937 16.344 138.753 16.2713 140.387 16.1298C140.387 18.2263 140.387 20.3229 140.387 22.4194C144.26 22.0815 148.132 21.7435 152.005 21.4055C152.005 19.309 152.005 17.2124 152.005 15.1159C153.637 14.9744 154.453 14.9017 156.085 14.7603C156.085 22.0991 156.085 29.4361 156.085 36.775C154.453 36.9164 153.637 36.9891 152.005 37.1306C152.005 33.1478 152.005 29.1629 152.005 25.1801C148.132 25.5181 144.26 25.856 140.387 26.194C140.387 30.1768 140.387 34.1616 140.387 38.1445C138.755 38.286 137.939 38.3587 136.305 38.5001C136.305 31.1632 136.305 23.8243 136.305 16.4854Z" fill="black"/>
<path d="M166.445 17.6309C163.828 17.8588 161.213 18.0868 158.596 18.3147C158.596 16.8056 158.596 16.0511 158.596 14.5401C165.189 13.9644 171.782 13.3907 178.374 12.8149C178.374 14.324 178.374 15.0785 178.374 16.5895C175.757 16.8174 173.142 17.0454 170.525 17.2733C170.525 23.3527 170.525 29.434 170.525 35.5134C168.893 35.6549 168.077 35.7276 166.445 35.8691C166.445 29.7916 166.445 23.7123 166.445 17.6309Z" fill="black"/>
<path d="M18.571 82.2584C24.2227 81.7652 29.8723 81.272 35.5239 80.7788C35.5239 82.2878 35.5239 83.0424 35.5239 84.5534C31.2337 84.9267 26.9435 85.302 22.6533 85.6753C22.6533 91.7547 22.6533 97.8361 22.6533 103.915C21.0212 104.057 20.2051 104.13 18.573 104.271C18.571 96.9342 18.571 89.5953 18.571 82.2584Z" fill="black"/>
<path d="M36.4656 91.7037C36.4833 85.021 42.1035 79.6628 48.5515 79.0124C55.0015 78.362 60.6473 82.9618 60.6394 89.5953C60.6296 96.3251 55.1173 101.768 48.5515 102.287C42.2016 102.788 36.448 98.3214 36.4656 91.7037ZM56.5572 89.9529C56.5729 85.526 52.8849 82.394 48.5515 82.7889C44.1378 83.1917 40.5616 86.8543 40.5459 91.35C40.5302 95.7769 44.2182 98.9089 48.5515 98.514C52.9653 98.1112 56.5415 94.4466 56.5572 89.9529Z" fill="black"/>
<path d="M61.2671 96.7751C62.3715 96.6788 62.9247 96.6297 64.0291 96.5334C65.9339 90.287 67.8387 84.0406 69.7435 77.7942C72.8822 77.5211 76.0229 77.246 79.1615 76.9729C81.0663 82.8872 82.9711 88.8016 84.8759 94.7159C85.9803 94.6196 86.5335 94.5705 87.638 94.4742C87.2711 97.0738 86.9063 99.6753 86.5394 102.275C84.9073 102.416 84.0912 102.489 82.4572 102.631C82.7083 101.037 82.8338 100.239 83.0849 98.6457C77.3293 99.1487 71.5738 99.6498 65.8182 100.153C66.0693 101.703 66.1948 102.479 66.4459 104.03C64.8138 104.171 63.9977 104.244 62.3637 104.385C61.9988 101.847 61.6339 99.3118 61.2671 96.7751ZM80.7956 95.0716C79.3087 90.4835 77.8237 85.8955 76.3367 81.3075C74.8302 81.4391 74.0769 81.504 72.5683 81.6356C71.0814 86.483 69.5964 91.3304 68.1094 96.1758C72.3388 95.8084 76.5682 95.439 80.7956 95.0716Z" fill="black"/>
<path d="M96.4303 75.4659C99.569 75.1927 102.71 74.9177 105.848 74.6445C108.359 81.7633 110.872 88.8821 113.383 96.001C111.688 96.1483 110.841 96.223 109.144 96.3704C108.359 94.1323 107.575 91.8943 106.79 89.6563C102.814 90.684 98.8354 91.7136 94.859 92.7412C94.1685 94.7513 93.8233 95.7553 93.1327 97.7654C91.4379 97.9128 90.5904 97.9875 88.8936 98.1348C91.4065 90.5818 93.9194 83.0248 96.4303 75.4659ZM105.534 86.3081C104.646 83.7656 103.755 81.221 102.867 78.6785C101.486 78.7983 100.795 78.8592 99.4121 78.9791C98.3135 82.2192 97.215 85.4613 96.1165 88.7014C99.2571 87.9056 102.396 87.1079 105.534 86.3081Z" fill="black"/>
</svg>
