<svg width="584" height="380" viewBox="0 0 584 380" fill="none" xmlns="http://www.w3.org/2000/svg">
<path d="M275.187 279.639C223.408 284.196 171.63 288.75 119.854 293.307C94.4726 295.561 71.9215 275.485 72.2725 249.407C72.2725 237.497 72.2725 225.587 72.2725 213.677C72.0612 206.9 78.0245 200.859 84.5049 200.241C148.067 194.646 211.629 189.055 275.191 183.461C300.811 180.852 322.799 201.553 322.78 227.364C322.769 253.595 301.245 277.655 275.187 279.639Z" fill="#E62D3B"/>
<path d="M536.418 255.586C525.031 256.589 391.936 269.364 380.549 270.364C355.168 272.618 332.613 252.542 332.964 226.464C332.654 200.016 354.737 176.463 380.549 174.186C391.936 173.183 525.031 160.407 536.418 159.408C562.038 156.799 584.019 177.5 584 203.311C583.996 229.542 562.479 253.602 536.418 255.586Z" fill="#6E2C6B"/>
<path d="M376.345 209.76C376.364 205.043 380.561 200.611 385.354 200.207C388.973 199.902 392.755 201.778 393.661 205.584C392.446 205.84 391.834 205.969 390.619 206.221C390.151 204.726 388.864 202.72 385.354 203.04C381.844 203.361 379.387 206.179 379.387 209.486C379.387 212.796 381.727 215.191 385.354 214.859C388.279 214.592 390.034 212.773 390.736 211.881C391.766 212.449 392.28 212.731 393.31 213.296C392.608 214.188 390.294 217.06 385.354 217.697C380.572 218.318 376.326 214.352 376.345 209.76Z" fill="white"/>
<path d="M399.507 199.356C402.315 199.086 403.719 198.952 406.527 198.677C408.399 204.009 410.271 209.341 412.143 214.676C410.879 214.802 410.248 214.863 408.984 214.989C408.282 212.979 407.931 211.972 407.229 209.958C403.674 210.923 401.892 211.4 398.337 212.357C397.824 213.871 397.563 214.63 397.05 216.144C395.786 216.262 395.155 216.323 393.891 216.442C395.763 210.748 397.635 205.054 399.507 199.356ZM406.293 207.449C405.497 205.161 405.1 204.02 404.304 201.732C403.274 201.831 402.76 201.881 401.73 201.98C400.749 204.913 400.254 206.377 399.273 209.31C402.081 208.57 403.485 208.196 406.293 207.449Z" fill="white"/>
<path d="M415.302 197.812C416.612 197.682 417.269 197.614 418.579 197.484C420.334 201.05 422.089 204.616 423.844 208.181C425.599 204.257 427.354 200.337 429.109 196.412C430.418 196.279 431.075 196.21 432.385 196.077C433.049 201.527 433.709 206.973 434.374 212.422C433.158 212.548 432.551 212.609 431.332 212.735C430.864 208.841 430.396 204.951 429.928 201.057C428.244 204.825 427.399 206.706 425.716 210.474C424.217 210.626 423.47 210.702 421.972 210.855C420.288 207.43 419.443 205.718 417.759 202.297C417.291 206.286 416.823 210.271 416.355 214.261C415.14 214.383 414.529 214.444 413.313 214.566C413.978 208.979 414.638 203.395 415.302 197.812Z" fill="white"/>
<path d="M441.16 195.169C443.968 194.875 445.372 194.73 448.18 194.437C450.052 199.757 451.924 205.077 453.796 210.401C452.532 210.534 451.902 210.599 450.637 210.733C449.935 208.727 449.584 207.72 448.882 205.714C445.327 206.702 443.545 207.194 439.99 208.178C439.477 209.695 439.216 210.458 438.703 211.976C437.439 212.106 436.808 212.174 435.544 212.304C437.416 206.591 439.288 200.878 441.16 195.169ZM447.946 203.208C447.15 200.928 446.753 199.787 445.957 197.507C444.927 197.614 444.413 197.667 443.383 197.774C442.402 200.714 441.907 202.182 440.926 205.123C443.734 204.36 445.138 203.975 447.946 203.208Z" fill="white"/>
<path d="M455.434 193.678C460.502 193.148 465.575 192.614 470.644 192.088C470.644 194.261 470.644 195.348 470.644 197.526C470.644 200.245 468.538 202.64 465.028 203.315C462.408 203.826 461.095 204.082 458.476 204.593C458.476 206.721 458.476 207.785 458.476 209.913C457.26 210.039 456.649 210.104 455.434 210.233C455.434 204.711 455.434 199.196 455.434 193.678ZM464.911 200.489C466.198 200.238 467.602 199.498 467.602 197.724C467.602 196.733 467.602 196.233 467.602 195.242C463.952 195.623 462.125 195.814 458.476 196.199C458.476 198.422 458.476 199.532 458.476 201.755C461.05 201.248 462.337 200.993 464.911 200.489Z" fill="white"/>
<path d="M472.286 200.192C472.305 195.463 476.494 190.978 481.295 190.509C484.907 190.158 488.696 191.996 489.602 195.798C488.387 196.065 487.775 196.199 486.56 196.466C486.092 194.978 484.805 192.98 481.295 193.346C477.785 193.708 475.328 196.565 475.328 199.875C475.328 203.185 477.668 205.542 481.295 205.169C484.22 204.867 485.975 203.029 486.677 202.129C487.707 202.686 488.221 202.964 489.251 203.521C488.549 204.421 486.228 207.304 481.295 208.006C476.536 208.677 472.263 204.78 472.286 200.192Z" fill="white"/>
<path d="M491.24 189.978C492.455 189.853 493.067 189.792 494.282 189.67C494.282 192.732 494.282 194.265 494.282 197.331C496.973 194.498 499.664 191.664 502.355 188.834C503.993 188.67 504.812 188.59 506.45 188.426C503.597 191.451 502.166 192.965 499.313 195.996C501.615 198.998 503.918 201.999 506.216 205.001C504.812 205.142 504.11 205.21 502.706 205.352C500.506 202.499 499.407 201.073 497.207 198.22C496.037 199.475 495.452 200.1 494.282 201.355C494.282 203.304 494.282 204.276 494.282 206.225C493.067 206.347 492.455 206.412 491.24 206.534C491.24 201.012 491.24 195.497 491.24 189.978Z" fill="white"/>
<path d="M512.769 187.805C515.577 187.53 516.981 187.397 519.789 187.126C521.661 192.465 523.533 197.804 525.405 203.143C524.14 203.262 523.51 203.323 522.246 203.441C521.544 201.427 521.193 200.421 520.491 198.407C516.935 199.36 515.154 199.841 511.599 200.802C511.085 202.32 510.825 203.075 510.312 204.593C509.047 204.719 508.417 204.78 507.152 204.905C509.024 199.204 510.897 193.502 512.769 187.805ZM519.555 195.894C518.758 193.605 518.362 192.461 517.566 190.173C516.535 190.272 516.022 190.322 514.992 190.421C514.01 193.354 513.516 194.818 512.535 197.751C515.343 197.007 516.747 196.637 519.555 195.894Z" fill="white"/>
<path d="M526.809 203.014C528.315 200.356 529.069 199.028 530.575 196.374C528.19 195.813 526.809 194.097 526.809 191.901C526.809 189.727 526.809 188.64 526.809 186.462C531.877 185.989 536.946 185.532 542.015 185.085C542.015 190.604 542.015 196.119 542.015 201.637C540.8 201.744 540.188 201.797 538.973 201.904C538.973 199.776 538.973 198.712 538.973 196.584C536.905 196.58 535.871 196.576 533.802 196.576C532.41 199.021 531.711 200.241 530.315 202.69C528.915 202.815 528.209 202.88 526.809 203.014ZM538.973 193.746C538.973 191.523 538.973 190.413 538.973 188.19C535.323 188.514 533.497 188.678 529.847 189.014C529.847 190.005 529.847 190.505 529.847 191.496C529.847 193.27 531.251 193.731 532.538 193.731C535.112 193.739 536.399 193.739 538.973 193.746Z" fill="white"/>
<path d="M376.345 238.134C376.364 233.417 380.395 228.844 385.354 228.581C390.23 228.322 394.389 231.575 394.363 236.494C394.337 241.521 390.306 245.369 385.354 246.078C380.512 246.772 376.326 242.726 376.345 238.134ZM391.317 236.78C391.317 233.47 388.86 231.098 385.35 231.418C381.84 231.739 379.383 234.557 379.383 237.867C379.383 241.178 381.84 243.561 385.35 243.241C388.86 242.924 391.317 240.091 391.317 236.78Z" fill="white"/>
<path d="M396.465 228.024C401.145 227.582 405.825 227.128 410.506 226.663C410.506 227.799 410.506 228.363 410.506 229.5C406.841 229.862 403.176 230.221 399.507 230.572C399.507 231.613 399.507 232.131 399.507 233.173C402.127 233.157 403.44 233.15 406.059 233.131C409.57 233.096 411.676 234.942 411.676 237.661C411.676 240.381 409.804 243.287 406.059 243.653C402.221 244.026 400.304 244.213 396.465 244.576C396.465 239.057 396.465 233.539 396.465 228.024ZM405.942 240.823C407.347 240.686 408.634 239.85 408.634 238.077C408.634 236.304 407.23 235.85 405.942 235.857C403.368 235.873 402.081 235.88 399.507 235.888C399.507 238.111 399.507 239.221 399.507 241.445C402.081 241.2 403.368 241.075 405.942 240.823Z" fill="white"/>
<path d="M417.994 225.915C420.613 225.652 421.926 225.518 424.546 225.251C426.497 230.568 428.445 235.888 430.396 241.204C429.131 241.334 428.501 241.399 427.237 241.528C425.637 237.2 424.04 232.871 422.44 228.539C421.504 228.634 421.036 228.68 420.1 228.775C418.499 233.428 416.903 238.081 415.303 242.733C414.038 242.859 413.408 242.924 412.144 243.046C414.095 237.341 416.046 231.628 417.994 225.915Z" fill="white"/>
<path d="M436.714 224.004C439.522 223.715 440.926 223.57 443.734 223.276C445.606 228.596 447.478 233.92 449.35 239.24C448.085 239.374 447.455 239.438 446.191 239.568C445.489 237.562 445.138 236.555 444.436 234.549C440.88 235.533 439.099 236.025 435.544 237.009C435.03 238.527 434.77 239.286 434.257 240.808C432.992 240.937 432.362 241.002 431.098 241.132C432.97 235.423 434.842 229.714 436.714 224.004ZM443.5 232.048C442.703 229.767 442.307 228.627 441.511 226.342C440.48 226.449 439.967 226.502 438.937 226.609C437.955 229.55 437.461 231.018 436.48 233.958C439.288 233.195 440.692 232.814 443.5 232.048Z" fill="white"/>
<path d="M449.116 230.987C449.135 226.255 453.328 221.77 458.125 221.297C461.733 220.938 465.526 222.773 466.432 226.575C465.217 226.846 464.605 226.979 463.39 227.246C462.922 225.759 461.635 223.764 458.125 224.134C454.615 224.504 452.158 227.361 452.158 230.671C452.158 233.981 454.498 236.338 458.125 235.957C461.05 235.652 462.805 233.813 463.507 232.91C464.538 233.463 465.051 233.741 466.081 234.294C465.379 235.194 463.058 238.085 458.125 238.79C453.366 239.477 449.097 235.579 449.116 230.987Z" fill="white"/>
<path d="M472.988 223.055C470.648 223.299 469.478 223.421 467.138 223.665C467.138 222.528 467.138 221.964 467.138 220.828C472.052 220.313 476.966 219.802 481.88 219.294C481.88 220.431 481.88 220.995 481.88 222.132C479.54 222.372 478.37 222.494 476.03 222.738C476.03 227.311 476.03 231.88 476.03 236.452C474.815 236.578 474.204 236.643 472.988 236.769C472.988 232.196 472.988 227.624 472.988 223.055Z" fill="white"/>
<path d="M483.752 219.1C484.967 218.974 485.579 218.913 486.794 218.787C486.794 220.633 486.794 221.552 486.794 223.398C489.413 223.364 490.727 223.348 493.346 223.318C496.856 223.268 498.962 225.232 498.962 228.306C498.962 231.38 497.09 234.286 493.346 234.668C489.508 235.056 487.59 235.255 483.752 235.651C483.752 230.133 483.752 224.618 483.752 219.1ZM493.229 231.842C494.633 231.7 495.92 230.858 495.92 228.73C495.92 226.602 494.516 226.151 493.229 226.167C490.655 226.193 489.368 226.205 486.794 226.235C486.794 228.741 486.794 229.996 486.794 232.501C489.368 232.234 490.655 232.105 493.229 231.842Z" fill="white"/>
<path d="M414.042 160.266C304.181 169.934 194.32 179.601 84.4633 189.265C78.1338 189.837 71.9403 184.632 72.2347 177.98C72.2347 165.845 72.2347 153.71 72.2347 141.571C71.9328 114.746 94.2989 90.8717 120.488 88.5606C218.339 79.9493 316.191 71.3379 414.045 62.7304C440.027 60.0875 462.318 81.0743 462.299 107.248C462.292 133.864 440.473 158.245 414.042 160.266Z" fill="#0094B3"/>
<path d="M106.988 135.805C107.022 122.838 117.632 112.206 130.241 111.176C140.111 110.371 149.166 115.016 151.683 125.161C148.543 125.805 146.973 126.126 143.829 126.766C142.04 120.905 136.05 117.808 130.238 118.502C121.995 119.482 114.873 126.4 114.835 135.118C114.797 143.802 121.908 149.687 130.238 149.023C135.454 148.607 140.87 145.602 144.131 141.392C146.788 142.868 148.116 143.604 150.773 145.08C145.735 151.765 138.515 155.548 130.238 156.349C117.854 157.535 106.954 148.646 106.988 135.805Z" fill="white"/>
<path d="M168.599 116.343C163.564 116.786 158.533 117.228 153.499 117.671C153.499 114.742 153.499 113.277 153.499 110.345C166.184 109.227 178.869 108.114 191.554 106.996C191.554 109.925 191.554 111.389 191.554 114.322C186.519 114.765 181.488 115.207 176.453 115.649C176.453 127.449 176.453 139.252 176.453 151.052C173.313 151.327 171.743 151.468 168.603 151.742C168.599 139.947 168.599 128.143 168.599 116.343Z" fill="white"/>
<path d="M207.259 148.344C210.078 143.211 212.897 138.082 215.717 132.948C208.266 124.245 200.816 115.539 193.366 106.836C197.351 106.485 199.344 106.31 203.334 105.959C208.87 112.389 214.407 118.819 219.944 125.248C223.971 117.976 227.998 110.703 232.025 103.43C235.649 103.11 237.46 102.954 241.087 102.633C232.731 117.61 224.375 132.59 216.019 147.566C212.512 147.883 210.761 148.035 207.259 148.344Z" fill="white"/>
<path d="M235.649 138.52C237.774 138.333 238.838 138.238 240.963 138.051C244.628 125.927 248.293 113.804 251.957 101.68C257.996 101.15 264.039 100.616 270.078 100.086C273.742 111.565 277.407 123.044 281.072 134.523C283.197 134.337 284.261 134.241 286.386 134.054C285.68 139.1 284.978 144.149 284.273 149.195C281.132 149.469 279.562 149.61 276.418 149.885C276.901 146.792 277.143 145.244 277.626 142.147C266.552 143.123 255.479 144.096 244.401 145.072C244.885 148.081 245.126 149.588 245.609 152.597C242.469 152.871 240.899 153.012 237.755 153.287C237.06 148.367 236.355 143.444 235.649 138.52ZM273.222 135.214C270.361 126.309 267.504 117.404 264.643 108.499C261.744 108.754 260.295 108.88 257.392 109.136C254.531 118.544 251.674 127.952 248.813 137.357C256.955 136.648 265.088 135.931 273.222 135.214Z" fill="white"/>
<path d="M291.224 98.2283C303.305 97.1643 315.387 96.1041 327.468 95.04C327.468 97.969 327.468 99.4334 327.468 102.366C318.006 103.198 308.54 104.033 299.078 104.864C299.078 107.671 299.078 109.074 299.078 111.885C306.227 111.256 313.375 110.627 320.524 109.997C320.524 112.926 320.524 114.391 320.524 117.324C313.375 117.953 306.227 118.582 299.078 119.211C299.078 123.788 299.078 128.368 299.078 132.944C308.54 132.113 318.006 131.278 327.468 130.446C327.468 133.375 327.468 134.84 327.468 137.773C315.387 138.837 303.305 139.897 291.224 140.961C291.224 126.713 291.224 112.469 291.224 98.2283Z" fill="white"/>
<path d="M333.507 94.506C336.647 94.2314 338.217 94.0903 341.361 93.8157C341.361 97.885 341.361 101.954 341.361 106.023C348.811 105.367 356.262 104.712 363.712 104.056C363.712 99.9863 363.712 95.9171 363.712 91.8479C366.852 91.5733 368.422 91.4322 371.563 91.1576C371.563 105.402 371.563 119.642 371.563 133.886C368.422 134.161 366.852 134.302 363.712 134.577C363.712 126.846 363.712 119.112 363.712 111.382C356.262 112.038 348.811 112.694 341.361 113.35C341.361 121.08 341.361 128.814 341.361 136.545C338.221 136.819 336.651 136.96 333.507 137.235C333.507 122.991 333.507 108.75 333.507 94.506Z" fill="white"/>
<path d="M391.495 96.7296C386.46 97.172 381.429 97.6144 376.394 98.0568C376.394 95.1278 376.394 93.6634 376.394 90.7306C389.079 89.6132 401.764 88.4996 414.446 87.3822C414.446 90.3111 414.446 91.7756 414.446 94.7083C409.411 95.1507 404.38 95.5931 399.345 96.0355C399.345 107.835 399.345 119.639 399.345 131.438C396.205 131.713 394.635 131.854 391.495 132.128C391.495 120.333 391.495 108.529 391.495 96.7296Z" fill="white"/>
<path d="M106.988 222.162C117.862 221.205 128.732 220.248 139.605 219.291C139.605 222.22 139.605 223.684 139.605 226.617C131.351 227.341 123.097 228.07 114.842 228.794C114.842 240.594 114.842 252.397 114.842 264.197C111.702 264.472 110.132 264.613 106.992 264.887C106.988 250.651 106.988 236.407 106.988 222.162Z" fill="white"/>
<path d="M141.417 240.498C141.451 227.528 152.264 217.128 164.67 215.866C177.08 214.603 187.942 223.531 187.927 236.406C187.908 249.468 177.303 260.032 164.67 261.039C152.453 262.012 141.383 253.339 141.417 240.498ZM180.077 237.097C180.107 228.504 173.011 222.425 164.674 223.192C156.182 223.974 149.301 231.082 149.271 239.808C149.241 248.4 156.337 254.479 164.674 253.713C173.166 252.931 180.046 245.822 180.077 237.097Z" fill="white"/>
<path d="M189.135 250.338C191.26 250.151 192.324 250.056 194.449 249.869C198.114 237.745 201.778 225.621 205.443 213.497C211.482 212.967 217.525 212.433 223.563 211.903C227.228 223.383 230.893 234.862 234.558 246.341C236.683 246.154 237.747 246.059 239.872 245.872C239.166 250.918 238.464 255.967 237.758 261.012C234.618 261.287 233.048 261.428 229.904 261.703C230.387 258.61 230.629 257.061 231.112 253.968C220.038 254.945 208.965 255.917 197.891 256.894C198.374 259.903 198.616 261.409 199.099 264.418C195.959 264.693 194.389 264.834 191.245 265.108C190.546 260.185 189.841 255.261 189.135 250.338ZM226.707 247.031C223.846 238.126 220.989 229.221 218.129 220.316C215.23 220.572 213.781 220.698 210.878 220.953C208.017 230.362 205.16 239.77 202.299 249.175C210.44 248.465 218.574 247.748 226.707 247.031Z" fill="white"/>
<path d="M256.792 208.982C262.831 208.452 268.873 207.918 274.912 207.388C279.743 221.205 284.578 235.022 289.409 248.839C286.148 249.125 284.518 249.27 281.253 249.556C279.743 245.212 278.233 240.868 276.724 236.525C269.073 238.519 261.419 240.518 253.769 242.512C252.44 246.414 251.776 248.362 250.447 252.264C247.186 252.55 245.556 252.695 242.291 252.981C247.126 238.317 251.957 223.65 256.792 208.982ZM274.308 230.026C272.598 225.091 270.885 220.152 269.175 215.217C266.518 215.45 265.19 215.568 262.529 215.801C260.415 222.09 258.302 228.382 256.188 234.671C262.227 233.123 268.266 231.574 274.308 230.026Z" fill="white"/>
<path d="M225.469 355.684C225.42 355.485 225.371 355.291 225.326 355.096L225.167 354.441C224.982 353.682 224.793 352.892 224.597 352.122C224.163 350.413 223.68 348.689 223.216 347.019L222.963 346.111C221.872 342.195 220.736 338.24 219.585 334.354C218.936 332.157 218.256 329.899 217.566 327.645C217.317 326.829 216.603 326.337 215.765 326.391C215.135 326.196 214.467 326.151 213.874 326.109L213.727 326.097C212.916 326.04 212.089 326.017 211.266 326.04C209.587 326.082 207.881 326.288 206.19 326.654C202.933 327.356 199.747 328.683 196.977 330.494C195.607 331.391 194.313 332.416 193.127 333.549C189.697 332.153 185.96 332.657 183.413 333.172C179.653 333.927 176.528 335.044 173.856 336.581C173.037 337.054 172.248 337.58 171.509 338.148C171.429 338.209 171.35 338.27 171.267 338.331C170.493 338.919 169.618 339.586 169.187 340.562C168.984 341.032 168.98 341.539 169.176 341.977C171.093 348.903 173.007 356.424 175.192 365.645L175.219 365.756C175.468 366.805 175.717 367.857 175.962 368.906C176.019 369.139 176.068 369.375 176.121 369.615C176.332 370.58 176.547 371.575 176.996 372.498C177.204 372.926 177.563 373.208 178.004 373.299C178.102 373.318 178.204 373.33 178.302 373.33C178.631 373.33 178.963 373.227 179.246 373.029C179.472 372.994 179.684 372.914 179.869 372.788C182.526 370.977 185.107 369.657 187.768 368.761C190.538 367.827 193.46 367.27 196.456 367.106C197.283 367.06 198.109 367.045 198.91 367.064C199.181 367.072 199.449 367.091 199.736 367.11C200.34 367.152 200.963 367.197 201.604 367.11C202.095 367.167 202.578 366.984 202.948 366.591C206.979 362.285 212.595 359.654 218.362 359.375C219.117 359.337 220.004 359.318 220.872 359.448C221.464 359.536 222.031 359.726 222.631 359.928C222.865 360.009 223.11 360.089 223.355 360.165C223.752 360.287 224.171 360.245 224.548 360.043C224.937 360.016 225.314 359.841 225.586 359.551C225.926 359.185 226.069 358.689 225.997 358.151C225.877 357.312 225.669 356.485 225.469 355.684ZM196.913 363.59C195.373 363.609 193.754 363.765 191.957 364.063C188.878 364.574 185.779 365.588 182.745 367.075C181.612 367.628 180.537 368.238 179.533 368.891C179.502 368.761 179.476 368.635 179.45 368.505C179.272 367.655 179.08 366.793 178.895 365.962L178.793 365.512C178.351 363.525 177.88 361.557 177.396 359.547C176.445 355.6 175.434 351.603 174.4 347.675C173.89 345.749 173.343 343.728 172.773 341.661C172.788 341.646 172.803 341.634 172.818 341.619C172.992 341.463 173.154 341.314 173.32 341.173C173.811 340.768 174.381 340.364 175.056 339.941C176.272 339.182 177.589 338.526 178.974 337.988C182.156 336.76 185.13 336.093 187.813 336.005C189.293 335.956 190.553 336.108 191.652 336.47C193.671 343.762 195.698 351.359 197.675 359.063C197.842 359.711 198.011 360.356 198.181 361C198.287 361.408 198.396 361.816 198.502 362.224C198.57 362.487 198.634 362.751 198.702 363.018C198.751 363.216 198.8 363.422 198.853 363.624C198.208 363.593 197.558 363.582 196.913 363.59ZM219.34 355.76C217.705 355.756 215.969 355.947 214.176 356.332C210.915 357.03 207.722 358.418 204.941 360.348C203.986 361.012 203.076 361.732 202.227 362.506C202.069 361.828 201.888 361.153 201.71 360.493C201.578 360.001 201.442 359.49 201.321 358.994C200.899 357.293 200.453 355.573 200.019 353.91L199.819 353.14C198.819 349.292 197.785 345.398 196.743 341.558C196.249 339.727 195.735 337.851 195.177 335.83C199.351 331.909 205.005 329.568 210.753 329.392C211.614 329.365 212.478 329.385 213.327 329.449C213.546 329.465 213.769 329.491 214.003 329.518C214.142 329.533 214.282 329.552 214.422 329.564C216.762 337.248 218.94 344.983 220.947 352.206C221.136 352.885 221.336 353.567 221.532 354.231C221.661 354.662 221.785 355.093 221.91 355.527C221.955 355.691 222.004 355.855 222.049 356.019C221.193 355.852 220.283 355.764 219.34 355.76Z" fill="white"/>
<path d="M232.53 357.244C232.368 356.042 232.093 354.944 231.874 354.059V354.055L231.583 352.862C231.394 352.076 231.198 351.264 230.994 350.467C230.538 348.663 230.024 346.825 229.571 345.211L229.319 344.308C228.213 340.338 227.065 336.348 225.91 332.447C225.261 330.25 224.574 327.974 223.872 325.681C222.865 322.386 220.026 320.098 216.72 319.763C215.769 319.56 214.935 319.499 214.342 319.458L214.199 319.446C213.176 319.37 212.131 319.347 211.097 319.374C209.013 319.427 206.896 319.683 204.809 320.129C200.774 320.998 196.822 322.642 193.384 324.892C192.739 325.315 192.104 325.758 191.489 326.227C187.896 325.655 184.56 326.139 182.118 326.627C177.653 327.524 173.879 328.885 170.58 330.784C169.504 331.406 168.466 332.096 167.512 332.836L167.293 333.004C166.164 333.862 164.273 335.303 163.152 337.859C162.28 339.846 162.197 342.077 162.907 344.083C164.775 350.844 166.643 358.201 168.776 367.205L168.885 367.67C169.104 368.593 169.323 369.516 169.538 370.435C169.584 370.637 169.629 370.84 169.674 371.049C169.927 372.209 170.27 373.795 171.071 375.439C171.939 377.224 173.373 378.589 175.128 379.344L175.441 379.474C175.853 379.63 176.279 379.752 176.721 379.844C177.242 379.947 177.774 380 178.306 380C179.491 380 180.65 379.745 181.722 379.253C182.374 379.02 182.997 378.707 183.571 378.318C185.722 376.85 187.783 375.793 189.866 375.092C192.074 374.344 194.414 373.902 196.819 373.768C197.241 373.746 197.668 373.734 198.083 373.73L198.86 373.742L199.683 373.795C200.28 373.833 201 373.86 201.819 373.795C204.05 373.791 206.171 372.865 207.753 371.175C210.621 368.109 214.607 366.24 218.683 366.042C218.894 366.034 219.517 366.004 219.879 366.046C220.011 366.08 220.313 366.183 220.543 366.259C220.83 366.358 221.128 366.458 221.43 366.549C223.065 367.053 224.782 367.026 226.382 366.484C227.786 366.141 229.077 365.424 230.126 364.398C230.473 364.146 230.76 363.819 230.972 363.445L230.998 363.399C232.274 361.66 232.832 359.459 232.53 357.244Z" fill="#0094B3"/>
<path d="M225.469 355.684C225.42 355.485 225.371 355.291 225.326 355.096L225.167 354.441C224.982 353.682 224.793 352.892 224.597 352.122C224.163 350.413 223.68 348.689 223.216 347.019L222.963 346.111C221.872 342.195 220.736 338.24 219.585 334.354C218.936 332.157 218.256 329.899 217.566 327.645C217.317 326.829 216.603 326.337 215.765 326.391C215.135 326.196 214.467 326.151 213.874 326.109L213.727 326.097C212.916 326.04 212.089 326.017 211.266 326.04C209.587 326.082 207.881 326.288 206.19 326.654C202.933 327.356 199.747 328.683 196.977 330.494C195.607 331.391 194.313 332.416 193.127 333.549C189.697 332.153 185.96 332.657 183.413 333.172C179.653 333.927 176.528 335.044 173.856 336.581C173.037 337.054 172.248 337.58 171.509 338.148C171.429 338.209 171.35 338.27 171.267 338.331C170.493 338.919 169.618 339.586 169.187 340.562C168.984 341.032 168.98 341.539 169.176 341.977C171.093 348.903 173.007 356.424 175.192 365.645L175.219 365.756C175.468 366.805 175.717 367.857 175.962 368.906C176.019 369.139 176.068 369.375 176.121 369.615C176.332 370.58 176.547 371.575 176.996 372.498C177.204 372.926 177.563 373.208 178.004 373.299C178.102 373.318 178.204 373.33 178.302 373.33C178.631 373.33 178.963 373.227 179.246 373.029C179.472 372.994 179.684 372.914 179.869 372.788C182.526 370.977 185.107 369.657 187.768 368.761C190.538 367.827 193.46 367.27 196.456 367.106C197.283 367.06 198.109 367.045 198.91 367.064C199.181 367.072 199.449 367.091 199.736 367.11C200.34 367.152 200.963 367.197 201.604 367.11C202.095 367.167 202.578 366.984 202.948 366.591C206.979 362.285 212.595 359.654 218.362 359.375C219.117 359.337 220.004 359.318 220.872 359.448C221.464 359.536 222.031 359.726 222.631 359.928C222.865 360.009 223.11 360.089 223.355 360.165C223.752 360.287 224.171 360.245 224.548 360.043C224.937 360.016 225.314 359.841 225.586 359.551C225.926 359.185 226.069 358.689 225.997 358.151C225.877 357.312 225.669 356.485 225.469 355.684ZM196.913 363.59C195.373 363.609 193.754 363.765 191.957 364.063C188.878 364.574 185.779 365.588 182.745 367.075C181.612 367.628 180.537 368.238 179.533 368.891C179.502 368.761 179.476 368.635 179.45 368.505C179.272 367.655 179.08 366.793 178.895 365.962L178.793 365.512C178.351 363.525 177.88 361.557 177.396 359.547C176.445 355.6 175.434 351.603 174.4 347.675C173.89 345.749 173.343 343.728 172.773 341.661C172.788 341.646 172.803 341.634 172.818 341.619C172.992 341.463 173.154 341.314 173.32 341.173C173.811 340.768 174.381 340.364 175.056 339.941C176.272 339.182 177.589 338.526 178.974 337.988C182.156 336.76 185.13 336.093 187.813 336.005C189.293 335.956 190.553 336.108 191.652 336.47C193.671 343.762 195.698 351.359 197.675 359.063C197.842 359.711 198.011 360.356 198.181 361C198.287 361.408 198.396 361.816 198.502 362.224C198.57 362.487 198.634 362.751 198.702 363.018C198.751 363.216 198.8 363.422 198.853 363.624C198.208 363.593 197.558 363.582 196.913 363.59ZM219.34 355.76C217.705 355.756 215.969 355.947 214.176 356.332C210.915 357.03 207.722 358.418 204.941 360.348C203.986 361.012 203.076 361.732 202.227 362.506C202.069 361.828 201.888 361.153 201.71 360.493C201.578 360.001 201.442 359.49 201.321 358.994C200.899 357.293 200.453 355.573 200.019 353.91L199.819 353.14C198.819 349.292 197.785 345.398 196.743 341.558C196.249 339.727 195.735 337.851 195.177 335.83C199.351 331.909 205.005 329.568 210.753 329.392C211.614 329.365 212.478 329.385 213.327 329.449C213.546 329.465 213.769 329.491 214.003 329.518C214.142 329.533 214.282 329.552 214.422 329.564C216.762 337.248 218.94 344.983 220.947 352.206C221.136 352.885 221.336 353.567 221.532 354.231C221.661 354.662 221.785 355.093 221.91 355.527C221.955 355.691 222.004 355.855 222.049 356.019C221.193 355.852 220.283 355.764 219.34 355.76Z" fill="white"/>
<path d="M545.619 93.915C545.506 93.7205 545.359 93.5565 545.185 93.4269C539.422 89.1098 532.764 84.93 524.227 80.2734C522.653 79.4153 520.947 78.5229 518.863 77.4742L518.727 77.4055C517.807 76.9364 516.761 76.4101 515.557 76.7534C514.882 76.9479 514.24 77.253 513.621 77.5466C513.353 77.6763 513.096 77.7945 512.843 77.9051C508.93 79.6098 505.038 81.3336 501.389 82.9468C499.252 83.8926 497.093 84.8727 495.006 85.8185C492.9 86.772 490.723 87.7597 488.575 88.7131C487.975 88.9801 487.597 89.5102 487.567 90.1318C487.533 90.8183 487.911 91.4895 488.53 91.848C491.194 93.3811 493.897 94.9562 496.508 96.4778L497.826 97.2444C497.773 98.8729 497.731 100.517 497.705 102.145C497.701 102.401 497.694 102.656 497.686 102.915C497.637 104.51 497.577 106.313 498.456 107.862C499.426 109.566 501.09 110.63 502.434 111.363C504.049 112.247 505.899 112.919 508.084 113.418C511.311 114.154 514.7 114.315 517.961 114.315C518.524 114.315 519.078 114.311 519.633 114.303C521.747 114.276 523.468 114.131 525.061 113.857C526.789 113.556 528.771 113.148 530.371 112.061C532.337 110.726 532.809 108.434 533.228 106.413L533.281 106.161C533.719 104.056 533.953 101.966 534.108 100.307L534.893 100.04C538.214 98.9148 541.648 97.7516 545.042 96.6533C545.434 96.5274 545.751 96.2338 545.936 95.8257C546.136 95.3833 546.151 94.8685 545.974 94.4451C545.879 94.243 545.762 94.0638 545.619 93.915ZM530.19 104.403C530.028 105.261 529.843 106.126 529.639 106.973L529.627 107.023C529.461 107.709 529.292 108.422 528.922 108.918C528.265 109.799 526.801 110.1 525.627 110.344L525.415 110.386C523.977 110.688 522.392 110.863 520.569 110.928C516.957 111.054 513.527 110.855 510.368 110.337C508.612 110.047 507.02 109.616 505.499 109.013C504.144 108.476 502.759 107.843 501.808 106.851C500.898 105.901 500.958 104.59 501.019 103.201C501.026 103.015 501.034 102.824 501.041 102.637C501.079 101.474 501.109 100.311 501.132 99.1741C503.774 100.707 506.801 102.45 509.884 104.185L512.568 105.692C512.711 105.772 512.859 105.863 513.017 105.959C513.776 106.416 514.719 106.981 515.738 106.897C516.44 106.84 517.097 106.531 517.674 106.26C517.901 106.153 518.112 106.054 518.32 105.97C518.928 105.726 519.554 105.493 520.158 105.268C520.471 105.15 520.784 105.036 521.098 104.918C524.204 103.743 527.435 102.576 530.714 101.451C530.552 102.473 530.367 103.465 530.19 104.403ZM521.777 101.237C521.056 101.512 520.328 101.798 519.622 102.076C518.539 102.503 517.422 102.946 516.316 103.339C516.142 103.4 515.946 103.465 515.829 103.434C515.663 103.388 515.459 103.259 515.263 103.129C515.165 103.064 515.063 102.999 514.957 102.938L512.383 101.443C509.198 99.5936 505.823 97.6563 501.762 95.349C499.766 94.2125 497.724 93.0798 495.75 91.9853C494.859 91.4895 493.942 90.9823 493.032 90.4751C495.112 89.5484 497.21 88.6216 499.252 87.7178C503.472 85.8529 507.835 83.9231 512.107 81.9743L514.908 80.6967C515.048 80.6319 515.187 80.5671 515.327 80.5022C515.614 80.365 515.889 80.2391 516.165 80.1247C516.176 80.1209 516.191 80.1133 516.21 80.1056C516.274 80.1361 516.335 80.1628 516.395 80.1933C518.078 81.0629 519.724 81.9553 521.679 83.0269C525.419 85.0825 528.737 87.0046 531.813 88.9076C534.764 90.7306 537.712 92.6718 540.58 94.571C534.998 96.3711 528.982 98.5067 521.777 101.237Z" fill="white"/>
<path d="M517.95 120.989C514.84 120.989 510.741 120.867 506.616 119.928C503.831 119.292 501.43 118.411 499.275 117.236C497.328 116.172 494.531 114.387 492.712 111.187C490.9 107.995 491.006 104.681 491.066 102.706C491.074 102.473 491.081 102.252 491.085 102.035C491.089 101.707 491.096 101.379 491.104 101.047C489.164 99.9179 487.194 98.7738 485.246 97.6525C482.948 96.3292 481.396 93.9838 481.03 91.4057L481.027 91.318C480.974 90.3722 481.008 89.4226 481.128 88.4844C481.676 85.8911 483.427 83.702 485.914 82.6037C488.035 81.6655 490.198 80.6854 492.289 79.7358C494.387 78.7823 496.561 77.7984 498.728 76.8374C502.381 75.2203 506.28 73.4965 510.217 71.7804C510.405 71.7003 510.59 71.6088 510.786 71.5172C511.545 71.1587 512.557 70.6782 513.749 70.335C517.425 69.2824 520.301 70.743 521.686 71.441L521.819 71.5096C523.955 72.5889 525.717 73.508 527.359 74.4042C536.18 79.2171 543.094 83.5571 549.114 88.0725C549.782 88.5721 550.363 89.1632 550.85 89.8383C551.341 90.4485 551.745 91.1311 552.05 91.8672C552.413 92.7405 552.62 93.671 552.673 94.6092C552.915 95.6694 552.775 96.7792 552.273 97.7441L552.239 97.8089C552.145 98.0835 552.039 98.3543 551.918 98.6212C550.963 100.719 549.186 102.321 547.038 103.018C544.743 103.762 542.422 104.536 540.131 105.31C540.018 106.035 539.882 106.786 539.724 107.541L539.671 107.797C539.135 110.394 538.233 114.765 534.032 117.613C531.473 119.349 528.733 120.001 526.155 120.447C524.215 120.783 522.166 120.954 519.701 120.989C519.128 120.985 518.543 120.989 517.95 120.989ZM513.394 86.139C513.398 86.139 513.398 86.1428 513.402 86.1428C513.398 86.1428 513.394 86.139 513.394 86.139Z" fill="#E62D3B"/>
<path d="M545.619 93.915C545.506 93.7205 545.359 93.5565 545.185 93.4269C539.422 89.1098 532.764 84.93 524.227 80.2734C522.653 79.4153 520.947 78.5229 518.863 77.4742L518.727 77.4055C517.807 76.9364 516.761 76.4101 515.557 76.7534C514.882 76.9479 514.24 77.253 513.621 77.5466C513.353 77.6763 513.096 77.7945 512.843 77.9051C508.93 79.6098 505.038 81.3336 501.389 82.9468C499.252 83.8926 497.093 84.8727 495.006 85.8185C492.9 86.772 490.723 87.7597 488.575 88.7131C487.975 88.9801 487.597 89.5102 487.567 90.1318C487.533 90.8183 487.911 91.4895 488.53 91.848C491.194 93.3811 493.897 94.9562 496.508 96.4778L497.826 97.2444C497.773 98.8729 497.731 100.517 497.705 102.145C497.701 102.401 497.694 102.656 497.686 102.915C497.637 104.51 497.577 106.313 498.456 107.862C499.426 109.566 501.09 110.63 502.434 111.363C504.049 112.247 505.899 112.919 508.084 113.418C511.311 114.154 514.7 114.315 517.961 114.315C518.524 114.315 519.078 114.311 519.633 114.303C521.747 114.276 523.468 114.131 525.061 113.857C526.789 113.556 528.771 113.148 530.371 112.061C532.337 110.726 532.809 108.434 533.228 106.413L533.281 106.161C533.719 104.056 533.953 101.966 534.108 100.307L534.893 100.04C538.214 98.9148 541.648 97.7516 545.042 96.6533C545.434 96.5274 545.751 96.2338 545.936 95.8257C546.136 95.3833 546.151 94.8685 545.974 94.4451C545.879 94.243 545.762 94.0638 545.619 93.915ZM530.19 104.403C530.028 105.261 529.843 106.126 529.639 106.973L529.627 107.023C529.461 107.709 529.292 108.422 528.922 108.918C528.265 109.799 526.801 110.1 525.627 110.344L525.415 110.386C523.977 110.688 522.392 110.863 520.569 110.928C516.957 111.054 513.527 110.855 510.368 110.337C508.612 110.047 507.02 109.616 505.499 109.013C504.144 108.476 502.759 107.843 501.808 106.851C500.898 105.901 500.958 104.59 501.019 103.201C501.026 103.015 501.034 102.824 501.041 102.637C501.079 101.474 501.109 100.311 501.132 99.1741C503.774 100.707 506.801 102.45 509.884 104.185L512.568 105.692C512.711 105.772 512.859 105.863 513.017 105.959C513.776 106.416 514.719 106.981 515.738 106.897C516.44 106.84 517.097 106.531 517.674 106.26C517.901 106.153 518.112 106.054 518.32 105.97C518.928 105.726 519.554 105.493 520.158 105.268C520.471 105.15 520.784 105.036 521.098 104.918C524.204 103.743 527.435 102.576 530.714 101.451C530.552 102.473 530.367 103.465 530.19 104.403ZM521.777 101.237C521.056 101.512 520.328 101.798 519.622 102.076C518.539 102.503 517.422 102.946 516.316 103.339C516.142 103.4 515.946 103.465 515.829 103.434C515.663 103.388 515.459 103.259 515.263 103.129C515.165 103.064 515.063 102.999 514.957 102.938L512.383 101.443C509.198 99.5936 505.823 97.6563 501.762 95.349C499.766 94.2125 497.724 93.0798 495.75 91.9853C494.859 91.4895 493.942 90.9823 493.032 90.4751C495.112 89.5484 497.21 88.6216 499.252 87.7178C503.472 85.8529 507.835 83.9231 512.107 81.9743L514.908 80.6967C515.048 80.6319 515.187 80.5671 515.327 80.5022C515.614 80.365 515.889 80.2391 516.165 80.1247C516.176 80.1209 516.191 80.1133 516.21 80.1056C516.274 80.1361 516.335 80.1628 516.395 80.1933C518.078 81.0629 519.724 81.9553 521.679 83.0269C525.419 85.0825 528.737 87.0046 531.813 88.9076C534.764 90.7306 537.712 92.6718 540.58 94.571C534.998 96.3711 528.982 98.5067 521.777 101.237Z" fill="white"/>
<path d="M529.526 93.2474C528.593 93.3313 527.748 93.7279 526.929 94.1093C526.695 94.2161 526.476 94.3191 526.261 94.4144C525.234 94.853 524.189 95.2954 523.151 95.7187C521.113 96.5577 519.033 97.3815 516.973 98.1633C516.188 98.4607 515.833 99.2616 516.131 100.062C516.339 100.631 516.874 101.107 517.55 101.107C517.724 101.107 517.909 101.077 518.101 101.004C520.237 100.207 522.332 99.3951 524.329 98.5866C525.34 98.1785 526.363 97.7552 527.371 97.3281C527.578 97.2404 527.79 97.1565 528.016 97.0687C528.869 96.737 529.835 96.3594 530.564 95.692C531.02 95.2763 531.168 94.6203 530.926 94.0635C530.684 93.5106 530.137 93.1902 529.526 93.2474Z" fill="white"/>
<path d="M275.104 42.6399C275.161 43.3225 275.538 43.9365 276.225 44.1272C276.817 44.2912 277.686 44.0357 277.946 43.4179C280.765 36.782 283.275 30.0013 285.898 23.2815C287.197 19.9598 288.48 16.6304 289.763 13.301C290.065 12.5192 290.375 11.7412 290.684 10.967C290.778 10.7306 290.888 10.2424 291.084 10.0441C291.144 10.0479 291.261 10.0823 291.284 10.0899C291.918 10.4026 292.745 10.5552 293.417 10.7878C294.307 11.1005 295.202 11.4133 296.093 11.7222C297.98 12.3819 299.878 13.0112 301.777 13.6404C303.701 14.2773 305.645 15.1888 307.653 15.4863C308.495 15.6121 309.325 15.349 309.668 14.4871C309.974 13.7205 309.733 12.748 308.97 12.3323C307.227 11.3827 305.245 10.9442 303.373 10.3149C301.584 9.71234 299.795 9.09833 297.999 8.52628C296.206 7.95803 294.409 7.27155 292.582 6.81772C290.809 6.37914 289.05 6.88257 288.208 8.62162C287.4 10.2882 286.842 12.1226 286.162 13.8464C285.445 15.6617 284.724 17.477 284.015 19.2962C282.618 22.8811 281.222 26.466 279.826 30.047C279.006 32.1522 278.172 34.2535 277.353 36.3625C276.734 31.0195 276.248 25.6536 275.621 20.3144C275.527 19.5097 275.006 18.8156 274.138 18.8156C273.402 18.8156 272.568 19.5059 272.654 20.3144C273.443 27.7588 274.492 35.1841 275.104 42.6399Z" fill="white"/>
<path d="M315.794 16.9888C317.383 12.9997 315.794 8.47663 312.099 6.46681C310.246 5.45999 308.434 4.91083 306.838 4.42267C306.374 4.28156 305.909 4.14045 305.457 3.9879L304.237 3.57603C302.852 3.10694 301.422 2.6226 299.976 2.16495C299.44 1.99334 298.901 1.81409 298.365 1.63104C297.032 1.18102 295.659 0.715744 294.153 0.342001C289.193 -0.886012 284.419 1.26111 282.271 5.68882C281.588 7.0999 281.075 8.51096 280.626 9.75422C280.418 10.3301 280.218 10.8755 280.022 11.3789L279.414 12.9196C278.965 13.076 278.75 13.1522 278.301 13.3086C277.086 12.5649 275.663 12.1454 274.134 12.1454C271.839 12.1454 269.631 13.1522 268.069 14.9104C266.57 16.596 265.846 18.8309 266.08 21.0352C266.374 23.8077 266.71 26.607 267.035 29.3109C267.582 33.8759 268.144 38.5935 268.518 43.1852C268.737 45.8738 270.126 48.1849 272.228 49.5502C274.187 50.3206 276.289 50.6639 278.391 50.5494L278.954 50.5189C280.686 50.0041 282.218 48.921 283.26 47.4069C284.057 47.8836 284.932 48.2345 285.857 48.4328C288.125 48.9248 290.488 48.4481 292.333 47.1171C292.858 46.7396 293.39 46.3582 293.93 45.973C294.617 47.6854 295.923 49.8592 298.618 51.1062C299.757 51.6325 300.943 51.888 302.105 51.888C304.698 51.888 307.174 50.6219 308.755 48.3108C311.186 44.7526 310.174 41.0419 309.793 39.6422C309.552 38.7536 309.291 37.9146 309.038 37.1023L308.85 36.4997C308.77 36.2404 308.687 35.9773 308.608 35.7141C308.959 35.4777 309.314 35.2412 309.665 35.0048C309.789 34.9209 309.918 34.837 310.046 34.7531C311.103 34.0628 312.552 33.1132 313.798 31.5724C316.096 28.7274 316.436 24.9023 314.658 21.8322C314.318 21.2449 313.911 20.7148 313.454 20.2419C314.458 19.4029 315.273 18.3008 315.794 16.9888Z" fill="#0094B3"/>
<path d="M275.104 42.6399C275.161 43.3225 275.538 43.9365 276.225 44.1272C276.817 44.2912 277.686 44.0357 277.946 43.4179C280.765 36.782 283.275 30.0013 285.898 23.2815C287.197 19.9598 288.48 16.6304 289.763 13.301C290.065 12.5192 290.375 11.7412 290.684 10.967C290.778 10.7306 290.888 10.2424 291.084 10.0441C291.144 10.0479 291.261 10.0823 291.284 10.0899C291.918 10.4026 292.745 10.5552 293.417 10.7878C294.307 11.1005 295.202 11.4133 296.093 11.7222C297.98 12.3819 299.878 13.0112 301.777 13.6404C303.701 14.2773 305.645 15.1888 307.653 15.4863C308.495 15.6121 309.325 15.349 309.668 14.4871C309.974 13.7205 309.733 12.748 308.97 12.3323C307.227 11.3827 305.245 10.9442 303.373 10.3149C301.584 9.71234 299.795 9.09833 297.999 8.52628C296.206 7.95803 294.409 7.27155 292.582 6.81772C290.809 6.37914 289.05 6.88257 288.208 8.62162C287.4 10.2882 286.842 12.1226 286.162 13.8464C285.445 15.6617 284.724 17.477 284.015 19.2962C282.618 22.8811 281.222 26.466 279.826 30.047C279.006 32.1522 278.172 34.2535 277.353 36.3625C276.734 31.0195 276.248 25.6536 275.621 20.3144C275.527 19.5097 275.006 18.8156 274.138 18.8156C273.402 18.8156 272.568 19.5059 272.654 20.3144C273.443 27.7588 274.492 35.1841 275.104 42.6399Z" fill="white"/>
<path d="M298.844 39.3561C299.127 40.3363 299.391 41.3202 299.67 42.3003C299.968 43.3453 300.297 44.5504 301.365 45.0462C302.108 45.3894 302.841 45.2254 303.316 44.5275C303.958 43.5855 303.701 42.449 303.422 41.4232C303.154 40.4392 302.841 39.4667 302.543 38.4942C301.976 36.6598 301.388 34.8369 300.776 33.0178C301.671 32.3961 302.565 31.7783 303.467 31.1719C304.316 30.5961 305.166 30.024 306.019 29.4558C306.936 28.8418 307.981 28.2354 308.683 27.3658C309.181 26.748 309.378 25.9471 308.959 25.2187C308.57 24.5513 307.721 24.1852 306.977 24.4026C305.03 24.9785 303.29 26.5383 301.64 27.6862C300.916 28.1896 300.187 28.693 299.463 29.1964C298.568 26.6565 297.636 24.1318 296.658 21.6262C296.304 20.7147 295.458 20.0817 294.451 20.3601C293.59 20.6003 292.843 21.672 293.197 22.5911C294.318 25.4895 295.383 28.4108 296.368 31.3588C293.088 33.6737 289.846 36.0344 286.634 38.4446C285.83 39.0472 285.419 40.0731 285.966 41.0151C286.438 41.8312 287.687 42.2812 288.51 41.6901C291.529 39.5201 294.564 37.373 297.61 35.2373C298.032 36.6026 298.447 37.9756 298.844 39.3561Z" fill="white"/>
<path d="M98.1673 8.83518C92.9739 7.34021 87.2937 8.00379 82.4136 10.2615C82.289 10.2501 82.1569 10.2691 82.0211 10.334C78.9677 11.7183 76.2314 13.8006 74.0159 16.3405V16.3482C72.6685 17.8927 71.5098 19.6089 70.5927 21.4395C68.1092 26.3973 67.2374 32.1789 68.4112 37.6286C69.2755 41.6407 71.2909 45.2484 74.0159 48.2231V48.2155C75.0953 49.3939 76.2842 50.4694 77.5599 51.4342C81.9909 54.7827 87.5956 56.659 93.14 56.3692C98.8655 56.0679 104.149 53.4898 108.26 49.5083C112.336 45.5573 115.057 40.2944 115.71 34.612C116.352 29.0325 114.736 23.2128 111.551 18.6402C108.354 14.0447 103.53 10.3759 98.1673 8.83518ZM87.4711 10.8755C89.6186 10.334 91.8454 10.128 94.0647 10.3416C99.1071 10.8297 103.976 13.3659 107.414 17.1033C108.278 18.0415 109.082 19.0559 109.811 20.1275C109.637 20.0093 109.467 19.8987 109.294 19.7919C106.712 18.1787 103.764 17.2062 100.775 16.7372C97.4388 16.2147 94.0647 16.2986 90.7584 16.9927C89.094 17.3435 87.4786 17.8698 85.9161 18.5449C84.3686 19.2161 82.9269 20.0703 81.4663 20.9132C80.6623 21.3784 79.7829 21.859 78.8658 22.2594C79.2734 20.9246 79.8094 19.6203 80.4925 18.3656C82.1456 15.3299 84.5045 12.6336 87.4711 10.8755ZM74.0159 20.2915V20.2839C74.1329 20.1123 74.2499 19.9407 74.3707 19.7729C75.8162 17.7478 77.6429 15.9554 79.6622 14.5214C79.949 14.3193 80.2359 14.1248 80.5302 13.9341C78.3185 16.5656 76.756 19.7576 75.9257 23.148C75.284 23.2395 74.6462 23.2548 74.0121 23.1671V23.1747C73.5252 23.106 73.0421 22.9764 72.5704 22.7704C72.9969 21.9124 73.4837 21.0848 74.0159 20.2915ZM71.3702 25.8023C71.4343 25.5888 71.5023 25.3752 71.5702 25.1578C71.5966 25.093 71.623 25.0243 71.6457 24.9595C71.6646 24.9023 71.6872 24.8489 71.7098 24.7917C72.4496 25.1349 73.2233 25.3371 74.0159 25.421V25.4133C74.5028 25.4667 74.9934 25.4744 75.4841 25.4477C75.4275 25.8443 75.3784 26.2447 75.3444 26.6452C75.2048 28.1897 75.2086 29.7457 75.3482 31.2903C74.8953 31.5382 74.4499 31.8013 74.0159 32.0759V32.0835C72.7629 32.8767 71.5891 33.7882 70.5323 34.8332C70.1888 31.8318 70.5021 28.7236 71.3702 25.8023ZM74.0159 43.9441V43.9517C73.2309 42.8153 72.5477 41.6101 71.9929 40.344C71.6117 39.4783 71.306 38.5859 71.0644 37.6706C71.0946 37.6439 71.1248 37.6134 71.1513 37.5829C72.0156 36.5608 72.9818 35.6646 74.0197 34.879V34.8713C74.5556 34.4632 75.1104 34.0857 75.6841 33.7348C76.1785 36.4693 77.073 39.1465 78.2846 41.6673C77.0089 42.7047 75.9332 43.9784 75.1444 45.4315C74.7443 44.9547 74.3707 44.4552 74.0159 43.9441ZM76.5333 46.9875C77.1221 45.6145 78.0241 44.3484 79.1338 43.3339C80.4925 45.7976 82.1532 48.0782 84.0365 50.0728C85.2443 51.3542 86.6332 52.5288 88.1504 53.4593C83.7912 52.5211 79.6961 50.2024 76.5333 46.9875ZM96.567 53.4555C95.899 53.6081 95.2309 53.7186 94.5591 53.7949C91.4529 53.1161 88.7279 51.2664 86.5049 48.9401C84.4856 46.8235 82.7608 44.3941 81.3681 41.797C83.5874 40.691 86.1878 40.4432 88.5882 41.0381C89.9545 41.3775 91.2642 41.919 92.5927 42.3805C93.9099 42.8381 95.2536 43.2271 96.6123 43.5437C99.3448 44.1806 102.172 44.4895 104.972 44.2149C106.878 44.028 108.814 43.6695 110.573 42.9144C107.512 48.1049 102.436 52.1245 96.567 53.4555ZM111.766 40.611C109.532 41.5873 107.237 42.3614 104.78 42.4987C101.991 42.6551 99.2052 42.2318 96.5142 41.5262C95.095 41.1563 93.6986 40.6948 92.3172 40.2067C90.9321 39.7147 89.5507 39.1923 88.0938 38.9634C85.5311 38.563 82.8703 38.9901 80.5567 40.1724C80.4057 39.852 80.2585 39.5279 80.1151 39.2037C79.1677 37.0223 78.5073 34.7264 78.1713 32.4C80.6473 31.2445 83.3194 30.4512 85.9614 29.8296C92.3134 28.3346 99.0618 28.0257 105.319 30.1233C106.924 30.661 108.494 31.3475 109.954 32.2094C111.309 33.0102 112.385 33.9865 113.404 35.1573C113.106 37.0413 112.543 38.8719 111.766 40.611ZM113.63 30.6915C113.672 31.3475 113.679 32.0034 113.657 32.6594C113.057 32.0568 112.377 31.5267 111.698 31.05C110.354 30.1118 108.879 29.3758 107.369 28.758C104.278 27.488 100.956 26.8206 97.6351 26.5918C94.0307 26.3477 90.4037 26.6909 86.8634 27.3812C83.8138 27.9762 80.8058 28.819 77.9411 30.0432C77.8543 28.3385 77.9487 26.6299 78.2317 24.9519C78.7979 24.7803 79.3565 24.5743 79.8924 24.3417C81.4172 23.6819 82.8514 22.8467 84.3158 22.0611C85.7274 21.3022 87.1691 20.6538 88.6864 20.139C94.4421 18.1825 101.183 18.152 106.708 20.8788C108.075 21.5539 109.369 22.4234 110.475 23.4798C111.498 24.4599 112.219 25.585 112.947 26.771C113.31 28.0486 113.544 29.3605 113.63 30.6915Z" fill="white"/>
<path d="M121.9 29.2843C121.794 25.9168 121.058 22.595 119.658 19.5364C118.9 17.8813 117.994 16.2872 116.948 14.7884C112.797 8.83136 106.607 4.32357 99.9755 2.41671C99.6811 2.33281 99.3867 2.25273 99.0886 2.18027C99.0773 2.17645 99.0697 2.17644 99.0584 2.17263L98.8546 2.13831C94.9218 1.45947 90.9136 1.36413 86.9544 1.85992C86.9468 1.85992 86.9355 1.86372 86.928 1.86372C84.754 2.27179 82.5989 2.92775 80.5042 3.82397C80.4929 3.82779 80.4778 3.83541 80.4665 3.83541C80.0739 3.93838 79.689 4.07567 79.3191 4.24347C75.4731 5.98633 71.9291 8.64068 69.0645 11.9243L67.4151 13.9913C66.3885 15.3909 65.4789 16.8745 64.7052 18.419C61.4631 24.8794 60.4894 32.2056 61.9613 39.0435C62.603 42.0258 63.7503 44.9166 65.3468 47.6091L66.0035 48.6655C66.9282 50.0918 67.985 51.4533 69.1588 52.7385C69.1701 52.75 69.1815 52.7614 69.1928 52.7729L69.574 53.1085C72.9557 56.0717 76.6582 58.646 80.6023 60.7855C80.6174 60.7931 80.6325 60.8007 80.6476 60.8045C84.7427 62.4864 89.1321 63.2644 93.4876 63.0317C95.0162 62.9516 96.5372 62.7419 98.0318 62.4139C98.0469 62.4101 98.0582 62.4063 98.0733 62.4025L101.085 61.4185C102.821 60.8503 104.497 60.1181 106.094 59.2257L108.271 58.0129C108.283 58.0053 108.29 58.0014 108.302 57.9938C109.898 56.926 111.419 55.698 112.834 54.3212C115.099 52.1245 117.012 49.6304 118.518 46.9341L119.847 44.2759C119.858 44.2492 119.87 44.2264 119.881 44.1997C121.451 40.6186 122.134 36.7095 122.013 32.7967L121.9 29.2843Z" fill="#E62D3B"/>
<path d="M98.1673 8.83518C92.9739 7.34021 87.2937 8.00379 82.4136 10.2615C82.289 10.2501 82.1569 10.2691 82.0211 10.334C78.9677 11.7183 76.2314 13.8006 74.0159 16.3405V16.3482C72.6685 17.8927 71.5098 19.6089 70.5927 21.4395C68.1092 26.3973 67.2374 32.1789 68.4112 37.6286C69.2755 41.6407 71.2909 45.2484 74.0159 48.2231V48.2155C75.0953 49.3939 76.2842 50.4694 77.5599 51.4342C81.9909 54.7827 87.5956 56.659 93.14 56.3692C98.8655 56.0679 104.149 53.4898 108.26 49.5083C112.336 45.5573 115.057 40.2944 115.71 34.612C116.352 29.0325 114.736 23.2128 111.551 18.6402C108.354 14.0447 103.53 10.3759 98.1673 8.83518ZM87.4711 10.8755C89.6186 10.334 91.8454 10.128 94.0647 10.3416C99.1071 10.8297 103.976 13.3659 107.414 17.1033C108.278 18.0415 109.082 19.0559 109.811 20.1275C109.637 20.0093 109.467 19.8987 109.294 19.7919C106.712 18.1787 103.764 17.2062 100.775 16.7372C97.4388 16.2147 94.0647 16.2986 90.7584 16.9927C89.094 17.3435 87.4786 17.8698 85.9161 18.5449C84.3686 19.2161 82.9269 20.0703 81.4663 20.9132C80.6623 21.3784 79.7829 21.859 78.8658 22.2594C79.2734 20.9246 79.8094 19.6203 80.4925 18.3656C82.1456 15.3299 84.5045 12.6336 87.4711 10.8755ZM74.0159 20.2915V20.2839C74.1329 20.1123 74.2499 19.9407 74.3707 19.7729C75.8162 17.7478 77.6429 15.9554 79.6622 14.5214C79.949 14.3193 80.2359 14.1248 80.5302 13.9341C78.3185 16.5656 76.756 19.7576 75.9257 23.148C75.284 23.2395 74.6462 23.2548 74.0121 23.1671V23.1747C73.5252 23.106 73.0421 22.9764 72.5704 22.7704C72.9969 21.9124 73.4837 21.0848 74.0159 20.2915ZM71.3702 25.8023C71.4343 25.5888 71.5023 25.3752 71.5702 25.1578C71.5966 25.093 71.623 25.0243 71.6457 24.9595C71.6646 24.9023 71.6872 24.8489 71.7098 24.7917C72.4496 25.1349 73.2233 25.3371 74.0159 25.421V25.4133C74.5028 25.4667 74.9934 25.4744 75.4841 25.4477C75.4275 25.8443 75.3784 26.2447 75.3444 26.6452C75.2048 28.1897 75.2086 29.7457 75.3482 31.2903C74.8953 31.5382 74.4499 31.8013 74.0159 32.0759V32.0835C72.7629 32.8767 71.5891 33.7882 70.5323 34.8332C70.1888 31.8318 70.5021 28.7236 71.3702 25.8023ZM74.0159 43.9441V43.9517C73.2309 42.8153 72.5477 41.6101 71.9929 40.344C71.6117 39.4783 71.306 38.5859 71.0644 37.6706C71.0946 37.6439 71.1248 37.6134 71.1513 37.5829C72.0156 36.5608 72.9818 35.6646 74.0197 34.879V34.8713C74.5556 34.4632 75.1104 34.0857 75.6841 33.7348C76.1785 36.4693 77.073 39.1465 78.2846 41.6673C77.0089 42.7047 75.9332 43.9784 75.1444 45.4315C74.7443 44.9547 74.3707 44.4552 74.0159 43.9441ZM76.5333 46.9875C77.1221 45.6145 78.0241 44.3484 79.1338 43.3339C80.4925 45.7976 82.1532 48.0782 84.0365 50.0728C85.2443 51.3542 86.6332 52.5288 88.1504 53.4593C83.7912 52.5211 79.6961 50.2024 76.5333 46.9875ZM96.567 53.4555C95.899 53.6081 95.2309 53.7186 94.5591 53.7949C91.4529 53.1161 88.7279 51.2664 86.5049 48.9401C84.4856 46.8235 82.7608 44.3941 81.3681 41.797C83.5874 40.691 86.1878 40.4432 88.5882 41.0381C89.9545 41.3775 91.2642 41.919 92.5927 42.3805C93.9099 42.8381 95.2536 43.2271 96.6123 43.5437C99.3448 44.1806 102.172 44.4895 104.972 44.2149C106.878 44.028 108.814 43.6695 110.573 42.9144C107.512 48.1049 102.436 52.1245 96.567 53.4555ZM111.766 40.611C109.532 41.5873 107.237 42.3614 104.78 42.4987C101.991 42.6551 99.2052 42.2318 96.5142 41.5262C95.095 41.1563 93.6986 40.6948 92.3172 40.2067C90.9321 39.7147 89.5507 39.1923 88.0938 38.9634C85.5311 38.563 82.8703 38.9901 80.5567 40.1724C80.4057 39.852 80.2585 39.5279 80.1151 39.2037C79.1677 37.0223 78.5073 34.7264 78.1713 32.4C80.6473 31.2445 83.3194 30.4512 85.9614 29.8296C92.3134 28.3346 99.0618 28.0257 105.319 30.1233C106.924 30.661 108.494 31.3475 109.954 32.2094C111.309 33.0102 112.385 33.9865 113.404 35.1573C113.106 37.0413 112.543 38.8719 111.766 40.611ZM113.63 30.6915C113.672 31.3475 113.679 32.0034 113.657 32.6594C113.057 32.0568 112.377 31.5267 111.698 31.05C110.354 30.1118 108.879 29.3758 107.369 28.758C104.278 27.488 100.956 26.8206 97.6351 26.5918C94.0307 26.3477 90.4037 26.6909 86.8634 27.3812C83.8138 27.9762 80.8058 28.819 77.9411 30.0432C77.8543 28.3385 77.9487 26.6299 78.2317 24.9519C78.7979 24.7803 79.3565 24.5743 79.8924 24.3417C81.4172 23.6819 82.8514 22.8467 84.3158 22.0611C85.7274 21.3022 87.1691 20.6538 88.6864 20.139C94.4421 18.1825 101.183 18.152 106.708 20.8788C108.075 21.5539 109.369 22.4234 110.475 23.4798C111.498 24.4599 112.219 25.585 112.947 26.771C113.31 28.0486 113.544 29.3605 113.63 30.6915Z" fill="white"/>
<path d="M23.06 263.247C26.0454 264.514 29.2573 265.269 31.9785 267.16C32.6088 267.599 33.2353 268.156 34.0543 267.5C34.7299 266.962 34.945 266.256 34.8054 265.421C34.2657 262.229 35.4131 259.453 36.9039 256.768C38.6325 253.656 40.8555 250.891 42.9465 248.034C44.9355 245.311 46.9245 242.581 48.1436 239.393C50.3817 233.52 47.6152 227.353 41.8066 225.19C36.1453 223.085 30.2914 225.98 28.125 231.895C27.2456 234.297 27.1814 236.811 26.9286 239.743C23.5166 237.802 20.7011 235.461 17.1646 234.538C12.6091 233.348 9.15941 235.068 7.56668 239.553C5.44178 245.544 6.993 250.826 11.0465 255.441C14.3188 259.159 18.5837 261.348 23.06 263.247ZM9.62364 242.779C9.93313 238.05 13.1375 235.945 17.4514 237.726C20.4859 238.981 23.1468 240.914 25.9397 242.615C26.9135 243.206 27.8231 244.457 29.1365 243.721C30.3556 243.039 29.7819 241.677 29.8008 240.613C29.8498 237.993 30.065 235.403 30.8877 232.913C32.2125 228.913 35.398 226.826 39.1382 227.402C43.0219 228.001 45.7432 231.304 45.7847 236.342C45.7432 239.026 44.1806 241.986 42.1048 244.705C40.112 247.314 37.9833 249.819 36.0094 252.443C33.9109 255.227 32.2163 258.229 31.8011 261.802C31.7181 262.519 31.7445 263.106 30.6084 262.828C24.9697 261.451 19.5688 259.579 15.0963 255.658C11.2239 252.272 9.28019 248.019 9.62364 242.779Z" fill="white"/>
<path d="M33.3147 274.467C31.8541 274.467 30.1595 274.025 28.3365 272.728L28.2384 272.659C27.0684 271.847 25.487 271.275 23.6564 270.612C22.6449 270.245 21.5957 269.864 20.5087 269.403C15.523 267.29 10.3296 264.674 6.10998 259.872C0.161776 253.099 -1.48379 245.296 1.35066 237.303C4.07189 229.633 10.9259 226.014 18.8216 228.077C19.9766 228.379 21.0522 228.775 22.0675 229.225C25.6002 220.137 35.1981 215.622 44.094 218.932C48.574 220.599 52.0991 223.871 54.0127 228.142C55.93 232.421 56.0357 237.272 54.3146 241.795C52.7672 245.853 50.3781 249.121 48.2683 252.004C47.8116 252.63 47.3474 253.252 46.8794 253.877C45.3017 255.99 43.8147 257.981 42.6749 260.036C41.3576 262.408 41.184 263.461 41.3274 264.304C41.8747 267.561 40.6934 270.714 38.1646 272.736C37.4815 273.273 35.7152 274.467 33.3147 274.467Z" fill="#6E2C6B"/>
<path d="M23.06 263.247C26.0454 264.514 29.2573 265.269 31.9785 267.16C32.6088 267.599 33.2353 268.156 34.0543 267.5C34.7299 266.962 34.945 266.256 34.8054 265.421C34.2657 262.229 35.4131 259.453 36.9039 256.768C38.6325 253.656 40.8555 250.891 42.9465 248.034C44.9355 245.311 46.9245 242.581 48.1436 239.393C50.3817 233.52 47.6152 227.353 41.8066 225.19C36.1453 223.085 30.2914 225.98 28.125 231.895C27.2456 234.297 27.1814 236.811 26.9286 239.743C23.5166 237.802 20.7011 235.461 17.1646 234.538C12.6091 233.348 9.15941 235.068 7.56668 239.553C5.44178 245.544 6.993 250.826 11.0465 255.441C14.3188 259.159 18.5837 261.348 23.06 263.247ZM9.62364 242.779C9.93313 238.05 13.1375 235.945 17.4514 237.726C20.4859 238.981 23.1468 240.914 25.9397 242.615C26.9135 243.206 27.8231 244.457 29.1365 243.721C30.3556 243.039 29.7819 241.677 29.8008 240.613C29.8498 237.993 30.065 235.403 30.8877 232.913C32.2125 228.913 35.398 226.826 39.1382 227.402C43.0219 228.001 45.7432 231.304 45.7847 236.342C45.7432 239.026 44.1806 241.986 42.1048 244.705C40.112 247.314 37.9833 249.819 36.0094 252.443C33.9109 255.227 32.2163 258.229 31.8011 261.802C31.7181 262.519 31.7445 263.106 30.6084 262.828C24.9697 261.451 19.5688 259.579 15.0963 255.658C11.2239 252.272 9.28019 248.019 9.62364 242.779Z" fill="white"/>
<path d="M424.24 315.735C422.927 306.933 414.446 301.136 405.837 303.15C397.299 305.148 392.227 314.153 394.88 322.627C395.024 323.084 394.993 323.431 394.767 323.855C389.751 333.267 384.576 342.591 379.496 351.973C379.236 352.457 378.983 352.946 378.881 353.495C378.496 355.627 379.3 357.228 381.1 358.453C379.825 359.417 378.647 360.398 377.341 361.195C375.235 362.476 372.937 361.572 372.197 359.192C371.846 358.056 371.616 356.893 371.431 355.718C371.14 353.884 371.178 352.034 371.159 350.184C371.14 348.068 370.408 346.222 368.562 345.074C367.143 344.193 365.532 344.022 363.886 344.33C363.35 344.43 362.826 344.586 362.286 344.655C360.799 344.849 360.719 345.063 361.063 343.297C361.482 341.146 362.391 339.163 363.241 337.161C363.611 336.284 363.35 335.483 362.599 335.155C361.84 334.823 361.074 335.166 360.701 336.036C360.033 337.592 359.41 339.163 358.908 340.78C358.515 342.042 358.161 343.312 358.217 344.658C358.285 346.306 359.323 347.416 360.938 347.576C361.55 347.637 362.157 347.557 362.761 347.469C363.754 347.328 364.743 347.149 365.739 347.061C366.887 346.962 367.407 347.328 367.894 348.377C368.317 349.292 368.302 350.253 368.272 351.226C368.177 354.288 368.551 357.289 369.464 360.214C370.144 362.384 371.582 363.86 373.752 364.459C376.032 365.088 378.04 364.276 379.878 362.949C380.727 362.335 381.561 361.694 382.353 361.008C383.044 360.409 383.603 360.123 384.603 360.569C386.392 361.366 388.351 360.649 389.653 359.002C396.318 350.577 402.983 342.153 409.641 333.721C409.921 333.37 410.211 333.187 410.668 333.149C419.39 332.409 425.546 324.503 424.24 315.735ZM398.651 343.373C394.986 347.961 391.325 352.549 387.66 357.137C386.75 358.273 386.056 358.376 384.867 357.545C384.078 356.996 383.286 356.454 382.504 355.89C381.648 355.272 381.444 354.456 381.946 353.529C385.158 347.587 388.381 341.653 391.593 335.711C391.755 335.41 391.865 335.261 392.193 335.57C394.578 337.798 397.269 339.563 400.217 340.932C400.292 340.967 400.357 341.028 400.462 341.104C399.847 341.874 399.251 342.626 398.651 343.373ZM406.728 333.16C405.301 334.907 403.889 336.665 402.485 338.434C402.27 338.705 402.097 338.751 401.776 338.61C398.692 337.252 395.929 335.41 393.51 333.046C393.329 332.866 393.118 332.733 393.306 332.394C394.499 330.273 395.669 328.141 396.892 325.937C398.537 327.855 400.345 329.419 402.417 330.67C403.731 331.459 405.101 332.127 406.55 332.607C406.913 332.725 406.999 332.825 406.728 333.16ZM419.345 325.46C416.91 328.656 413.71 330.365 409.724 330.532C409.003 330.563 408.317 330.258 407.637 330.033C404.599 329.026 402.01 327.321 399.734 325.048C398.069 323.386 397.152 321.452 396.99 319.103C396.794 316.246 397.432 313.619 398.945 311.205C399.183 311.292 399.213 311.483 399.3 311.628C403.874 319.152 410.475 323.595 419.115 324.923C419.598 324.999 419.609 325.109 419.345 325.46ZM421.202 321.456C421.073 322.005 420.855 322.184 420.281 322.139C416.601 321.845 413.223 320.697 410.109 318.687C407.218 316.818 404.603 314.667 402.716 311.716C402.217 310.938 401.798 310.118 401.345 309.317C401.055 308.806 401.21 308.558 401.61 308.245C403.889 306.449 406.475 305.549 408.796 305.515C415.688 305.518 420.889 310.297 421.53 316.677C421.7 318.294 421.575 319.873 421.202 321.456Z" fill="white"/>
<path d="M375.341 371.347C374.235 371.347 373.125 371.194 372.016 370.889C367.687 369.695 364.543 366.618 363.165 362.217C362.365 359.658 361.878 356.992 361.716 354.257C361.278 354.269 360.802 354.261 360.304 354.212C355.398 353.731 351.827 349.914 351.623 344.929C351.525 342.507 352.08 340.482 352.612 338.774C353.118 337.145 353.763 335.429 354.647 333.374C355.541 331.291 357.138 329.705 359.149 328.904C361.112 328.122 363.278 328.168 365.241 329.03C368.845 330.62 370.665 334.491 369.796 338.293C370.566 338.579 371.31 338.942 372.019 339.384C373.888 340.543 375.333 342.103 376.307 343.968C377.39 341.981 378.473 339.998 379.56 338.011C382.35 332.912 385.222 327.653 388.015 322.44C386.962 317.253 387.807 311.784 390.43 307.135C393.419 301.838 398.488 298.017 404.342 296.648C410.245 295.267 416.503 296.446 421.507 299.882C426.493 303.306 429.871 308.722 430.766 314.74C431.675 320.838 430.113 326.833 426.372 331.616C423.13 335.757 418.635 338.495 413.544 339.472C407.305 347.374 401.059 355.268 394.812 363.163C392.276 366.366 388.551 367.926 384.905 367.487C384.527 367.777 384.135 368.071 383.716 368.372C380.972 370.355 378.168 371.347 375.341 371.347Z" fill="#E62D3B"/>
<path d="M424.24 315.735C422.927 306.933 414.446 301.136 405.837 303.15C397.299 305.148 392.227 314.153 394.88 322.627C395.024 323.084 394.993 323.431 394.767 323.855C389.751 333.267 384.576 342.591 379.496 351.973C379.236 352.457 378.983 352.946 378.881 353.495C378.496 355.627 379.3 357.228 381.1 358.453C379.825 359.417 378.647 360.398 377.341 361.195C375.235 362.476 372.937 361.572 372.197 359.192C371.846 358.056 371.616 356.893 371.431 355.718C371.14 353.884 371.178 352.034 371.159 350.184C371.14 348.068 370.408 346.222 368.562 345.074C367.143 344.193 365.532 344.022 363.886 344.33C363.35 344.43 362.826 344.586 362.286 344.655C360.799 344.849 360.719 345.063 361.063 343.297C361.482 341.146 362.391 339.163 363.241 337.161C363.611 336.284 363.35 335.483 362.599 335.155C361.84 334.823 361.074 335.166 360.701 336.036C360.033 337.592 359.41 339.163 358.908 340.78C358.515 342.042 358.161 343.312 358.217 344.658C358.285 346.306 359.323 347.416 360.938 347.576C361.55 347.637 362.157 347.557 362.761 347.469C363.754 347.328 364.743 347.149 365.739 347.061C366.887 346.962 367.407 347.328 367.894 348.377C368.317 349.292 368.302 350.253 368.272 351.226C368.177 354.288 368.551 357.289 369.464 360.214C370.144 362.384 371.582 363.86 373.752 364.459C376.032 365.088 378.04 364.276 379.878 362.949C380.727 362.335 381.561 361.694 382.353 361.008C383.044 360.409 383.603 360.123 384.603 360.569C386.392 361.366 388.351 360.649 389.653 359.002C396.318 350.577 402.983 342.153 409.641 333.721C409.921 333.37 410.211 333.187 410.668 333.149C419.39 332.409 425.546 324.503 424.24 315.735ZM398.651 343.373C394.986 347.961 391.325 352.549 387.66 357.137C386.75 358.273 386.056 358.376 384.867 357.545C384.078 356.996 383.286 356.454 382.504 355.89C381.648 355.272 381.444 354.456 381.946 353.529C385.158 347.587 388.381 341.653 391.593 335.711C391.755 335.41 391.865 335.261 392.193 335.57C394.578 337.798 397.269 339.563 400.217 340.932C400.292 340.967 400.357 341.028 400.462 341.104C399.847 341.874 399.251 342.626 398.651 343.373ZM406.728 333.16C405.301 334.907 403.889 336.665 402.485 338.434C402.27 338.705 402.097 338.751 401.776 338.61C398.692 337.252 395.929 335.41 393.51 333.046C393.329 332.866 393.118 332.733 393.306 332.394C394.499 330.273 395.669 328.141 396.892 325.937C398.537 327.855 400.345 329.419 402.417 330.67C403.731 331.459 405.101 332.127 406.55 332.607C406.913 332.725 406.999 332.825 406.728 333.16ZM419.345 325.46C416.91 328.656 413.71 330.365 409.724 330.532C409.003 330.563 408.317 330.258 407.637 330.033C404.599 329.026 402.01 327.321 399.734 325.048C398.069 323.386 397.152 321.452 396.99 319.103C396.794 316.246 397.432 313.619 398.945 311.205C399.183 311.292 399.213 311.483 399.3 311.628C403.874 319.152 410.475 323.595 419.115 324.923C419.598 324.999 419.609 325.109 419.345 325.46ZM421.202 321.456C421.073 322.005 420.855 322.184 420.281 322.139C416.601 321.845 413.223 320.697 410.109 318.687C407.218 316.818 404.603 314.667 402.716 311.716C402.217 310.938 401.798 310.118 401.345 309.317C401.055 308.806 401.21 308.558 401.61 308.245C403.889 306.449 406.475 305.549 408.796 305.515C415.688 305.518 420.889 310.297 421.53 316.677C421.7 318.294 421.575 319.873 421.202 321.456Z" fill="white"/>
</svg>
