<svg width="27" height="27" viewBox="0 0 27 27" fill="none" xmlns="http://www.w3.org/2000/svg">
<path d="M23.65 0.449951H3.34995C1.75495 0.449951 0.449951 1.75495 0.449951 3.34995V23.65C0.449951 25.2464 1.75495 26.5499 3.34995 26.5499H23.65C25.2449 26.5499 26.5499 25.2464 26.5499 23.65V3.34995C26.5499 1.75495 25.2449 0.449951 23.65 0.449951ZM13.4768 21.5083C15.6066 21.5079 17.6491 20.6616 19.155 19.1554C20.6609 17.6492 21.5069 15.6066 21.5069 13.4768C21.5069 12.9867 21.4445 12.514 21.3575 12.05H23.65V22.5131C23.65 22.6449 23.6239 22.7754 23.5734 22.897C23.5228 23.0187 23.4487 23.1292 23.3554 23.2222C23.262 23.3151 23.1512 23.3887 23.0293 23.4387C22.9074 23.4888 22.7769 23.5142 22.6451 23.5137H4.3548C4.22305 23.5142 4.09248 23.4888 3.97059 23.4387C3.8487 23.3887 3.73789 23.3151 3.64453 23.2222C3.55116 23.1292 3.47708 23.0187 3.42652 22.897C3.37597 22.7754 3.34995 22.6449 3.34995 22.5131V12.05H5.596C5.50755 12.514 5.4452 12.9867 5.4452 13.4768C5.44559 15.6067 6.29189 17.6494 7.79801 19.1555C9.30414 20.6616 11.3468 21.5079 13.4768 21.5083ZM8.4583 13.4768C8.4583 12.8177 8.58811 12.1651 8.84031 11.5563C9.09251 10.9474 9.46216 10.3942 9.92817 9.92817C10.3942 9.46216 10.9474 9.09251 11.5563 8.84031C12.1651 8.58811 12.8177 8.4583 13.4768 8.4583C14.1358 8.4583 14.7884 8.58811 15.3972 8.84031C16.0061 9.09251 16.5593 9.46216 17.0253 9.92817C17.4913 10.3942 17.861 10.9474 18.1132 11.5563C18.3654 12.1651 18.4952 12.8177 18.4952 13.4768C18.4952 14.8077 17.9665 16.0842 17.0253 17.0253C16.0842 17.9665 14.8077 18.4952 13.4768 18.4952C12.1458 18.4952 10.8693 17.9665 9.92817 17.0253C8.98703 16.0842 8.4583 14.8077 8.4583 13.4768ZM22.6451 7.69995H20.3034C20.0375 7.69919 19.7827 7.59322 19.5947 7.40522C19.4067 7.21721 19.3007 6.96243 19.2999 6.69655V4.3519C19.2999 3.798 19.7495 3.34995 20.3019 3.34995H22.6437C23.2004 3.34995 23.65 3.798 23.65 4.3519V6.6951C23.65 7.24755 23.2004 7.69995 22.6451 7.69995Z" fill="#F8F8F8"/>
</svg>
