<svg width="90" height="76" viewBox="0 0 90 76" fill="none" xmlns="http://www.w3.org/2000/svg">
<path fill-rule="evenodd" clip-rule="evenodd" d="M89.6053 11.8698C76.1845 18.4642 69.4741 26.2125 69.4741 35.115C75.1945 35.7744 79.9247 38.1099 83.665 42.1215C87.4052 46.1331 89.2753 50.7765 89.2753 56.0521C89.2753 61.6573 87.4602 66.3832 83.83 70.2299C80.1997 74.0767 75.6345 76 70.1342 76C63.9738 76 58.6385 73.4997 54.1282 68.4989C49.6179 63.4982 47.3628 57.4259 47.3628 50.282C47.3628 28.8502 59.3534 12.0897 83.3349 0L89.6053 11.8698ZM42.2425 11.8698C28.7116 18.4642 21.9463 26.2125 21.9463 35.115C27.7767 35.7744 32.5619 38.1099 36.3022 42.1215C40.0424 46.1331 41.9125 50.7765 41.9125 56.0521C41.9125 61.6573 40.0699 66.3832 36.3847 70.2299C32.6994 74.0767 28.1067 76 22.6063 76C16.4459 76 11.1382 73.4997 6.6829 68.4989C2.22761 63.4982 0 57.4259 0 50.282C0 28.8502 11.9356 12.0897 35.8071 0L42.2425 11.8698Z" fill="#D1D1D1"/>
</svg>
